<svg xmlns="http://www.w3.org/2000/svg"
     viewBox="0 -128 1024 1024"
     width="24" height="24">
  <path d="M300.197309 299.705317l4.427931 1.803972c1.147982-2.787956 10.167841-7.543882 26.89558-14.267777l5.411915-12.955798c10.659833-24.927611 23.123639-62.483024 37.555413-112.66624 14.431775 5.575913 34.439462 0.983985 60.351057-13.611787l1.803972-4.427931L389.575913 107.828315l18.203716-42.639334c2.459962-5.575913-12.463805-15.579757-44.7713-29.847534-11.151826 7.215887-19.84369 9.675849-26.403587 7.05189l-0.983985 2.131967c-10.823831 25.419603-16.235746 42.311339-16.399744 50.675208l-4.427931-1.803972 6.3959-14.923767-11.151826-4.263933c-41.655349-16.235746-71.830878-18.695708-90.690583-7.871877l-4.427931-1.803972-1.803972 4.263933c-7.05189 16.727739 3.607944 77.406791 32.307495 182.037156 11.479821 4.427931 19.1877 14.923767 22.959641 31.323511C281.337604 290.685458 291.83344 296.425368 300.197309 299.705317L300.197309 299.705317zM216.230621 80.276746c28.371557 19.515695 40.999359 32.799488 38.047406 39.68738-0.983985 2.131967-0.65599 5.575913 0.65599 10.167841l-0.983985 2.131967c-25.5836-21.483664-38.047406-32.963485-37.391416-34.439462C215.246637 88.804612 215.082639 83.064702 216.230621 80.276746L216.230621 80.276746zM216.722614 72.896861l0.983985-2.131967c11.643818 1.147982 21.155669 3.279949 28.699552 6.231903 0.819987 0.327995 7.379885 5.411915 19.84369 15.251762l-0.983985 2.131967c-7.543882-2.951954-12.7918-0.983985-15.743754 6.067905C226.398463 85.032671 215.574632 75.848815 216.722614 72.896861L216.722614 72.896861zM225.90647 143.743754l11.151826 4.263933c-1.147982-2.623959-6.3959-8.691864-15.579757-18.53171-2.295964-10.823831-2.787956-17.547726-1.639974-20.335682 27.715567 20.663677 40.34337 33.783472 37.883408 39.523382l0.819987 10.331839-3.443946-3.935939-9.019859-3.443946-0.983985 2.131967c11.151826 4.263933 17.875721 16.891736 20.49968 37.719411l-0.983985 2.131967C239.35426 172.443306 227.21845 160.307495 227.874439 157.027546L225.90647 143.743754 225.90647 143.743754zM231.646381 173.42729l0.983985-2.131967 2.131967 0.819987c28.371557 23.123639 40.179372 40.179372 35.423447 51.331198 1.475977 0.65599 1.967969 1.639974 1.475977 2.951954l-2.295964-0.819987c-28.863549-21.647662-40.999359-38.047406-36.407431-49.035234C231.482383 175.723254 230.990391 174.73927 231.646381 173.42729L231.646381 173.42729zM240.994234 211.966688l0.983985-2.131967c13.775785 10.331839 35.915439 29.847534 66.418962 58.21909l2.131967 0.819987-6.3959 14.923767 0.491992 5.083921-2.295964-0.819987c-36.571429-32.963485-55.431134-51.82319-56.579116-56.743113L240.994234 211.966688 240.994234 211.966688zM311.67713 107.336323l-35.751441-13.939782c-1.475977-0.491992-6.887892-4.263933-16.235746-11.315823l0.819987-1.967969 12.299808 2.131967 20.007687 7.871877c11.643818 4.591928 32.143498 19.84369 61.171044 46.08328l-6.3959 14.923767-2.131967-0.819987c-24.107623-16.891736-34.439462-29.191544-31.159513-36.899423C315.449071 110.616272 314.629084 108.484305 311.67713 107.336323L311.67713 107.336323zM267.889814 264.773863l0.819987-1.967969c17.875721 16.891736 27.387572 25.419603 28.207559 25.747598l-0.983985 2.131967-8.855862-3.443946C274.941704 282.485586 268.545804 274.941704 267.889814 264.773863L267.889814 264.773863zM275.597694 222.954516c16.071749-37.883408 20.007687-67.894939 11.971813-90.034593l-3.443946-28.863549 26.89558 10.495836c-7.543882 30.011531-18.367713 65.598975-32.471493 106.926329l-0.983985 2.131967L275.597694 222.954516 275.597694 222.954516zM279.369635 231.810378l6.3959-14.923767c13.44779 15.087764 24.435618 24.271621 32.63549 27.55157l-3.607944 8.527867-2.459962 11.643818-2.131967-0.819987C289.045484 247.06214 278.713645 236.566304 279.369635 231.810378L279.369635 231.810378zM292.817425 194.58296c23.943626 17.219731 33.619475 30.995516 29.191544 41.491352l-2.787956 6.3959-2.295964-0.819987c-21.483664-18.859705-30.667521-31.651505-27.879564-38.3754L292.817425 194.58296 292.817425 194.58296zM294.457399 190.483024l2.787956-6.3959 2.295964-11.807816 2.295964 0.819987-0.491992-5.083921 6.3959-14.923767 32.471493 27.387572-6.3959 15.087764c-9.347854-10.331839-16.235746-16.399744-20.827675-18.203716l-2.295964-0.983985c-0.65599 1.639974 6.067905 10.167841 20.335682 25.419603l-3.115951 13.611787-0.983985 2.131967L294.457399 190.483024 294.457399 190.483024zM307.413197 148.171685l2.787956-6.3959 2.295964-11.643818c23.943626 17.219731 35.259449 27.387572 33.94747 30.503523l-5.411915 12.955798C329.224856 165.719411 318.07303 157.191544 307.413197 148.171685L307.413197 148.171685zM355.792441 131.935939c-23.779628-17.711723-34.111467-30.011531-30.995516-37.227418l1.475977-9.347854c25.255605 18.039718 36.899423 29.355541 34.931454 33.783472 24.435618 21.155669 38.703395 32.471493 42.803331 33.94747l-0.819987 1.967969c-1.803972 2.787956-6.723895 4.099936-14.595772 4.427931l-30.831518-31.9795L355.792441 131.935939 355.792441 131.935939zM327.912876 81.26073l4.591928-10.659833-0.491992-5.083921 2.295964 0.819987c23.451634 14.595772 34.275464 23.615631 32.63549 27.55157l-5.411915 12.955798L327.912876 81.26073 327.912876 81.26073zM333.816784 61.253043l5.411915-12.7918c25.747598 13.283792 37.719411 22.139654 35.915439 26.403587l-4.591928 10.659833C348.412556 70.272902 336.112748 62.237028 333.816784 61.253043L333.816784 61.253043zM357.596413 139.971813l1.803972-4.099936c4.919923 1.967969 8.527867 9.839846 10.823831 23.943626l-2.295964-0.819987C364.648302 147.679693 361.204356 141.44779 357.596413 139.971813L357.596413 139.971813zM731.674568 256.081999l3.935939-0.163997c-0.163997-2.459962 4.755926-9.019859 14.759769-19.515695l-0.65599-11.315823c-1.147982-21.975657-5.411915-53.955157-12.955798-95.774504 12.627803-0.65599 25.911595-10.659833 39.68738-30.175529l-0.163997-3.935939-47.887252-10.823831-1.967969-37.719411c-0.327995-4.919923-14.923767-7.379885-43.951313-7.379885-5.575913 9.019859-11.151826 13.775785-16.891736 13.939782l0.163997 1.967969c1.147982 22.467649 3.279949 36.735426 6.231903 42.967329l-3.935939 0.163997-0.65599-13.119795-9.839846 0.491992c-36.571429 1.803972-60.023062 9.839846-70.026906 24.271621l-3.935939 0.163997 0.163997 3.771941c0.819987 14.759769 30.667521 56.087124 89.706598 124.14606 10.167841-0.491992 19.515695 4.755926 28.371557 15.579757C714.290839 255.754004 724.294683 256.573991 731.674568 256.081999L731.674568 256.081999zM587.848815 115.86419l-0.163997-1.967969c9.019859-2.951954 16.891736-4.591928 23.615631-4.919923 0.65599 0 7.379885 1.475977 20.171685 4.755926l0.163997 1.967969c-6.723895 0.327995-9.839846 3.607944-9.511851 9.675849C599.328635 121.6041 588.012812 118.324151 587.848815 115.86419L587.848815 115.86419zM590.144779 121.440102c28.043562 5.083921 42.147341 10.659833 42.475336 16.727739 0.163997 1.803972 1.475977 4.263933 4.099936 7.215887l0.163997 1.967969c-26.731582-7.379885-40.015375-11.807816-40.179372-13.119795C592.440743 128.163997 590.308776 123.900064 590.144779 121.440102L590.144779 121.440102zM620.15631 165.227418l9.839846-0.491992c-1.803972-1.475977-7.871877-4.427931-18.367713-8.527867-5.575913-7.215887-8.527867-12.13581-8.527867-14.595772 28.043562 6.067905 42.147341 11.643818 42.311339 16.727739l4.263933 7.379885-3.935939-1.803972-8.035874 0.327995 0.163997 1.967969c9.839846-0.491992 19.351698 6.559898 28.863549 21.155669l0.163997 1.967969c-26.23959-7.379885-39.68738-12.463805-40.34337-14.923767L620.15631 165.227418 620.15631 165.227418zM670.667521 109.960282l-31.487508 1.475977c-1.31198 0-6.559898-0.983985-16.071749-2.951954l-0.163997-1.803972 9.839846-2.459962 17.711723-0.819987c10.331839-0.491992 30.995516 4.099936 61.991031 13.939782l0.65599 13.119795-1.803972 0.163997c-23.943626-4.591928-36.079436-10.167841-36.407431-16.891736C674.603459 110.944266 673.29148 109.796284 670.667521 109.960282L670.667521 109.960282zM635.244074 185.399103l-0.163997-1.967969 1.803972-0.163997c29.355541 7.70788 44.279308 16.563741 44.7713 26.23959 1.31198 0 2.131967 0.491992 2.131967 1.639974l-1.967969 0.163997c-29.191544-6.3959-44.115311-14.595772-44.607303-24.271621C635.900064 187.039078 635.244074 186.547085 635.244074 185.399103L635.244074 185.399103zM685.755285 207.37476c-1.803972-33.29148-9.675849-56.907111-23.615631-70.682896l-12.955798-20.171685 23.779628-1.147982c5.247918 24.763613 10.167841 54.611147 14.595772 89.870596l0.163997 1.967969L685.755285 207.37476 685.755285 207.37476zM656.071749 210.818706l-0.163997-1.967969c13.939782 3.115951 37.391416 10.167841 70.354901 21.155669l1.803972-0.163997 0.65599 13.119795 2.295964 3.607944-1.967969 0.163997c-39.03139-12.299808-59.859065-20.007687-62.483024-23.287636L656.071749 210.818706 656.071749 210.818706zM670.339526 68.46893l-0.65599-11.315823c23.943626 1.31198 35.915439 3.935939 36.079436 7.70788l0.491992 9.347854C684.443306 70.272902 672.471493 68.304933 670.339526 68.46893L670.339526 68.46893zM673.29148 85.196669l-0.491992-9.347854-2.295964-3.607944 1.967969-0.163997c22.631646 2.951954 33.94747 6.231903 34.111467 9.511851l0.65599 11.315823L673.29148 85.196669 673.29148 85.196669zM712.158873 113.568225c-23.943626-5.247918-36.079436-10.987828-36.407431-17.219731l-2.295964-7.379885c25.255605 5.083921 37.883408 9.511851 38.211403 13.44779 25.747598 7.543882 40.34337 11.151826 43.951313 10.987828l0.163997 1.803972c-0.327995 2.623959-3.443946 5.247918-9.347854 8.035874l-34.439462-13.44779L712.158873 113.568225 712.158873 113.568225zM682.147341 141.611787l-0.327995-5.73991-2.459962-9.347854c23.943626 4.755926 36.079436 8.691864 36.079436 11.479821l0.65599 11.315823C704.778988 147.351698 693.463165 144.727739 682.147341 141.611787L682.147341 141.611787zM688.051249 177.199231l-0.327995-5.73991-2.623959-9.511851 1.967969-0.163997-2.295964-3.607944-0.65599-13.119795 33.94747 9.511851 0.65599 13.283792c-10.659833-4.591928-18.039718-6.723895-21.975657-6.559898l-1.967969 0.163997c0 1.475977 8.199872 5.411915 24.271621 12.13581l2.623959 11.151826 0.163997 1.967969L688.051249 177.199231 688.051249 177.199231zM688.215247 180.807175c23.943626 4.755926 36.243434 11.807816 36.735426 20.991672l0.327995 5.73991-1.967969 0.163997c-22.631646-6.887892-34.275464-13.283792-34.603459-19.1877L688.215247 180.807175 688.215247 180.807175zM691.82319 212.786675l-0.65599-13.119795c15.415759 6.723895 26.89558 10.003844 34.111467 9.511851l0.327995 7.543882 2.459962 9.511851-1.803972 0.163997C704.450993 220.986547 692.971172 216.558616 691.82319 212.786675L691.82319 212.786675zM695.103139 240.994234l-0.163997-1.803972c19.351698 6.559898 29.355541 9.839846 30.339526 9.839846l0.163997 1.967969-7.871877 0.327995C706.746957 251.818065 699.367072 248.374119 695.103139 240.994234L695.103139 240.994234zM716.422806 118.980141l-0.163997-3.607944c4.427931-0.163997 10.003844 4.427931 16.727739 14.10378l-1.967969 0.163997C724.45868 122.26009 719.538757 118.816143 716.422806 118.980141L716.422806 118.980141zM479.118514 382.196028c53.627162 10.167841 89.870596 1.967969 109.222293-24.599616 9.675849-18.695708 15.579757-33.455477 17.875721-44.279308 11.807816-56.743113-5.903908-103.154388-53.299167-138.741832-12.463805-5.083921-22.631646-8.363869-30.339526-10.003844-31.651505-6.067905-63.631006 5.083921-95.938501 33.455477-9.347854 16.399744-15.251762 31.159513-18.039718 44.279308-13.283792 63.795003 1.967969 108.238309 45.919283 133.165919L479.118514 382.196028 479.118514 382.196028zM410.075593 265.429853c6.231903 5.247918 11.479821 8.199872 15.579757 9.019859-9.675849-9.347854-14.431775-15.087764-13.939782-17.219731-0.327995-5.411915-0.163997-10.167841 0.819987-14.267777l2.131967 0.327995c24.271621 15.743754 35.915439 25.5836 35.095452 29.519539l-2.131967 10.003844c-4.099936-3.607944-8.035874-5.73991-11.643818-6.559898l-0.819987 4.099936c10.823831 2.131967 15.251762 11.971813 13.44779 29.519539l-1.967969-0.327995c-22.467649-16.399744-34.603459-27.715567-36.407431-33.94747C409.255605 273.30173 409.255605 269.857783 410.075593 265.429853L410.075593 265.429853zM410.23959 286.257527c33.127482 21.647662 47.887252 40.34337 44.607303 56.251121-29.683536-23.615631-44.443306-36.079436-44.279308-37.555413C409.747598 295.769379 409.5836 289.537476 410.23959 286.257527L410.23959 286.257527zM412.699552 315.777066l0.491992-2.131967c27.059577 20.663677 44.607303 37.227418 52.643177 49.527226 10.331839 1.967969 17.055734 7.379885 20.49968 16.235746l-2.131967-0.491992C447.303011 372.028187 423.523382 350.872518 412.699552 315.777066L412.699552 315.777066zM414.339526 234.926329c2.459962-4.919923 4.263933-9.347854 5.083921-13.44779 18.859705 14.759769 30.339526 22.467649 34.111467 23.123639l-3.771941 18.039718C444.18706 261.493914 432.379244 252.310058 414.339526 234.926329L414.339526 234.926329zM421.883408 220.002562c2.131967-9.839846 5.247918-14.759769 9.675849-14.759769l27.879564 21.975657c-0.327995 1.147982-2.131967 6.231903-5.411915 15.415759C437.299167 228.530429 426.639334 220.986547 421.883408 220.002562L421.883408 220.002562zM432.707239 199.174888c5.083921-5.903908 8.527867-8.691864 10.495836-8.363869l3.935939 0.819987c10.987828 10.495836 19.1877 16.235746 24.599616 17.219731-0.819987 3.935939-3.935939 8.855862-9.511851 14.759769C442.21909 209.014734 432.379244 200.814862 432.707239 199.174888L432.707239 199.174888zM448.450993 185.563101l0.491992-2.131967c2.459962 0.491992 6.3959-0.819987 11.807816-3.771941 18.859705 10.003844 28.207559 16.727739 28.207559 19.84369-6.067905 1.639974-9.511851 4.427931-10.331839 8.363869C466.818706 202.946829 456.814862 195.566944 448.450993 185.563101L448.450993 185.563101zM469.442665 179.331198l0.491992-2.131967 14.923767 0.65599 12.627803 2.459962c2.459962 0.491992 8.199872 3.771941 17.547726 9.839846l-0.491992 2.131967c-6.887892-1.31198-13.611787 0.163997-20.49968 4.263933L469.442665 179.331198 469.442665 179.331198zM476.494555 249.030109l4.591928-21.811659c2.951954-14.431775 12.463805-25.091608 28.535554-31.9795l4.099936 0.819987c24.599616 34.275464 32.143498 73.798847 22.795644 118.570147l-2.459962 11.971813-6.231903 19.515695-6.067905-1.147982c-3.935939-0.819987-14.267777 0-30.831518 2.295964C473.870596 316.597053 469.278668 283.961563 476.494555 249.030109L476.494555 249.030109zM476.494555 363.172325l0.327995-1.967969c10.823831-2.131967 17.547726-3.115951 20.007687-2.623959 13.939782 10.167841 21.647662 17.875721 23.287636 23.287636l-21.319667-1.967969C496.174247 379.408072 488.630365 373.832159 476.494555 363.172325L476.494555 363.172325zM508.966047 363.172325l3.771941 2.787956c1.147982 0.163997 6.231903-2.951954 15.087764-9.675849 10.331839 13.119795 18.203716 20.171685 23.779628 21.155669-0.65599 2.951954-8.199872 4.263933-22.467649 4.099936C515.361947 370.716208 508.638053 364.648302 508.966047 363.172325L508.966047 363.172325zM511.590006 185.235106l0.491992-2.131967 4.099936 0.819987c19.84369 3.771941 35.751441 17.219731 47.723254 40.34337C554.557335 214.754644 537.173607 201.634849 511.590006 185.235106L511.590006 185.235106zM521.921845 197.534914c38.211403 24.271621 56.087124 42.311339 53.79116 53.79116 1.967969 4.919923 2.623959 8.527867 2.295964 10.823831-35.095452-26.567585-51.495195-44.935298-49.363229-54.939142C526.349776 206.71877 524.217809 203.602819 521.921845 197.534914L521.921845 197.534914zM528.64574 352.348495l7.543882-15.251762 2.131967 0.491992c4.263933 5.73991 13.283792 14.431775 27.059577 25.911595l-0.491992 2.131967c-5.411915 5.247918-8.363869 8.855862-8.855862 10.823831l-4.099936-0.819987L528.64574 352.348495 528.64574 352.348495zM536.845612 333.324792l4.263933-9.675849-0.491992-8.363869 4.099936 0.819987c19.515695 17.711723 29.027546 27.059577 28.863549 28.371557l-0.491992 2.131967c-1.967969 9.347854-4.263933 13.611787-7.05189 13.119795C548.817425 342.508648 539.141576 333.652787 536.845612 333.324792L536.845612 333.324792zM539.797566 236.402306c27.715567 19.84369 40.999359 32.63549 39.68738 38.703395 1.31198 7.215887 1.803972 12.13581 1.147982 14.759769l-1.967969-0.327995-35.095452-29.519539C540.78155 245.586163 539.469571 237.714286 539.797566 236.402306L539.797566 236.402306zM542.257527 307.413197l2.459962-11.971813 10.003844 3.935939c-7.05189-7.871877-10.331839-12.627803-10.003844-14.267777-0.65599-10.495836-0.819987-16.727739-0.327995-18.695708 18.695708 13.611787 30.831518 24.927611 36.243434 33.94747l-2.459962 11.971813c-7.05189-7.05189-12.7918-10.987828-16.727739-11.807816 8.035874 11.315823 13.939782 17.383728 17.711723 18.039718l-4.099936 19.84369C554.557335 320.532992 543.733504 310.201153 542.257527 307.413197L542.257527 307.413197zM307.249199 569.153107c-9.675849 0-17.711723-6.887892-19.84369-16.071749-4.263933-12.463805 1.639974-28.863549 29.519539-35.751441 1.31198 35.587444 0 49.527226 0 49.527226C313.809097 568.33312 310.693145 569.153107 307.249199 569.153107L307.249199 569.153107zM709.862908 537.173607c0-1.147982 0-2.131967-0.163997-3.115951 2.131967 3.279949 3.279949 7.215887 3.279949 11.479821 0 11.643818-9.183857 21.155669-20.49968 21.155669-3.443946 0-6.723895-0.819987-9.511851-2.459962C697.891095 563.905189 709.862908 551.933376 709.862908 537.173607L709.862908 537.173607zM531.761691 520.281871c0.65599 15.743754-32.963485 49.199231-32.963485 49.199231 0-18.203716 9.347854-42.803331 12.463805-48.707239-8.035874-11.643818-13.283792-32.307495-13.283792-32.307495S531.105701 504.374119 531.761691 520.281871L531.761691 520.281871zM488.794363 507.326073c2.459962 0 4.427931 1.967969 4.427931 4.427931 0 2.459962-1.967969 4.427931-4.427931 4.427931-2.459962 0-4.427931-1.967969-4.427931-4.427931C484.366432 509.294042 486.334401 507.326073 488.794363 507.326073L488.794363 507.326073zM445.335042 629.668161c-0.819987 8.855862-2.131967 16.235746-2.131967 16.235746s-53.627162 7.05189-63.959001-30.503523C395.151826 632.94811 427.623318 631.144138 445.335042 629.668161L445.335042 629.668161zM620.648302 614.908392c-9.675849 37.719411-63.303011 31.651505-63.303011 31.651505s-1.475977-7.379885-2.459962-16.235746C572.597053 631.636131 605.232543 632.784113 620.648302 614.908392L620.648302 614.908392zM419.587444 518.313901c29.847534 0 53.955157 21.975657 53.955157 49.035234 0 27.059577-24.271621 49.035234-53.955157 49.035234-29.847534 0-53.955157-21.975657-53.955157-49.035234C365.632287 540.289558 389.903908 518.313901 419.587444 518.313901L419.587444 518.313901zM419.587444 613.76041c28.371557 0 51.331198-20.827675 51.331198-46.411275 0-25.5836-22.959641-46.411275-51.331198-46.411275-28.207559 0-51.331198 20.827675-51.331198 46.411275C368.256246 592.932735 391.379885 613.76041 419.587444 613.76041L419.587444 613.76041zM419.587444 534.38565c20.007687 0 36.243434 14.759769 36.243434 32.799488 0 18.203716-16.235746 32.799488-36.243434 32.799488s-36.243434-14.759769-36.243434-32.799488C383.34401 549.14542 399.579757 534.38565 419.587444 534.38565L419.587444 534.38565zM435.331198 552.261371c1.967969 2.131967 4.919923 2.623959 6.559898 1.147982 1.639974-1.475977 1.475977-4.263933-0.491992-6.3959-1.967969-2.131967-4.919923-2.623959-6.559898-1.147982C433.035234 547.341448 433.199231 550.129404 435.331198 552.261371L435.331198 552.261371zM395.971813 585.880846c5.411915 5.73991 13.283792 7.05189 17.875721 3.115951 4.591928-3.935939 3.935939-11.807816-1.475977-17.547726-5.411915-5.73991-13.283792-7.05189-17.875721-3.115951C389.903908 572.433056 390.559898 580.304933 395.971813 585.880846L395.971813 585.880846zM584.240871 518.313901c29.847534 0 53.955157 21.975657 53.955157 49.035234 0 27.059577-24.271621 49.035234-53.955157 49.035234-29.847534 0-53.955157-21.975657-53.955157-49.035234C530.121717 540.289558 554.393338 518.313901 584.240871 518.313901L584.240871 518.313901zM584.240871 613.76041c28.371557 0 51.331198-20.827675 51.331198-46.411275 0-25.5836-22.959641-46.411275-51.331198-46.411275-28.207559 0-51.331198 20.827675-51.331198 46.411275C532.909673 592.932735 555.869315 613.76041 584.240871 613.76041L584.240871 613.76041zM584.240871 534.38565c20.007687 0 36.243434 14.759769 36.243434 32.799488 0 18.203716-16.235746 32.799488-36.243434 32.799488-20.007687 0-36.243434-14.759769-36.243434-32.799488C547.997438 549.14542 564.233184 534.38565 584.240871 534.38565L584.240871 534.38565zM599.820628 552.261371c1.967969 2.131967 4.919923 2.623959 6.559898 1.147982 1.639974-1.475977 1.475977-4.263933-0.491992-6.3959-1.967969-2.131967-4.919923-2.623959-6.559898-1.147982C597.688661 547.341448 597.852659 550.129404 599.820628 552.261371L599.820628 552.261371zM560.62524 585.880846c5.411915 5.73991 13.283792 7.05189 17.875721 3.115951 4.591928-3.935939 3.935939-11.807816-1.475977-17.547726-5.411915-5.73991-13.283792-7.05189-17.875721-3.115951C554.557335 572.433056 555.213325 580.304933 560.62524 585.880846L560.62524 585.880846zM957.171044 381.540038C957.171044 381.540038 957.171044 381.540038 957.171044 381.540038c-0.65599 0.983985-1.31198 1.803972-1.967969 2.951954-0.327995 0.327995-0.491992 0.65599-0.819987 0.983985-0.327995 0.327995-1.967969 0.65599-2.295964 0.983985-11.315823 14.759769-29.355541 40.34337-62.975016 46.247277l0 34.931454c0 4.263933-0.819987 8.691864-5.083921 8.691864L685.919283 476.330557c-0.163997 10.331839-0.327995 18.203716-0.65599 27.879564 24.435618 1.803972 43.295324 19.351698 43.295324 41.491352 0 22.467649-19.84369 40.671365-45.263293 41.819347-1.967969 78.226778-5.903908 143.98975-7.70788 150.549648l-0.491992 0.983985c-1.967969 2.295964-9.511851 5.247918-21.155669 8.363869 0.327995 13.939782-3.279949 29.355541-11.643818 46.08328 3.443946-21.647662-22.795644-36.079436-26.567585-38.047406-0.163997 0-0.327995 0-0.491992 0 0.163997 4.427931 0 57.727098-88.230621 97.90647-1.475977-44.115311-14.10378-70.682896-31.9795-86.754644L494.534273 766.606022l-5.411915-0.327995 0-0.163997 0 0 0 0 0.327995 0 0.327995-0.163997c-0.819987-0.163997-0.983985-0.491992-1.147982-1.147982-10.331839-8.035874-28.043562-18.203716-64.450993-18.203716-13.283792 0-28.207559 1.31198-44.607303 3.935939-4.099936 0.819987-7.70788 1.147982-11.151826 1.147982-5.575913 0-10.003844-0.983985-16.071749-2.295964l-0.327995 0-0.327995-0.163997c-17.547726-4.099936-27.55157-7.70788-30.011531-10.659833l-0.491992-0.983985c-0.491992-2.131967-2.295964-8.363869-5.73991-150.549648-25.255605-0.983985-45.263293-19.351698-45.263293-41.983344 0-22.139654 18.859705-39.523382 43.459321-41.163357-0.163997-9.675849-0.327995-17.547726-0.65599-27.879564L132.099936 476.002562c-4.427931 0-10.495836-4.591928-10.495836-8.691864l0-97.414478c-11.807816-0.65599-19.679693-2.295964-26.731582-4.755926-29.027546-10.495836-35.751441-35.915439-35.587444-60.023062 0-1.475977 0.491992-2.787956 0.983985-3.771941-6.723895-11.643818-6.231903-25.5836-5.083921-35.587444 0.983985-8.035874 2.623959-12.13581 4.427931-13.939782-4.263933-8.855862-0.983985-18.859705 1.967969-26.731582 3.771941-10.167841 12.13581-11.971813 22.139654-10.003844-4.755926-9.019859-2.459962-17.219731 11.643818-28.699552 4.427931-3.607944 14.267777 7.05189 26.075593 16.071749l0-267.151826c0-4.263933 6.067905-6.067905 10.331839-6.067905l751.928251 0c4.427931 0 5.083921 1.803972 5.083921 6.067905L888.784113 248.374119c16.727739 0.983985 29.355541 7.70788 38.539398 19.84369 4.591928 6.231903 7.871877 11.807816 8.691864 16.891736C977.670724 313.153107 982.262652 344.640615 957.171044 381.540038L957.171044 381.540038zM316.433056 508.638053c-22.959641 0.491992-40.835362 16.727739-40.835362 36.735426 0 20.335682 18.859705 36.899423 41.983344 36.899423l0 2.623959 0.163997-0.65599c0-0.819987 0-1.475977 0-2.295964 0.491992 0.163997 0.983985 0.163997 1.475977 0.327995l1.803972 0 0 0.491992c5.247918 1.31198 12.7918 2.951954 19.351698 3.771941 10.003844 35.095452 34.111467 64.122998 34.111467 64.122998s-9.839846 28.863549-13.939782 67.238949c51.167201-85.11467 229.268418-81.178732 280.107623-10.823831-4.591928-32.799488-12.627803-56.415119-12.627803-56.415119s24.107623-28.863549 34.111467-64.122998c6.559898-0.819987 13.939782-1.147982 19.023703-2.295964 0 0.491992 0 2.623959 0 2.623959l0.491992 0c23.123639 0 41.983344-18.695708 41.983344-39.03139 0-9.347854-3.935939-18.695708-10.495836-25.419603-10.167841-6.723895-25.091608-10.331839-40.835362-10.331839 0-6.723895 0.983985-19.351698 1.803972-35.423447L318.401025 476.658552c0.163997 10.331839 0.491992 19.84369 0.65599 30.175529l0 2.131967L316.433056 508.638053 316.433056 508.638053zM126.524023 462.554773c0 4.099936 6.3959 9.183857 10.823831 9.183857l741.432415 0c4.263933 0 5.575913-4.919923 5.575913-9.183857l0-29.027546c0 0.491992-6.723895 1.475977-10.823831 1.147982-22.795644-2.295964-44.443306-3.607944-60.679052-9.183857L176.215247 425.491352l-1.31198-2.787956 0-60.18706c-10.823831 5.903908-25.5836 8.363869-48.215247 7.871877L126.68802 462.554773 126.524023 462.554773zM821.381166-13.693786 180.807175-13.693786 180.807175 282.649584c10.823831 4.263933 15.579757 10.987828 15.087764 21.975657-0.491992 8.363869-4.263933 13.611787-15.087764 16.727739l0 7.379885c5.903908 1.967969 3.935939 4.263933 5.247918 6.723895 5.411915 10.495836 5.575913 18.203716-5.247918 23.779628l0 55.759129 615.318386 0c-2.787956-5.575913-4.755926-7.871877-5.575913-12.299808-1.475977-8.035874-1.639974-18.367713-1.147982-28.207559L697.891095 315.449071c0 0-28.371557-15.251762-16.727739-32.799488 11.643818-17.383728 32.307495-11.479821 50.511211-0.327995 12.13581 7.379885 39.68738 23.287636 63.959001 40.179372 0.163997-0.163997 0.327995-0.163997 0.491992-0.327995-1.803972-1.31198-2.951954-2.295964-2.951954-2.295964-11.151826-7.543882-6.887892-36.899423 15.415759-41.327354 3.115951-0.65599 9.675849 0 9.675849 1.147982l0-293.391416L821.381166-13.693786 821.381166-13.693786zM177.855221 271.169763c0 3.443946-2.131967 6.231903-4.755926 8.035874 1.639974 0.491992 3.771941 0.983985 4.755926 1.475977L177.855221 271.169763 177.855221 271.169763zM177.855221 322.828956c-0.983985 0.163997-1.639974 0.327995-2.459962 0.491992 0.819987 0.491992 1.475977 0.983985 2.459962 1.475977L177.855221 322.828956 177.855221 322.828956zM878.780269-65.516976 137.347854-65.516976c-4.263933 0-10.823831 2.131967-10.823831 6.3959L126.524023 206.882767c5.903908 1.147982 4.919923 2.295964 6.723895 3.279949 19.679693 8.035874 38.047406 25.255605 25.747598 33.127482-0.163997 0-1.475977 0.163997-1.639974 0.163997 9.511851 3.771941 17.547726 9.839846 17.547726 20.663677l0-289.29148 655.169763 2.459962 0 291.915439c9.839846-9.675849 21.647662-14.595772 34.603459-10.331839 3.279949-6.559898 13.611787-9.839846 19.515695-10.331839l0-307.495195C884.192184-63.38501 883.044202-65.516976 878.780269-65.516976L878.780269-65.516976zM878.780269-65.516976" fill="currentColor" transform="scale(1,-1) translate(0,-768)"/>
</svg>
