<svg xmlns="http://www.w3.org/2000/svg"
     viewBox="0 -128 1024 1024"
     width="24" height="24">
  <path d="M514.27174 834.607768c-249.516844 0-451.789687-202.272843-451.789687-451.789687s202.272843-451.789687 451.789687-451.789687 451.789687 202.272843 451.789687 451.789687S763.788583 834.607768 514.27174 834.607768zM514.27174-20.12919999999997c-222.541469 0-402.947282 180.405813-402.947282 402.947282s180.405813 402.947282 402.947282 402.947282 402.947282-180.405813 402.947282-402.947282S736.814232-20.12919999999997 514.27174-20.12919999999997zM514.295276 593.979362c-9.44614-10.360975-14.307867-22.951735-14.307867-37.483706 0-11.960403 3.886517-22.396079 11.534707-30.457686 7.783267-8.211009 17.853623-12.450567 29.313629-12.450567 9.312086 0 23.139 2.849908 35.782971 16.900925 9.865695 10.641361 14.866592 23.437805 14.866592 37.693484 0 11.68104-4.031826 21.900799-11.744485 29.832446C562.925856 615.325529 532.358677 613.449809 514.295276 593.979362zM549.461193 293.282882c-12.110829-11.541871-20.589944-18.759249-26.236548-23.316032 2.77009 14.953573 9.976212 44.614104 27.330462 103.023398 17.297968 57.890478 18.799158 67.991534 18.799158 72.955592 0 8.65717-3.63683 16.335037-9.921977 21.642926-14.124695 11.661597-39.035038 9.349949-69.131497-7.677866-16.779152-9.408277-34.595936-24.759917-54.493102-46.576805l-10.377348-11.541871 34.425044-26.548656 8.818853 8.715499c9.573029 9.292644 16.086373 15.35164 20.411889 19.393699-26.294876-86.460164-39.093367-140.190903-39.093367-164.262134 0-10.907421 3.172249-19.970844 9.573029-26.839275 6.460132-7.039323 15.510252-10.736529 25.891693-10.736529 10.146081 0 21.792329 3.926426 35.922141 11.949146 12.741185 7.212262 31.883151 23.029506 58.641585 48.190559l10.837836 10.391674-31.30703 30.475082L549.461193 293.282882z" fill="currentColor" transform="scale(1,-1) translate(0,-768)"/>
</svg>
