<svg xmlns="http://www.w3.org/2000/svg"
     viewBox="0 -128 1024 1024"
     width="24" height="24">
  <path d="M509.989715-60.972421000000054c-246.734474 0-446.75195 200.023616-446.75195 446.75809 0 246.732427 200.017476 446.75195 446.75195 446.75195 246.733451 0 446.757067-200.019523 446.757067-446.75195C956.746782 139.051195 756.723166-60.972421000000054 509.989715-60.972421000000054L509.989715-60.972421000000054zM509.989715 812.433746c-235.633648 0-426.650123-191.014428-426.650123-426.648077 0-235.639788 191.016475-426.654216 426.650123-426.654216 235.638765 0 426.654216 191.014428 426.654216 426.654216C936.643931 621.419318 745.62848 812.433746 509.989715 812.433746L509.989715 812.433746zM527.863804 153.46957999999995l-35.741016 0L492.122789 367.909533 277.678742 367.909533 277.678742 403.653619l214.443024 0L492.121765 618.0956189999999l35.741016 0L527.862781 403.653619l214.442 0 0-35.744086L527.863804 367.909533 527.863804 153.46957999999995 527.863804 153.46957999999995zM527.863804 153.46957999999995" fill="currentColor" transform="scale(1,-1) translate(0,-768)"/>
</svg>
