<svg xmlns="http://www.w3.org/2000/svg"
     viewBox="0 -128 1024 1024"
     width="24" height="24">
  <path d="M675.04 412.736l-127.04 0 0 127.264c0 20.064-16.288 36.32-36.32 36.32-20.064 0-36.32-16.192-36.32-36.32l0-127.232-127.072 0c-20.064 0-36.352-16.32-36.352-36.352 0-20.064 16.224-36.352 36.352-36.352l127.072 0 0-127.232c0-20 16.256-36.384 36.32-36.384 20.032 0 36.32 16.256 36.32 36.384l0 127.136 127.04 0c19.968 0 36.352 16.256 36.352 36.384C711.36 396.448 695.136 412.736 675.04 412.736L675.04 412.736zM511.328 830.56c-250.24 0-453.952-203.616-453.952-453.952 0-250.336 203.712-453.952 453.952-453.952 250.336 0 453.984 203.584 453.984 453.952C965.312 626.944 761.696 830.56 511.328 830.56L511.328 830.56zM511.328-20.576000000000022c-219.04 0-397.184 178.176-397.184 397.152 0 219.104 178.144 397.216 397.184 397.216s397.216-178.112 397.216-397.216C908.576 157.63199999999995 730.368-20.576000000000022 511.328-20.576000000000022L511.328-20.576000000000022zM511.328-20.576000000000022" fill="currentColor" transform="scale(1,-1) translate(0,-768)"/>
</svg>
