<svg xmlns="http://www.w3.org/2000/svg"
     viewBox="0 -128 1024 1024"
     width="24" height="24">
  <path d="M566.935 78.97233332999997c0-30.366-24.612-54.972-54.935-54.972v0c-30.384 0-54.996 24.612-54.996 54.972v610.057c0 30.361 24.612 54.972 54.996 54.972v0c30.33 0 54.935-24.612 54.935-54.972v-610.057zM817.004 438.96633333c30.384 0 54.996-24.606 54.996-54.966v0c0-30.354-24.612-54.966-54.996-54.966h-610.062c-30.33 0-54.942 24.612-54.942 54.966v0c0 30.359 24.612 54.966 54.942 54.966h610.062zM817.004 438.96633333z" fill="currentColor" transform="scale(1,-1) translate(0,-768)"/>
</svg>
