<svg xmlns="http://www.w3.org/2000/svg"
     viewBox="0 -128 1024 1024"
     width="24" height="24">
  <path d="M992 448L32 448C14.32 448 0 462.336 0 480 0 497.664 14.32 512 32 512L992 512C1009.68 512 1024 497.664 1024 480 1024 462.336 1009.68 448 992 448ZM800 704C817.664 704 832 689.664 832 672 832 654.336 817.664 640 800 640L224 640C206.32 640 192 654.336 192 672 192 689.664 206.32 704 224 704L800 704ZM992 832L32 832C14.32 832 0 846.336 0 864 0 881.664 14.32 896 32 896L992 896C1009.68 896 1024 881.664 1024 864 1024 846.336 1009.68 832 992 832ZM224 256C206.32 256 192 270.336 192 288 192 305.664 206.32 320 224 320L800 320C817.664 320 832 305.664 832 288 832 270.336 817.664 256 800 256L224 256ZM32 128L992 128C1009.68 128 1024 113.66399999999999 1024 96 1024 78.33600000000001 1009.68 64 992 64L32 64C14.32 64 0 78.33600000000001 0 96 0 113.66399999999999 14.32 128 32 128ZM224-64L800-64C817.664-64 832-78.33600000000001 832-96 832-113.66399999999999 817.664-128 800-128L224-128C206.32-128 192-113.66399999999999 192-96 192-78.33600000000001 206.32-64 224-64Z" fill="currentColor" transform="scale(1,-1) translate(0,-768)"/>
</svg>
