<svg xmlns="http://www.w3.org/2000/svg"
     viewBox="0 -128 1024 1024"
     width="24" height="24">
  <path d="M992 448L32 448C14.336 448 0 462.336 0 480 0 497.664 14.336 512 32 512L992 512C1009.664 512 1024 497.664 1024 480 1024 462.336 1009.664 448 992 448ZM32 704L736 704C753.68 704 768 689.664 768 672 768 654.336 753.68 640 736 640L32 640C14.336 640 0 654.336 0 672 0 689.664 14.336 704 32 704ZM992 832L32 832C14.336 832 0 846.336 0 864 0 881.664 14.336 896 32 896L992 896C1009.664 896 1024 881.664 1024 864 1024 846.336 1009.664 832 992 832ZM32 320L736 320C753.68 320 768 305.664 768 288 768 270.336 753.68 256 736 256L32 256C14.336 256 0 270.336 0 288 0 305.664 14.336 320 32 320ZM32 128L992 128C1009.664 128 1024 113.66399999999999 1024 96 1024 78.33600000000001 1009.664 64 992 64L32 64C14.336 64 0 78.33600000000001 0 96 0 113.66399999999999 14.336 128 32 128ZM32-64L736-64C753.68-64 768-78.33600000000001 768-96 768-113.66399999999999 753.68-128 736-128L32-128C14.336-128 0-113.66399999999999 0-96 0-78.33600000000001 14.336-64 32-64Z" fill="currentColor" transform="scale(1,-1) translate(0,-768)"/>
</svg>
