<svg xmlns="http://www.w3.org/2000/svg"
     viewBox="0 -128 1024 1024"
     width="24" height="24">
  <path d="M992 64L32 64C14.32 64 0 78.33600000000001 0 96 0 113.66399999999999 14.32 128 32 128L992 128C1009.68 128 1024 113.66399999999999 1024 96 1024 78.33600000000001 1009.68 64 992 64ZM992 256L288 256C270.32 256 256 270.336 256 288 256 305.664 270.32 320 288 320L992 320C1009.68 320 1024 305.664 1024 288 1024 270.336 1009.68 256 992 256ZM992 448L32 448C14.32 448 0 462.336 0 480 0 497.664 14.32 512 32 512L992 512C1009.68 512 1024 497.664 1024 480 1024 462.336 1009.68 448 992 448ZM992 640L288 640C270.32 640 256 654.336 256 672 256 689.664 270.32 704 288 704L992 704C1009.68 704 1024 689.664 1024 672 1024 654.336 1009.68 640 992 640ZM992 832L32 832C14.32 832 0 846.336 0 864 0 881.664 14.32 896 32 896L992 896C1009.68 896 1024 881.664 1024 864 1024 846.336 1009.68 832 992 832ZM288-64L992-64C1009.68-64 1024-78.33600000000001 1024-96 1024-113.66399999999999 1009.68-128 992-128L288-128C270.32-128 256-113.66399999999999 256-96 256-78.33600000000001 270.32-64 288-64Z" fill="currentColor" transform="scale(1,-1) translate(0,-768)"/>
</svg>
