<svg xmlns="http://www.w3.org/2000/svg"
     viewBox="0 -128 1024 1024"
     width="24" height="24">
  <path d="M391.405714 662.66209566a22.308571 22.308571 0 0 1 0 44.544c-11.995429 0-21.723429-10.276571-21.723428-22.272s9.728-22.272 21.723428-22.272z m241.152 0c11.995429 0 21.723429 10.276571 21.723429 22.272s-9.728 22.272-21.723429 22.272a22.308571 22.308571 0 0 1 0-44.544zM168.539429 557.51923766a58.514286 58.514286 0 0 0 58.294857-58.294857v-245.723428c0-32.585143-25.709714-58.843429-58.294857-58.843429S109.696 220.95238066000002 109.696 253.50095266000005v245.723428c0 32 26.294857 58.294857 58.843429 58.294857z m605.732571-10.861714v-380.562286c0-34.852571-28.013714-62.866286-62.281143-62.866285h-42.861714v-129.718857c0-32.585143-26.294857-58.843429-58.843429-58.843429s-58.843429 26.294857-58.843428 58.843429v129.718857H472.594286v-129.718857c0-32.585143-26.294857-58.843429-58.843429-58.843429a58.660571 58.660571 0 0 0-58.294857 58.843429l-0.585143 129.718857H312.594286a62.683429 62.683429 0 0 0-62.866286 62.866285V546.6575236599999h524.580571z m-132.571429 231.424c80.018286-41.142857 134.290286-119.990857 134.290286-210.870857H247.424c0 90.843429 54.272 169.728 134.838857 210.870857L341.705143 852.94323766a8.338286 8.338286 0 0 0 2.852571 11.446858c3.986286 1.718857 9.142857 0.585143 11.446857-3.437715L397.147429 785.50552366c34.852571 15.433143 73.728 23.990857 114.870857 23.990857s80.018286-8.557714 114.870857-23.990857l41.142857 75.446857c2.304 3.986286 7.424 5.156571 11.446857 3.437715a8.338286 8.338286 0 0 0 2.852572-11.446858zM914.267429 499.22438066v-245.723428c0-32.585143-26.294857-58.843429-58.843429-58.843429a58.660571 58.660571 0 0 0-58.294857 58.843429v245.723428a58.148571 58.148571 0 0 0 58.294857 58.294857c32.585143 0 58.843429-25.709714 58.843429-58.294857z" fill="currentColor" transform="scale(1,-1) translate(0,-768)"/>
</svg>
