<svg xmlns="http://www.w3.org/2000/svg"
     viewBox="0 -128 1024 1024"
     width="24" height="24">
  <path d="M432.022 818.946h-376.324c-6.627 0-12.078-5.45-12.078-12.078v-376.324c0-6.627 5.45-12.078 12.078-12.078h376.324c6.627 0 12.078 5.45 12.078 12.078v376.473c0 6.627-5.45 11.93-12.078 11.93zM391.517 471.196h-295.169v295.169h295.021v-295.169zM976.847 635.717l-211.95 211.95c-8.837 8.837-23.124 8.837-31.963 0l-211.95-211.95c-8.837-8.837-8.837-23.124 0-31.963l211.95-212.098c8.837-8.837 23.124-8.837 31.963 0l211.95 211.95c8.837 8.987 8.837 23.271 0 32.109zM432.022 313.45000000000005h-376.324c-6.627 0-12.078-5.45-12.078-12.078v-376.324c0-6.627 5.45-12.078 12.078-12.078h376.324c6.627 0 12.078 5.45 12.078 12.078v376.473c0 6.627-5.45 11.93-12.078 11.93zM391.517-34.15499999999997h-295.169v295.021h295.021v-295.021zM932.511 313.45000000000005h-376.324c-6.627 0-12.078-5.45-12.078-12.078v-376.324c0-6.627 5.45-12.078 12.078-12.078h376.324c6.627 0 12.078 5.45 12.078 12.078v376.473c0 6.627-5.45 11.93-12.078 11.93zM891.859-34.15499999999997h-295.021v295.021h295.021v-295.021z" fill="currentColor" transform="scale(1,-1) translate(0,-768)"/>
</svg>
