<svg xmlns="http://www.w3.org/2000/svg"
     viewBox="0 -128 1024 1024"
     width="24" height="24">
  <path d="M324.266667 435.2c-17.066667 17.066667-39.822222 17.066667-51.2 0-17.066667-17.066667-17.066667-39.822222 0-51.2l153.6-159.288889c5.688889-5.688889 17.066667-11.377778 28.444444-11.377778s17.066667 5.688889 28.444445 11.377778l295.822222 290.133333c17.066667 17.066667 17.066667 39.822222 0 51.2-17.066667 17.066667-39.822222 17.066667-51.2 0L455.111111 304.355556 324.266667 435.2zM927.288889 753.777778L523.377778 896h-22.755556L96.711111 753.777778c-17.066667-5.688889-28.444444-17.066667-28.444444-34.133334v-432.355555c11.377778-250.311111 409.6-409.6 426.666666-415.288889h22.755556c17.066667 5.688889 415.288889 159.288889 426.666667 415.288889V719.644444c11.377778 17.066667 0 28.444444-17.066667 34.133334z m-45.511111-460.8c-5.688889-182.044444-301.511111-312.888889-369.777778-341.333334-113.777778 45.511111-358.4 182.044444-369.777778 341.333334v398.222222L512 822.044444l369.777778-125.155555v-403.911111z" fill="currentColor" transform="scale(1,-1) translate(0,-768)"/>
</svg>
