<svg xmlns="http://www.w3.org/2000/svg"
     viewBox="0 -128 1024 1024"
     width="24" height="24">
  <path d="M884.3 648.6H704.2L679.5 698l-0.2 0.4c-1.9 3.6-3.6 6.9-5.1 9.9-12 23.4-21.5 41.9-54.1 41.9H416.7c-32.9 0-43.7-21.3-55.1-43.8-1.3-2.6-2.7-5.3-4.2-8.1l-24.8-49.7H152.4c-34 0-61.7-27.7-61.7-61.7v-488c0-34 27.7-61.7 61.7-61.7h731.9c34 0 61.7 27.7 61.7 61.7v488c0 34-27.7 61.7-61.7 61.7zM904 98.89999999999998c0-10.8-8.8-19.7-19.7-19.7H152.4c-10.8 0-19.7 8.8-19.7 19.7v488c0 10.8 8.8 19.7 19.7 19.7h206.1l36.2 72.5c1.5 2.9 2.9 5.7 4.3 8.3 10.6 20.8 11.1 20.8 17.7 20.8H620c4.6 0 5.8-0.6 5.8-0.6 2-1.2 7.2-11.2 10.9-18.5 1.6-3.1 3.3-6.5 5.3-10.1l36.2-72.4h206.1c10.8 0 19.7-8.8 19.7-19.7v-488zM525.5 565.5c-123.5 0-223.6-100.1-223.6-223.6S402 118.20000000000005 525.5 118.20000000000005s223.7 100.1 223.7 223.7c0 123.5-100.2 223.6-223.7 223.6z m0-402.5c-98.8 0-178.9 80.1-178.9 178.9 0 98.8 80.1 178.9 178.9 178.9 98.8 0 178.9-80.1 178.9-178.9 0-98.8-80.1-178.9-178.9-178.9z m246 402.5v-44.7H861v44.7h-89.5z" fill="currentColor" transform="scale(1,-1) translate(0,-768)"/>
</svg>
