<svg xmlns="http://www.w3.org/2000/svg"
     viewBox="0 -128 1024 1024"
     width="24" height="24">
  <path d="M512 480C436.515555 480 375.111111 419.712 375.111111 345.6 375.111111 271.48800000000006 436.515555 211.20000000000005 512 211.20000000000005 587.484446 211.20000000000005 648.888887 271.48800000000006 648.888887 345.6 648.888887 419.712 587.484446 480 512 480M512 172.79999999999995C414.808889 172.79999999999995 336 250.15679999999998 336 345.6 336 441.0432 414.808889 518.4 512 518.4 609.210667 518.4 688 441.0432 688 345.6 688 250.15679999999998 609.210667 172.79999999999995 512 172.79999999999995M903.111113 691.2L723.767113 691.2C713.383113 691.2 703.448887 695.2512 696.115554 702.4512L640.792887 756.7488C633.459554 763.9488 623.505779 768 613.141333 768L512 768 410.878222 768C400.494222 768 390.56 763.9488 383.226667 756.7488L327.904 702.4512C320.570667 695.2512 310.616889 691.2 300.252445 691.2L120.888889 691.2C77.866667 691.2 42.666667 656.64 42.666667 614.4L42.666667 76.79999999999995C42.666667 34.559999999999945 77.866667 0 120.888889 0L903.111113 0C946.133333 0 981.333333 34.559999999999945 981.333333 76.79999999999995L981.333333 614.4C981.333333 656.64 946.133333 691.2 903.111113 691.2" fill="currentColor" transform="scale(1,-1) translate(0,-768)"/>
</svg>
