<svg xmlns="http://www.w3.org/2000/svg"
     viewBox="0 -128 1024 1024"
     width="24" height="24">
  <path d="M1002.069333 144.38400000000001L1002.069333 611.6906670000001c0 24.213333-16.917333 49.578667-42.069333 49.578667l-64 0 1.152 6.4c0 31.338667-26.005333 57.6-58.538667 57.6L186.432 725.269333c-31.936 0-58.410667-31.957333-58.410667-64l-0.213333 0.96L67.178667 662.229333c-25.152 0-45.226667-20.288-45.226667-44.501333l0-467.328L21.354667 150.39999999999998c0-24.789333 20.629333-44.693333 45.312-44.693333L127.786667 105.70666700000004l0-5.184C127.786667 69.03466700000001 153.792 42.66666699999996 186.432 42.66666699999996l652.842667 0c31.658667 0 56.277333 10.901333 56.725333 42.602667l64 0c24.661333 0 42.666667 34.325333 42.666667 59.114667L1002.069333 144.38400000000001zM128 149.26933299999996L64 149.26933299999996l0 469.333333 64 0L128 149.26933299999996zM853.333333 106.602667c0-6.421333-14.848-21.333333-21.333333-21.333333l-640 0c-6.485333 0-21.333333 14.848-21.333333 21.333333l0 554.666667c0 6.378667 9.258667 18.56 15.744 18.56l5.589333 2.773333 640 0c6.442667 0 21.333333-14.954667 21.333333-21.333333L853.333333 106.602667zM960 127.93600000000004l-64 0 0 490.666667 60.842667 1.984c4.970667 0 3.157333 2.944 3.157333-1.984l0-469.333333C960 144.29866700000002 965.013333 127.93600000000004 960 127.93600000000004zM412.458667 399.829333c43.925333 0 79.637333 34.773333 79.637333 77.482667 0 42.752-35.712 77.482667-79.637333 77.482667-43.925333 0-79.637333-34.730667-79.637333-77.482667C332.8 434.602667 368.533333 399.829333 412.458667 399.829333zM412.458667 516.0533330000001c21.952 0 39.829333-17.365333 39.829333-38.741333 0-21.333333-17.877333-38.741333-39.829333-38.741333-21.952 0-39.829333 17.408-39.829333 38.741333C372.629333 498.709333 390.506667 516.0533330000001 412.458667 516.0533330000001zM785.92 457.386667c-95.914667-23.338667-137.728-87.765333-168.256-134.805333-24.213333-37.269333-39.082667-58.346667-65.109333-58.346667l-0.042667 0c-35.456 0-57.109333 14.272-80.042667 28.16-24.362667 14.741333-49.536 29.952-88.64 29.952-75.648 0-156.906667-93.269333-165.930667-103.893333L213.333333 167.38133300000004c0-10.709333 8.917333-18.112 19.925333-18.112l557.504 0c10.986667 0 19.904 7.402667 19.904 18.112L810.666667 438.570667c0 5.973333-2.837333 11.626667-7.658667 15.296C798.186667 457.536 791.872 458.858667 785.92 457.386667zM770.858667 188.52266699999996L253.162667 188.52266699999996c24.874667 27.733333 85.290667 95.082667 130.666667 95.082667 27.733333 0 46.229333-11.157333 67.605333-24.128 25.152-15.168 53.632-32.426667 99.712-33.941333l2.944-0.064c47.637333 0 71.722667 37.12 97.237333 76.416 26.645333 41.088 56.469333 79.104 119.530667 102.485333L770.858667 188.52266699999996z" fill="currentColor" transform="scale(1,-1) translate(0,-768)"/>
</svg>
