<svg xmlns="http://www.w3.org/2000/svg"
     viewBox="0 -128 1024 1024"
     width="24" height="24">
  <path d="M235.097303 196.866982C247.384597 160.417152 286.382106 132.37606800000003 324.772759 132.37606800000003L861.658537 132.37606800000003 880.429732 132.37606800000003 885.649214 150.54185399999994 1009.08775 580.154957C1021.388907 622.967661 993.187631 660.786325 949.051586 660.786325L424.585365 660.786325C410.791718 660.786325 399.609756 649.5207379999999 399.609756 635.623932 399.609756 621.727125 410.791718 610.461538 424.585365 610.461538L949.051586 610.461538C959.924 610.461538 964.161052 604.779539 961.106394 594.148171L837.667859 164.53506800000002 861.658537 182.70085500000005 324.772759 182.70085500000005C307.742153 182.70085500000005 287.789837 197.04752900000005 282.395194 213.05054900000005L73.600164 832.433664C69.16437 845.592294 54.980454 852.636656 41.919502 848.167687 28.858551 843.698719 21.86648 829.408727 26.302275 816.250097L235.097303 196.866982ZM399.609756-6.017094000000043C399.609756 49.57012899999995 354.881911 94.63247799999999 299.707317 94.63247799999999 244.532723 94.63247799999999 199.804878 49.57012899999995 199.804878-6.017094000000043 199.804878-61.604318000000035 244.532723-106.66666699999996 299.707317-106.66666699999996 354.881911-106.66666699999996 399.609756-61.604318000000035 399.609756-6.017094000000043ZM249.756098-6.017094000000043C249.756098 21.77651800000001 272.120021 44.30769299999997 299.707317 44.30769299999997 327.294613 44.30769299999997 349.658537 21.77651800000001 349.658537-6.017094000000043 349.658537-33.810704999999984 327.294613-56.34187899999995 299.707317-56.34187899999995 272.120021-56.34187899999995 249.756098-33.810704999999984 249.756098-6.017094000000043ZM924.097562-6.017094000000043C924.097562 49.57012899999995 879.369715 94.63247799999999 824.195121 94.63247799999999 769.020529 94.63247799999999 724.292683 49.57012899999995 724.292683-6.017094000000043 724.292683-61.604318000000035 769.020529-106.66666699999996 824.195121-106.66666699999996 879.369715-106.66666699999996 924.097562-61.604318000000035 924.097562-6.017094000000043ZM774.243902-6.017094000000043C774.243902 21.77651800000001 796.607825 44.30769299999997 824.195121 44.30769299999997 851.782419 44.30769299999997 874.146342 21.77651800000001 874.146342-6.017094000000043 874.146342-33.810704999999984 851.782419-56.34187899999995 824.195121-56.34187899999995 796.607825-56.34187899999995 774.243902-33.810704999999984 774.243902-6.017094000000043Z" fill="currentColor" transform="scale(1,-1) translate(0,-768)"/>
</svg>
