<svg xmlns="http://www.w3.org/2000/svg"
     viewBox="0 -128 1024 1024"
     width="24" height="24">
  <path d="M785.066667 896H238.933333a102.4 102.4 0 0 1-102.4-102.4v-819.2a102.4 102.4 0 0 1 102.4-102.4h546.133334a102.4 102.4 0 0 1 102.4 102.4V793.6a102.4 102.4 0 0 1-102.4 102.4zM238.933333 827.733333h546.133334a34.133333 34.133333 0 0 0 34.133333-34.133333v-648.533333H204.8V793.6a34.133333 34.133333 0 0 0 34.133333 34.133333z m546.133334-887.466666H238.933333a34.133333 34.133333 0 0 0-34.133333 34.133333v102.4h614.4v-102.4a34.133333 34.133333 0 0 0-34.133333-34.133333zM512 8.53333299999997m-34.133333 0a34.133333 34.133333 0 1 1 68.266666 0 34.133333 34.133333 0 1 1-68.266666 0ZM426.666667 725.333333h170.666666a17.066667 17.066667 0 0 1 0 34.133334h-170.666666a17.066667 17.066667 0 0 1 0-34.133334z" fill="currentColor" transform="scale(1,-1) translate(0,-768)"/>
</svg>
