<svg xmlns="http://www.w3.org/2000/svg"
     viewBox="0 -128 1024 1024"
     width="24" height="24">
  <path d="M731.514252 896L292.485748 896C195.323702 896 116.154627 816.830925 116.154627 719.6688790000001l0-671.337759c0-97.162046 79.169075-176.331121 176.331121-176.331121l438.628661 0c97.162046 0 176.331121 79.169075 176.331121 176.331121L907.445529 719.6688790000001C907.845373 816.830925 828.676298 896 731.514252 896zM292.485748 853.216712l438.628661 0c70.772355 0 128.349863-55.178446 133.147989-124.751269L159.737602 728.465443C164.135884 798.038266 222.113237 853.216712 292.485748 853.216712zM865.062085 48.73096399999997c0-73.571261-59.976572-133.547833-133.547833-133.547833L292.485748-84.816868c-73.571261 0-133.547833 59.976572-133.547833 133.547833l0 45.582194 705.724326 0L864.662241 48.73096399999997zM865.062085 137.096447L158.937915 137.096447 158.937915 685.682155l705.724326 0L864.662241 137.096447zM512-54.82858299999998c13.59469 0 26.789535 5.597813 36.385787 15.194065 9.596251 9.596251 15.194065 22.791097 15.194065 36.385787 0 13.59469-5.597813 26.789535-15.194065 36.385787-9.596251 9.596251-22.791097 15.194065-36.385787 15.194065-13.59469 0-26.789535-5.597813-36.385787-15.194065-9.596251-9.596251-15.194065-22.791097-15.194065-36.385787 0-13.59469 5.597813-26.789535 15.194065-36.385787C485.210465-49.23076900000001 498.40531-54.82858299999998 512-54.82858299999998z" fill="currentColor" transform="scale(1,-1) translate(0,-768)"/>
</svg>
