<svg xmlns="http://www.w3.org/2000/svg"
     viewBox="0 -128 1024 1024"
     width="24" height="24">
  <path d="M963.930903 179.21903299999997l0 34.824133-37.354769-2.675946L926.576133 694.8538169999999 691.413206 694.8538169999999l0 70.462818L330.260819 765.316635l0-70.462818L95.690386 694.8538169999999l0-480.809627-35.621289 0 0-34.824133 432.583253 0 0-141.228535-90.313935 0 0-35.307134 216.753649 0 0 35.307134-90.313935 0L528.778128 179.21903299999997 963.930903 179.21903299999997zM366.212636 730.008478L655.216819 730.008478l0-35.307134L366.212636 694.7013440000001 366.212636 730.008478zM364.817869 332.73133600000006L222.224244 406.252817l14.295588 27.736715 123.238812-63.523779 173.928285 159.755494 127.5807-92.634794 93.13826 122.414027 12.420891-9.449209 12.420891-9.449209L667.639756 394.365068l-131.636063 95.621824L364.817869 332.73133600000006z" fill="currentColor" transform="scale(1,-1) translate(0,-768)"/>
</svg>
