<svg xmlns="http://www.w3.org/2000/svg"
     viewBox="0 -128 1024 1024"
     width="24" height="24">
  <path d="M953.440991 315.668729L784.061302 315.668729 681.06451 437.392024c-0.312108 0.373507-0.635473 0.737804-0.969071 1.094938-0.013303 0.014326-0.026606 0.027629-0.039909 0.041956-0.276293 0.293689-0.559748 0.582261-0.851391 0.86367-0.053212 0.051165-0.107447 0.099261-0.160659 0.150426-0.249687 0.237407-0.50142 0.470721-0.76134 0.697895-0.089028 0.078795-0.181125 0.153496-0.272199 0.230244-0.225127 0.191358-0.451278 0.381693-0.683569 0.565888-0.124843 0.099261-0.251733 0.192382-0.3776 0.288572-0.200568 0.153496-0.402159 0.306992-0.607844 0.454348-0.159636 0.11461-0.322341 0.224104-0.485047 0.334621-0.177032 0.12075-0.354064 0.242524-0.535189 0.35918-0.195451 0.12689-0.394996 0.246617-0.593518 0.367367-0.152473 0.092098-0.302899 0.186242-0.457418 0.275269-0.237407 0.137123-0.477884 0.268106-0.718361 0.397043-0.121773 0.065492-0.2415 0.132006-0.364297 0.195451-0.283456 0.146333-0.571005 0.285502-0.859577 0.420579-0.085958 0.040932-0.170892 0.082888-0.257873 0.122797-0.337691 0.154519-0.679475 0.298805-1.022283 0.437975-0.044002 0.017396-0.086981 0.036839-0.130983 0.055259-1.604544 0.638543-3.2623 1.113357-4.948709 1.416256-0.343831 0.062422-0.687662 0.112564-1.031493 0.160659-0.055259 0.008186-0.110517 0.01842-0.165776 0.025583-1.633197 0.216941-3.25923 0.26913-4.861728 0.173962-0.013303-0.001023-0.026606-0.001023-0.040932-0.002047-0.363274-0.022513-0.724501-0.054235-1.085728-0.091074-0.060375-0.00614-0.119727-0.011256-0.180102-0.017396-0.310062-0.034792-0.618077-0.077771-0.926092-0.122797-0.116657-0.017396-0.232291-0.032746-0.348947-0.051165-0.24764-0.040932-0.494257-0.086981-0.740874-0.135076-0.178055-0.033769-0.355087-0.067538-0.532119-0.105401-0.183172-0.039909-0.36532-0.083911-0.547469-0.127913-0.237407-0.056282-0.474814-0.113587-0.710175-0.176009-0.12075-0.032746-0.240477-0.068562-0.360204-0.102331-0.292666-0.082888-0.584308-0.168846-0.874927-0.26299-0.063445-0.020466-0.125867-0.042979-0.188288-0.063445-0.338714-0.112564-0.675382-0.230244-1.010003-0.357134-0.019443-0.007163-0.038886-0.01535-0.058328-0.022513-1.493004-0.571005-2.948145-1.284249-4.340865-2.149966-0.067538-0.041956-0.13303-0.088004-0.200568-0.12996-0.273223-0.172939-0.545422-0.346901-0.813528-0.531096-1.416256-0.971118-2.734274-2.089591-3.936659-3.333932-0.025583-0.026606-0.049119-0.053212-0.074701-0.079818-0.26299-0.275269-0.521886-0.555655-0.773619-0.843204-0.058328-0.066515-0.112564-0.134053-0.169869-0.200568-0.211824-0.246617-0.420579-0.496304-0.62217-0.751107-0.083911-0.106424-0.164752-0.214894-0.246617-0.322341-0.167822-0.218988-0.334621-0.437975-0.49528-0.663102-0.102331-0.14224-0.199545-0.287549-0.298805-0.431835-0.13303-0.194428-0.26606-0.387833-0.393973-0.586354-0.115634-0.179079-0.225127-0.360204-0.335644-0.541329-0.103354-0.168846-0.207731-0.336668-0.306992-0.508583-0.12689-0.220011-0.24764-0.443092-0.36839-0.666172-0.074701-0.138146-0.151449-0.275269-0.223081-0.416486-0.137123-0.265036-0.265036-0.533143-0.39295-0.802272-0.050142-0.105401-0.101307-0.209778-0.150426-0.316202-0.144286-0.317225-0.279363-0.63752-0.410346-0.958838-0.026606-0.064468-0.055259-0.127913-0.080841-0.193405-0.150426-0.378623-0.291642-0.760317-0.423649-1.14508-0.005117-0.016373-0.011256-0.031722-0.017396-0.048095-0.157589-0.463558-0.303922-0.930185-0.434905-1.400906l-97.897657-342.642824L435.093423 811.832042c-0.071631 0.569982-0.165776 1.13587-0.275269 1.696642-0.008186 0.040932-0.017396 0.081864-0.025583 0.12382-0.071631 0.356111-0.148379 0.709151-0.234337 1.061169-0.031722 0.128937-0.065492 0.255827-0.099261 0.38374-0.066515 0.254803-0.135076 0.508583-0.208754 0.760317-0.060375 0.206708-0.124843 0.411369-0.190335 0.615007-0.053212 0.166799-0.107447 0.332575-0.164752 0.49835-0.092098 0.26913-0.190335 0.535189-0.290619 0.800225-0.037862 0.098237-0.074701 0.196475-0.113587 0.293689-0.12382 0.313132-0.25378 0.623193-0.38988 0.930185-0.022513 0.050142-0.044002 0.100284-0.066515 0.150426-0.152473 0.338714-0.311085 0.672312-0.477884 1.00284-0.01228 0.024559-0.024559 0.049119-0.037862 0.074701-0.173962 0.343831-0.356111 0.682545-0.545422 1.017166-0.011256 0.019443-0.022513 0.039909-0.033769 0.059352-0.188288 0.330528-0.382717 0.654916-0.584308 0.975211-0.021489 0.034792-0.044002 0.068562-0.065492 0.103354-0.190335 0.298805-0.385786 0.592494-0.587378 0.88209-0.045025 0.065492-0.091074 0.12996-0.137123 0.194428-0.180102 0.252757-0.363274 0.502443-0.551562 0.74906-0.079818 0.105401-0.162706 0.208754-0.24457 0.312108-0.157589 0.199545-0.317225 0.396019-0.480954 0.590448-0.124843 0.149403-0.252757 0.295735-0.381693 0.442068-0.125867 0.14224-0.251733 0.284479-0.38067 0.424672-0.174985 0.191358-0.355087 0.378623-0.536212 0.563842-0.088004 0.090051-0.176009 0.180102-0.26606 0.26913-0.224104 0.222057-0.452301 0.440022-0.684592 0.653893-0.054235 0.050142-0.10847 0.100284-0.163729 0.150426-0.265036 0.240477-0.535189 0.474814-0.810459 0.704035-0.028653 0.023536-0.056282 0.047072-0.084934 0.070608-0.294712 0.243547-0.595564 0.479931-0.902556 0.711198-0.01535 0.011256-0.029676 0.022513-0.045025 0.033769-0.311085 0.232291-0.627287 0.458441-0.949628 0.677429-0.019443 0.013303-0.037862 0.025583-0.057305 0.038886-0.309038 0.208754-0.623193 0.411369-0.942465 0.606821-0.045025 0.027629-0.090051 0.054235-0.134053 0.081864-0.288572 0.174985-0.581238 0.343831-0.877997 0.50756-0.090051 0.050142-0.181125 0.098237-0.272199 0.147356-0.25071 0.134053-0.502443 0.265036-0.759293 0.391926-0.156566 0.077771-0.314155 0.151449-0.472767 0.226151-0.194428 0.091074-0.38988 0.182149-0.587378 0.268106-0.239454 0.105401-0.481977 0.204661-0.724501 0.302899-0.12382 0.049119-0.246617 0.100284-0.37146 0.148379-0.334621 0.128937-0.673335 0.249687-1.014096 0.36532-0.042979 0.014326-0.085958 0.029676-0.128937 0.044002-1.6158 0.536212-3.296069 0.915859-5.02034 1.119497-0.01535 0.002047-0.029676 0.004093-0.044002 0.00614-0.309038 0.035816-0.620124 0.062422-0.931209 0.086981-0.132006 0.010233-0.265036 0.025583-0.397043 0.033769-0.174985 0.011256-0.349971 0.01535-0.525979 0.022513-0.270153 0.01228-0.539282 0.024559-0.808412 0.027629-0.054235 0.001023-0.10847-0.001023-0.162706-0.001023-1.696642 0.010233-3.371794-0.149403-5.006014-0.466628-0.065492-0.01228-0.12996-0.027629-0.195451-0.039909-0.331551-0.067538-0.662079-0.13917-0.989537-0.218988-0.148379-0.035816-0.295735-0.075725-0.443092-0.11461-0.234337-0.061398-0.468674-0.124843-0.700965-0.192382-0.224104-0.065492-0.445138-0.135076-0.666172-0.206708-0.149403-0.048095-0.297782-0.096191-0.446162-0.147356-0.286526-0.098237-0.568958-0.201591-0.850367-0.309038-0.079818-0.030699-0.160659-0.061398-0.240477-0.093121-0.330528-0.12996-0.655939-0.267083-0.979304-0.410346-0.033769-0.01535-0.067538-0.029676-0.101307-0.045025-0.355087-0.159636-0.705058-0.325411-1.050935-0.500397-0.008186-0.004093-0.016373-0.008186-0.023536-0.01228-0.360204-0.182149-0.714268-0.372483-1.064238-0.569982-0.004093-0.002047-0.008186-0.005117-0.013303-0.007163-0.344854-0.196475-0.684592-0.399089-1.019213-0.610914-0.020466-0.013303-0.040932-0.025583-0.060375-0.038886-0.313132-0.199545-0.621147-0.404206-0.925069-0.61603-0.050142-0.034792-0.099261-0.070608-0.149403-0.105401-0.268106-0.190335-0.532119-0.38374-0.791016-0.583285-0.091074-0.069585-0.181125-0.141216-0.271176-0.212848-0.212848-0.167822-0.422625-0.337691-0.629333-0.512676-0.137123-0.11461-0.271176-0.232291-0.406253-0.349971-0.154519-0.1361-0.308015-0.272199-0.459464-0.412392-0.179079-0.164752-0.354064-0.332575-0.528026-0.502443-0.102331-0.100284-0.204661-0.199545-0.304945-0.301875-0.211824-0.212848-0.418532-0.430812-0.623193-0.651846-0.059352-0.064468-0.119727-0.128937-0.179079-0.194428-0.231267-0.254803-0.456395-0.515746-0.678452-0.780783-0.031722-0.037862-0.063445-0.075725-0.095167-0.11461-0.23536-0.285502-0.465604-0.577145-0.688685-0.874927-0.01842-0.024559-0.036839-0.048095-0.055259-0.072655-0.226151-0.301875-0.445138-0.60989-0.657986-0.923022-0.019443-0.028653-0.038886-0.057305-0.058328-0.084934-0.202615-0.300852-0.400113-0.606821-0.590448-0.916882-0.032746-0.053212-0.064468-0.105401-0.096191-0.158612-0.169869-0.282433-0.335644-0.567935-0.49528-0.857531-0.053212-0.097214-0.105401-0.194428-0.158612-0.292666-0.130983-0.24457-0.258896-0.490164-0.381693-0.73985-0.080841-0.162706-0.157589-0.326435-0.234337-0.491187-0.088004-0.189312-0.177032-0.378623-0.260943-0.571005-0.107447-0.245593-0.209778-0.493234-0.310062-0.741897-0.047072-0.11768-0.095167-0.234337-0.141216-0.354064-0.130983-0.340761-0.25378-0.684592-0.370437-1.030469-0.013303-0.037862-0.026606-0.075725-0.038886-0.113587-0.180102-0.543376-0.345877-1.092891-0.48914-1.650593L244.22942 305.59939599999996 67.355037 305.59939599999996c-14.128789 0-25.582655-11.453866-25.582655-25.582655s11.453866-25.582655 25.582655-25.582655l191.314257 0c0.867764 0 1.725294 0.044002 2.570545 0.128937 0.828878-0.080841 1.656733-0.1361 2.478448-0.1361 11.218506 0 21.512966 7.439436 24.644283 18.779715l113.358791 410.43686 103.412254-723.884758c0.00921-0.072655 0.021489-0.145309 0.030699-0.217964l0.046049-0.320295c0.002047-0.011256 0.005117-0.021489 0.00614-0.032746 0.109494-0.7552 0.25071-1.502213 0.425695-2.238994 0.01535-0.064468 0.031722-0.12689 0.047072-0.191358 0.166799-0.679475 0.358157-1.350764 0.579191-2.01182 0.041956-0.124843 0.088004-0.24764 0.130983-0.37146 0.210801-0.600681 0.437975-1.194198 0.692778-1.77646 0.068562-0.156566 0.144286-0.309038 0.215918-0.464581 0.223081-0.484024 0.460488-0.961908 0.713244-1.431605 0.106424-0.196475 0.213871-0.390903 0.325411-0.584308 0.265036-0.462534 0.545422-0.914836 0.838088-1.359974 0.088004-0.13303 0.170892-0.268106 0.260943-0.399089 0.354064-0.51677 0.732687-1.016143 1.12359-1.506307 0.078795-0.099261 0.156566-0.198521 0.237407-0.296759 0.420579-0.511653 0.864694-1.004887 1.325182-1.482771 0.051165-0.052189 0.101307-0.105401 0.152473-0.157589 0.494257-0.50449 1.010003-0.989537 1.548262-1.454118 0.00921-0.007163 0.017396-0.014326 0.026606-0.022513 1.636267-1.408069 3.466961-2.620687 5.466502-3.592828 0.075725-0.036839 0.151449-0.074701 0.228197-0.11154 0.576121-0.273223 1.165546-0.525979 1.768273-0.75827 0.158612-0.061398 0.319272-0.118704 0.478907-0.177032 0.558725-0.202615 1.124614-0.393973 1.704828-0.559748 0.005117-0.001023 0.010233-0.002047 0.01535-0.004093 0.278339-0.079818 0.562818-0.13917 0.844228-0.209778 0.394996-0.098237 0.789992-0.194428 1.184989-0.274246 0.283456-0.056282 0.568958-0.103354 0.854461-0.149403 0.445138-0.073678 0.889253-0.134053 1.333368-0.183172 0.229221-0.024559 0.456395-0.052189 0.686638-0.071631 0.710175-0.059352 1.418302-0.099261 2.122337-0.099261 0.337691 0 0.671289 0.027629 1.007957 0.040932 0.276293 0.011256 0.550539 0.013303 0.828878 0.033769 0.401136 0.029676 0.799202 0.079818 1.196245 0.127913 0.191358 0.022513 0.38067 0.033769 0.572028 0.061398 0.069585 0.010233 0.1361 0.024559 0.205685 0.034792 0.232291 0.034792 0.462534 0.075725 0.692778 0.116657 0.463558 0.082888 0.921999 0.176009 1.3743 0.283456 0.109494 0.025583 0.218988 0.047072 0.327458 0.074701 0.582261 0.145309 1.152243 0.316202 1.716084 0.499373 0.098237 0.031722 0.196475 0.063445 0.293689 0.097214 1.90335 0.644683 3.694135 1.50119 5.351891 2.540869 0.014326 0.00921 0.028653 0.01842 0.042979 0.027629 1.089821 0.686638 2.121314 1.452071 3.087315 2.287089 0.083911 0.071631 0.167822 0.143263 0.25071 0.215918 0.424672 0.3776 0.837064 0.76748 1.235131 1.170662 0.12382 0.124843 0.243547 0.254803 0.36532 0.382717 0.317225 0.334621 0.626263 0.677429 0.925069 1.028423 0.155543 0.183172 0.308015 0.36839 0.458441 0.556679 0.26606 0.331551 0.523933 0.670266 0.773619 1.01512 0.130983 0.180102 0.261966 0.35918 0.387833 0.543376 0.294712 0.429789 0.575098 0.86981 0.843204 1.316995 0.099261 0.165776 0.195451 0.334621 0.290619 0.503467 0.283456 0.499373 0.555655 1.004887 0.806365 1.52268 0.031722 0.065492 0.060375 0.13303 0.091074 0.199545 0.276293 0.584308 0.530073 1.178849 0.762363 1.784646 0.00614 0.017396 0.014326 0.034792 0.020466 0.051165 0.251733 0.661056 0.472767 1.336438 0.669242 2.020006 0.002047 0.008186 0.00614 0.016373 0.008186 0.024559l0.061398 0.215918c0.029676 0.106424 0.062422 0.210801 0.090051 0.317225l117.579929 411.527704 79.800487-94.308923c0.070608-0.083911 0.146333-0.161682 0.217964-0.243547 0.190335-0.220011 0.38374-0.436952 0.581238-0.649799 0.134053-0.144286 0.26913-0.285502 0.405229-0.425695 0.164752-0.168846 0.331551-0.335644 0.50142-0.500397 0.164752-0.159636 0.329505-0.319272 0.496304-0.473791 0.138146-0.12689 0.279363-0.25071 0.419556-0.37453 0.198521-0.174985 0.397043-0.350994 0.599657-0.518816 0.081864-0.067538 0.166799-0.132006 0.249687-0.198521 0.817622-0.661056 1.667989-1.264806 2.545986-1.811252 0.098237-0.061398 0.195451-0.125867 0.294712-0.185218 0.228197-0.138146 0.459464-0.267083 0.691755-0.398066 0.157589-0.089028 0.315178-0.178055 0.474814-0.264013 0.200568-0.107447 0.403183-0.208754 0.606821-0.311085 0.202615-0.101307 0.406253-0.201591 0.611937-0.297782 0.173962-0.080841 0.348947-0.159636 0.523933-0.237407 0.245593-0.10847 0.494257-0.212848 0.743944-0.313132 0.144286-0.058328 0.289596-0.115634 0.434905-0.171915 0.291642-0.11154 0.586354-0.216941 0.883113-0.317225 0.11154-0.037862 0.223081-0.076748 0.334621-0.113587 0.337691-0.109494 0.677429-0.210801 1.02126-0.305969 0.078795-0.021489 0.157589-0.046049 0.236384-0.066515 0.376577-0.101307 0.757247-0.193405 1.140986-0.277316 0.050142-0.011256 0.100284-0.023536 0.150426-0.034792 0.405229-0.085958 0.813528-0.162706 1.225921-0.229221 0.031722-0.005117 0.063445-0.01228 0.096191-0.017396 0.412392-0.065492 0.828878-0.12075 1.24741-0.165776 0.032746-0.004093 0.064468-0.00921 0.097214-0.01228 0.382717-0.039909 0.768503-0.068562 1.155313-0.092098 0.068562-0.004093 0.1361-0.01228 0.204661-0.01535 0.25992-0.013303 0.521886-0.01535 0.782829-0.020466 0.188288-0.004093 0.376577-0.01535 0.564865-0.01535 0.008186 0 0.01535 0.001023 0.023536 0.001023l181.208085 0c14.129812 0 25.582655 11.453866 25.582655 25.582655S967.56978 315.668729 953.440991 315.668729z" fill="currentColor" transform="scale(1,-1) translate(0,-768)"/>
</svg>
