<svg xmlns="http://www.w3.org/2000/svg"
     viewBox="0 -128 1024 1024"
     width="24" height="24">
  <path d="M132.682393 414.567179c0 208.287837 166.471452 377.143593 379.317095 377.143593s385.380184-168.855756 385.380184-377.143593c0-177.196725-122.197086-325.812507-290.49821-366.259708l-116.291586-51.04763 0 41.126676C290.570353 52.175568999999996 132.682393 215.31206599999996 132.682393 414.567179zM83.799056 414.567179c0-211.946157 160.764474-387.135154 369.469819-415.152255-3.2623-20.458961-10.036587-65.024969-7.286963-65.024969 2.384303 0 114.89068 47.294143 189.700503 78.865185 176.193885 51.91437 304.518528 211.946157 304.518528 401.312038 0 231.432976-191.70823 419.042865-428.200432 419.042865S83.799056 646.0001560000001 83.799056 414.567179zM340.71952 276.63573699999995c22.935362-41.481763 89.831958-75.102489 170.391738-75.102489 79.650061 0 148.489916 32.909527 172.168198 73.681116-12.701277 5.979178-19.068288 8.02886-28.131711 12.21009-19.894096-31.257911-75.425853-59.661821-142.729725-59.661821-66.969251 0-122.836653 28.40391-143.598512 61.083194L340.71952 276.63573699999995z" fill="currentColor" transform="scale(1,-1) translate(0,-768)"/>
</svg>
