<svg xmlns="http://www.w3.org/2000/svg"
     viewBox="0 -128 1024 1024"
     width="24" height="24">
  <path d="M513.133312 830.6731560000001c-247.538793 0-448.208115-200.669322-448.208115-448.207092 0-247.538793 200.670346-448.208115 448.208115-448.208115 247.538793 0 448.208115 200.670346 448.208115 448.208115C961.341427 630.004857 760.673128 830.6731560000001 513.133312 830.6731560000001zM513.132288-6.649187999999981c-214.901465 0-389.113205 174.212764-389.113205 389.114229 0 214.902488 174.21174 389.115252 389.113205 389.115252 214.903511 0 389.115252-174.212764 389.115252-389.115252C902.24754 167.563576 728.0358-6.649187999999981 513.132288-6.649187999999981zM513.133312 382.46504100000004m-344.602456 0a336.754 336.754 0 1 1 689.204911 0 336.754 336.754 0 1 1-689.204911 0Z" fill="currentColor" transform="scale(1,-1) translate(0,-768)"/>
</svg>
