<svg xmlns="http://www.w3.org/2000/svg"
     viewBox="0 -128 1024 1024"
     width="24" height="24">
  <path d="M512 822.022125c-217.47508 0-394.423141-176.949085-394.423141-394.423141 0-217.474057 176.948061-394.422118 394.423141-394.422118 217.473033 0 394.422118 176.948061 394.422118 394.422118C906.422118 645.07304 729.473033 822.022125 512 822.022125zM702.228529 270.92978200000005c8.030907-8.030907 8.030907-21.052478 0-29.083385s-21.052478-8.030907-29.083385 0L512 402.992563 350.853833 241.84741899999995c-8.030907-8.030907-21.052478-8.030907-29.083385 0s-8.030907 21.052478 0 29.083385l161.146167 161.146167L321.771471 593.222115c-8.030907 8.030907-8.030907 21.052478 0 29.083385s21.052478 8.030907 29.083385 0l161.146167-161.146167L673.145144 622.305501c8.030907 8.030907 21.052478 8.030907 29.083385 0s8.030907-21.052478 0-29.083385L541.082362 432.075949 702.228529 270.92978200000005z" fill="currentColor" transform="scale(1,-1) translate(0,-768)"/>
</svg>
