<svg xmlns="http://www.w3.org/2000/svg"
     viewBox="0 -128 1024 1024"
     width="24" height="24">
  <path d="M783.483 701.249L512 429.775 240.517 701.249c-10.082 10.083-26.429 10.083-36.51 0-10.083-10.082-10.083-26.429 0-36.509l271.481-271.475L204.008 121.78800000000001c-10.083-10.081-10.083-26.428 0-36.508 10.082-10.082 26.429-10.082 36.51 0L512 356.755l271.483-271.475c10.082-10.082 26.429-10.082 36.513 0 10.081 10.083 10.081 26.428 0 36.508L548.51 393.265l271.485 271.474c10.081 10.083 10.081 26.429 0 36.509C809.912 711.33 793.564 711.33 783.483 701.249z" fill="currentColor" transform="scale(1,-1) translate(0,-768)"/>
</svg>
