<svg xmlns="http://www.w3.org/2000/svg"
     viewBox="0 -128 1024 1024"
     width="24" height="24">
  <path d="M513.544163 893.525741c-282.101629 0-510.78094-228.679311-510.78094-510.76288 0-282.083569 228.679311-510.76288 510.78094-510.76288s510.76288 228.679311 510.76288 510.76288C1024.325103 664.8464309999999 795.645793 893.525741 513.544163 893.525741zM513.544163-83.46335899999997c-257.503523 0-466.22622 208.740757-466.22622 466.22622S256.0587 848.989082 513.544163 848.989082s466.22622-208.740757 466.22622-466.22622S771.047686-83.46335899999997 513.544163-83.46335899999997zM171.771357 359.77212099999997L414.357086 256.088033 414.357086 300.805295 221.978945 380.50532599999997 414.357086 459.464886 414.357086 504.182148 171.771357 401.76228ZM442.585309 193.38272800000004L478.814238 193.38272800000004 584.737801 572.1429949999999 548.743656 572.1429949999999ZM612.749301 504.182148L612.749301 459.464886 804.874598 380.50532599999997 612.749301 300.805295 612.749301 256.088033 855.33503 359.77212099999997 855.33503 401.76228Z" fill="currentColor" transform="scale(1,-1) translate(0,-768)"/>
</svg>
