<svg xmlns="http://www.w3.org/2000/svg"
     viewBox="0 -128 1024 1024"
     width="24" height="24">
  <path d="M917.376 652.544L500.8 891.2a34.304 34.304 0 0 1-34.176 0L50.112 652.48a33.92 33.92 0 0 1-17.088-29.376v-477.44c0-12.16 6.528-23.296 17.088-29.44l416.512-238.72a35.136 35.136 0 0 1 34.176 0l416.576 238.72a33.92 33.92 0 0 1 17.088 29.44v477.44a33.92 33.92 0 0 1-17.088 29.44z m-51.264-487.36l-382.4-219.136-382.336 219.136V603.52l382.336 219.136 382.4-219.136v-438.272zM198.784 535.488a33.792 33.792 0 0 1 12.544-46.4l237.824-136.32V83.20000000000005c0-18.816 15.232-33.92 34.176-33.92a33.92 33.92 0 0 1 34.176 33.92V352.384l238.656 136.832a33.856 33.856 0 0 1 12.544 46.4 34.368 34.368 0 0 1-46.72 12.416L483.712 411.52 245.504 548.0319999999999a34.432 34.432 0 0 1-46.72-12.544z" fill="currentColor" transform="scale(1,-1) translate(0,-768)"/>
</svg>
