<svg xmlns="http://www.w3.org/2000/svg"
     viewBox="0 -128 1024 1024"
     width="24" height="24">
  <path d="M30.552 104.72699999999998c4.654-16.29 23.272-23.272 37.236-18.618 16.291 4.655 23.273 23.273 18.618 37.236C16.588 314.182 84.08 521.31 237.68 640c11.636 9.31 23.273 16.29 37.236 25.6 25.6 16.29 53.528 30.255 83.782 39.564 58.182 20.945 118.691 30.254 176.873 27.927h25.6c6.982 0 11.636 0 18.618-2.327 30.255-4.655 58.182-11.637 88.436-23.273 235.055-86.11 356.073-346.764 269.964-581.818-4.654-16.291 2.327-32.582 18.618-37.237 16.291-4.654 32.582 2.328 37.237 18.619 41.89 116.363 39.563 239.709 0 349.09h2.327C921.897 656.2909999999999 738.043 784.2909999999999 537.897 793.6h-48.873c-200.145-9.31-384-137.31-458.472-337.455-39.564-109.381-41.891-232.727 0-351.418z m707.49 386.328a29.498 29.498 0 0 1-41.89 0L521.606 316.509c-4.654 2.327-9.309 2.327-13.963 2.327-32.582 0-58.182-25.6-58.182-58.181s25.6-58.182 58.182-58.182 58.181 25.6 58.181 58.182c0 4.654 0 9.309-2.327 16.29l174.546 174.546c11.636 11.636 11.636 30.254 0 39.564z m228.073-458.473H58.48c-16.29 0-30.255-13.964-30.255-30.255 0-16.29 13.964-30.254 30.255-30.254h907.636c16.291 0 30.255 13.963 30.255 30.254 0 16.291-13.964 30.255-30.255 30.255z" fill="currentColor" transform="scale(1,-1) translate(0,-768)"/>
</svg>
