<svg xmlns="http://www.w3.org/2000/svg"
     viewBox="0 -128 1024 1024"
     width="24" height="24">
  <path d="M933.185668 758.3591759999999l-167.054737 0 0 56.506968L732.333174 814.866145l0-56.506968L539.505447 758.3591759999999l0 56.506968-33.796734 0 0-56.506968-216.255299 0 0 56.506968-33.796734 0 0-56.506968L88.005356 758.3591759999999c-12.255115 0-22.224164-9.970072-22.224164-22.224164l0-706.60521c0-12.255115 9.970072-22.225187 22.224164-22.225187l845.179288 0c12.255115 0 22.225187 9.970072 22.225187 22.225187L955.409832 736.135012C955.409832 748.389104 945.43976 758.3591759999999 933.185668 758.3591759999999zM939.036933 29.528778999999986c0-3.226484-2.62478-5.852288-5.852288-5.852288l-845.179288 0c-3.226484 0-5.851265 2.62478-5.851265 5.852288L82.154092 736.135012c0 3.226484 2.62478 5.851265 5.851265 5.851265l167.650301 0 0-55.657624 33.796734 0 0 55.657624 216.255299 0 0-55.657624 33.796734 0 0 55.657624L732.333174 741.986277l0-55.657624 33.796734 0 0 55.657624 167.054737 0c3.226484 0 5.852288-2.62478 5.852288-5.851265L939.036933 29.528778999999986zM206.835765 608.260623l129.098263 0 0-94.008071-129.098263 0 0 94.008071ZM458.879152 608.260623l129.098263 0 0-94.008071-129.098263 0 0 94.008071ZM684.827207 608.260623l129.098263 0 0-94.008071-129.098263 0 0 94.008071ZM206.835765 433.345871l129.098263 0 0-94.008071-129.098263 0 0 94.008071ZM458.879152 433.345871l129.098263 0 0-94.008071-129.098263 0 0 94.008071ZM684.827207 433.345871l129.098263 0 0-94.008071-129.098263 0 0 94.008071ZM206.835765 257.877511l129.098263 0 0-94.008071-129.098263 0 0 94.008071ZM458.879152 257.877511l129.098263 0 0-94.008071-129.098263 0 0 94.008071ZM684.827207 257.877511l129.098263 0 0-94.008071-129.098263 0 0 94.008071Z" fill="currentColor" transform="scale(1,-1) translate(0,-768)"/>
</svg>
