<svg xmlns="http://www.w3.org/2000/svg"
     viewBox="0 -128 1024 1024"
     width="24" height="24">
  <path d="M738.923 24.288h-451.956c-27.2 0-49.327 21.603-49.327 48.157v418.017c0 26.548 22.129 48.147 49.327 48.147h451.956c27.2 0 49.327-21.598 49.327-48.147v-418.017c0-26.555-22.129-48.157-49.327-48.157zM286.966 494.547c-4.447 0-7.168-2.644-7.168-4.084v-418.017c0-1.443 2.722-4.093 7.168-4.093h451.956c4.448 0 7.168 2.651 7.168 4.093v418.017c0 1.44-2.722 4.084-7.168 4.084h-451.956zM832.199 496.302h-640.401c-27.201 0-49.327 20.131-49.327 44.876v61.045c0 24.74 22.128 44.867 49.327 44.867h640.401c27.2 0 49.327-20.127 49.327-44.867v-61.045c0-24.744-22.129-44.876-49.327-44.876zM184.631 541.327c0.387-0.733 2.722-2.866 7.168-2.866h640.401c4.445 0 6.782 2.132 7.168 2.867v60.741c-0.393 0.736-2.733 2.863-7.168 2.863h-640.401c-4.437 0-6.776-2.128-7.168-2.863v-60.742zM600.748 605.354h-174.546c-27.201 0-49.327 20.13-49.327 44.876v10.736c0 24.74 22.128 44.867 49.327 44.867h174.546c27.2 0 49.327-20.126 49.327-44.867v-10.736c0-24.745-22.128-44.876-49.327-44.876zM419.034 650.378c0.387-0.733 2.722-2.865 7.168-2.865h174.546c4.446 0 6.782 2.131 7.168 2.865v10.432c-0.393 0.736-2.734 2.862-7.168 2.862h-174.546c-4.437 0-6.776-2.126-7.168-2.862v-10.432zM404.099 430.833h-30.097c-7.297 0-13.213-5.916-13.213-13.213v-272.34c0-7.297 5.916-13.212 13.213-13.212h30.098c7.297 0 13.212 5.916 13.212 13.212v272.341c0 7.297-5.916 13.213-13.212 13.213zM659.583 430.833h-30.097c-7.298 0-13.213-5.916-13.213-13.213v-272.34c0-7.297 5.917-13.212 13.213-13.212h30.097c7.297 0 13.212 5.916 13.212 13.212v272.341c0 7.297-5.916 13.213-13.212 13.213zM531.841 430.833h-30.098c-7.297 0-13.213-5.916-13.213-13.213v-272.34c0-7.297 5.917-13.212 13.213-13.212h30.098c7.297 0 13.212 5.916 13.212 13.212v272.341c0 7.297-5.916 13.213-13.212 13.213z" fill="currentColor" transform="scale(1,-1) translate(0,-768)"/>
</svg>
