<svg xmlns="http://www.w3.org/2000/svg"
     viewBox="0 -128 1024 1024"
     width="24" height="24">
  <path d="M998.4 500.992C998.4 682.24 811.392 829.696 581.632 829.696c-121.216 0-235.904-41.472-315.264-114.048 37.504 8.192 76.416 13.056 115.456 14.464 59.264 30.592 128.256 46.72 199.808 46.72 198.144 0 359.296-123.776 359.296-275.968 0-31.872-7.04-63.232-20.992-93.056 7.552-28.16 11.264-57.344 11.008-86.528C975.104 374.784 998.4 436.736 998.4 500.992L998.4 500.992zM442.368 398.72c-30.72 0-55.808-23.04-55.808-51.328s25.088-51.328 55.808-51.328 55.808 23.04 55.808 51.328S473.088 398.72 442.368 398.72zM243.328 398.72c-30.72 0-55.808-23.04-55.808-51.328s25.088-51.328 55.808-51.328 55.808 23.04 55.808 51.328C299.264 375.67999999999995 274.176 398.72 243.328 398.72zM641.28 398.72c-30.72 0-55.808-23.04-55.808-51.328s25.088-51.328 55.808-51.328 55.808 23.04 55.808 51.328S672.128 398.72 641.28 398.72zM442.368 677.888C212.608 677.888 25.6 530.432 25.6 349.312c0-179.968 173.696-296.192 332.544-321.664l60.8-78.336c5.632-7.424 14.464-11.008 23.296-11.008 8.832 0 17.792 3.712 23.424 11.008l60.8 78.464C685.312 53.24800000000005 859.008 169.47199999999998 859.008 349.44000000000005 859.136 530.432 672.128 677.888 442.368 677.888zM714.88 173.82399999999996c-52.224-45.184-124.288-77.952-197.376-89.6C503.168 81.91999999999996 490.112 74.24000000000001 481.28 62.72000000000003l-38.784-49.92-38.912 49.92c-8.96 11.52-21.888 19.2-36.224 21.504-73.216 11.776-145.152 44.416-197.376 89.728-39.68 34.304-86.912 92.544-86.912 175.36 0 69.76 35.584 136.192 100.352 187.264 68.736 54.144 160.768 84.096 258.944 84.096 98.304 0 190.336-29.824 259.072-84.096 64.768-51.072 100.352-117.504 100.352-187.264C801.664 266.36800000000005 754.56 208.12800000000004 714.88 173.82399999999996z" fill="currentColor" transform="scale(1,-1) translate(0,-768)"/>
</svg>
