<svg xmlns="http://www.w3.org/2000/svg"
     viewBox="0 -128 1024 1024"
     width="24" height="24">
  <path d="M998.4 526.933333L797.866667 802.133333c-4.266667 6.4-12.8 10.666667-19.2 10.666667L243.2 812.8c0 0-14.933333-2.133333-23.466667-17.066667C194.133333 753.066667 32 512 32 512L21.333333 494.933333l12.8-14.933333L469.333333-27.733333000000016c4.266667-4.266667 6.4-6.4 10.666667-8.533333 6.4-4.266667 32-10.666667 46.933333 0 4.266667 2.133333 6.4 6.4 10.666667 8.533333l409.6 420.266667c10.666667 8.533333 10.666667 25.6 0 34.133333-8.533333 10.666667-23.466667 10.666667-32 0L561.066667 61.86666700000001l153.6 422.4 0 0 251.733333 0c2.133333 0 19.2 0 23.466667 4.266667l2.133333 2.133333C1004.8 497.066667 1006.933333 512 998.4 526.933333zM782.933333 763.733333l-96-226.133333L341.333333 537.6l-85.333333 226.133333L782.933333 763.733333zM221.866667 714.666667l72.533333-179.2-192 0L221.866667 714.666667zM91.733333 488.533333l215.466667 0 138.666667-416L91.733333 488.533333zM503.466667 44.799999999999955l-147.2 443.733333 307.2 0L503.466667 44.799999999999955zM736 535.4666669999999L810.666667 701.866667l119.466667-168.533333L736 533.333333z" fill="currentColor" transform="scale(1,-1) translate(0,-768)"/>
</svg>
