<svg xmlns="http://www.w3.org/2000/svg"
     viewBox="0 -128 1024 1024"
     width="24" height="24">
  <path d="M517.565-65.45399999999995c-244.263 0-442.299 198.014-442.299 442.299s198.014 442.299 442.299 442.299c244.263 0 442.299-198.014 442.299-442.299 0-244.263-198.014-442.299-442.299-442.299zM517.565 863.383c-268.751 0-486.564-217.834-486.564-486.564s217.834-486.564 486.564-486.564c268.751 0 486.564 217.834 486.564 486.564 0 268.751-217.834 486.564-486.564 486.564zM497.036 425.349c-18.443 6.957-33.605 16.314-45.238 27.617-11.581 11.306-20.059 23.465-25.468 36.742-5.423 13.177-8.178 26.235-8.178 39.172-0.004 18.194 2.564 34.357 7.846 48.514 5.327 14.231 13.748 25.85 25.468 35.02 11.581 9.167 26.798 15.204 45.482 18.295v-205.52zM534.455 356.13199999999995c16.937-6.756 32.277-14.997 46.035-24.855 13.748-9.678 24.613-21.601 32.929-35.57 8.204-13.909 12.436-30.734 12.622-50.307 0-14.231-1.859-27.907-5.785-40.833-3.858-12.866-9.542-24.531-17.271-34.804-7.691-10.211-17.271-18.443-28.678-24.613-11.328-6.318-24.613-9.678-39.76-10.341v221.377zM534.455 94.18299999999999c29.037 3.318 53.978 11.306 74.785 24.134 20.985 12.866 37.018 30.15 48.281 51.734 11.125 21.535 16.876 46.832 16.937 76.196 0 16.08-1.67 30.377-5.033 42.985-3.318 12.622-8.204 24.15-14.836 34.357-6.739 10.341-14.836 20.189-24.613 29.326-8.853 8.204-19.107 15.957-30.659 23.041-11.328 7.197-22.836 13.706-34.281 19.261-11.581 5.694-21.601 10.516-30.659 14.231v221.377c14.527-3.318 26.662-8.594 36.62-16.192 9.859-7.395 17.766-16.192 23.776-26.384 5.941-10.211 10.341-20.985 12.972-32.345 2.666-11.328 4.026-22.836 3.858-34.097h46.155c0.004 16.314-1.566 32.345-5.327 48.281-3.543 15.957-9.938 30.909-19.107 44.969-8.996 13.909-21.601 26.235-37.684 36.742-16.192 10.521-36.62 18.295-61.318 23.562v49.426h-37.441v-53.316c-23.465-2.624-42.985-8.178-58.595-16.314-15.633-8.204-28.279-18.194-37.684-29.562-9.441-11.328-16.523-23.302-21.226-35.317-4.59-12.062-7.846-23.302-9.316-33.326-1.566-10.211-2.256-18.194-2.115-24.029 0.004-21.601 3.452-40.612 9.863-57.238 6.479-16.523 15.58-30.909 27.178-43.441 11.659-12.436 25.361-23.562 40.833-33.204 15.633-9.678 32.649-18.443 51.098-26.235v-237.329c-18.194 1.984-33.326 7.197-45.094 15.633-11.97 8.369-21.074 19.107-27.714 31.902-6.739 12.972-11.011 27.178-13.363 42.701-2.256 15.58-3.034 31.313-2.115 47.367h-47.803c-1.183-23.776 0.397-46.035 5.033-66.676s12.357-39.03 23.376-55.019c10.892-16.08 25.361-29.037 43.142-39.03 17.847-9.863 39.472-16.08 64.586-18.295v-65.283h37.441v65.283z" fill="currentColor" transform="scale(1,-1) translate(0,-768)"/>
</svg>
