<svg xmlns="http://www.w3.org/2000/svg"
     viewBox="0 -128 1024 1024"
     width="24" height="24">
  <path d="M842.73769531 591.36914063c13.72412109 13.72587891 35.97363281 13.72587891 49.69775391-1e-8v0c13.72587891-13.72412109 13.72587891-35.97363281 0-49.6977539l-356.60126953-356.60214844c-13.72412109-13.72587891-35.971875-13.72587891-49.69775391 0v0c-13.72412109 13.72412109-13.72412109 35.97363281 0 49.69775391l356.60126953 356.60214844zM535.39560547 234.76699219c13.72587891-13.72412109 13.72587891-35.97363281 0-49.69775391v0c-13.72412109-13.72587891-35.971875-13.72587891-49.69775391 0l-356.60214844 356.60214844c-13.72412109 13.72412109-13.72412109 35.97363281 1e-8 49.69775391v0c13.72587891 13.72587891 35.97363281 13.72587891 49.69951171 0l356.60039063-356.60214844zM535.39560547 234.76699219z" fill="currentColor" transform="scale(1,-1) translate(0,-768)"/>
</svg>
