<svg xmlns="http://www.w3.org/2000/svg"
     viewBox="0 -128 1024 1024"
     width="24" height="24">
  <path d="M510.771521 828.211081c-244.998947 0-443.597097-198.60429-443.597097-443.590957s198.59815-443.591981 443.597097-443.591981c244.986667 0 443.583794 198.60429 443.583794 443.591981S755.758188 828.211081 510.771521 828.211081zM510.771521-30.044013999999947c-229.010811 0-414.664138 185.65435-414.664138 414.664138 0 229.010811 185.653327 414.657998 414.664138 414.657998 228.996484 0 414.652881-185.647187 414.652881-414.657998C925.424402 155.60931300000004 739.768005-30.044013999999947 510.771521-30.044013999999947zM662.749888 352.39518799999996L537.719266 245.82501100000002l0 324.388065c0 14.887059-12.06478 26.953885-26.947745 26.953885-14.894222 0-26.961048-12.066827-26.961048-26.953885l0-325.410348L357.936647 352.39518799999996c-10.56359 10.599406-27.693736 10.599406-38.267559 0-10.56359-10.596336-10.56359-27.777647 0-38.375006l170.181961-161.220868c5.629207-5.652743 13.111622-8.060583 20.49887-7.680936 7.373944-0.379647 14.859429 2.02717 20.488637 7.680936l170.181961 161.220868c10.562567 10.597359 10.562567 27.77867 0 38.375006C690.443623 362.99561700000004 673.313477 362.99561700000004 662.749888 352.39518799999996z" fill="currentColor" transform="scale(1,-1) translate(0,-768)"/>
</svg>
