<svg xmlns="http://www.w3.org/2000/svg"
     viewBox="0 -128 1024 1024"
     width="24" height="24">
  <path d="M854.794 669.297C797.923 743.783 683.626 823.59 548.62 830.822 136.707 852.889 85.742 435.448 85.742 435.448c55.449 53.038 58.01 97.116 163.936 154.293C673.983 818.768 676.394 476.432 676.394 476.432H346.111c-7.232 65.092 62.681 137.417 62.681 137.417-202.509-98.844-216.974-284.477-216.974-284.477s-28.93-279.655 219.385-364.034 452.029 42.189 452.029 42.189V193.16c-59.065-32.546-102.292-54.405-153.087-63.887-361.623-67.503-364.034 188.044-364.034 188.044h585.83c0 0.001 39.075 199.761-77.147 351.98z" fill="currentColor" transform="scale(1,-1) translate(0,-768)"/>
</svg>
