<svg xmlns="http://www.w3.org/2000/svg"
     viewBox="0 -128 1024 1024"
     width="24" height="24">
  <path d="M834.446 682.553H194.105c-50.176 0-91.022-40.846-91.022-91.022v-423.026c0-50.176 40.846-91.022 91.022-91.022h640.341c50.176 0 91.022 40.846 91.022 91.022V591.531c0 50.176-40.846 91.022-91.022 91.022z m36.409-514.048c0-20.025-16.384-36.409-36.409-36.409H194.105c-20.025 0-36.409 16.384-36.409 36.409V591.531c0 20.025 16.384 36.409 36.409 36.409h640.341c20.025 0 36.409-16.384 36.409-36.409v-423.026zM786.773 537.941L514.275 366.023 241.777 537.941c-12.743 8.078-29.582 4.21-37.661-8.533-8.078-12.743-4.21-29.582 8.533-37.661l286.72-180.907c4.551-2.845 9.557-4.21 14.563-4.21h0.91c5.006 0 10.013 1.365 14.563 4.21l286.72 180.907c12.743 8.078 16.611 24.917 8.533 37.661-8.306 12.857-25.145 16.611-37.888 8.533z" fill="currentColor" transform="scale(1,-1) translate(0,-768)"/>
</svg>
