<svg xmlns="http://www.w3.org/2000/svg"
     viewBox="0 -128 1024 1024"
     width="24" height="24">
  <path d="M422.214332 360.70413299999996L186.183684 360.70413299999996l0 46.568461 236.030648 0c10.379577 40.075407 46.47537 69.794509 89.785668 69.794509 51.432433 0 93.067103-41.657943 93.067103-93.067103C605.067103 332.56756700000005 563.40916 290.909624 512 290.909624 468.689703 290.909624 432.593909 320.65199900000005 422.214332 360.70413299999996L422.214332 360.70413299999996zM512 779.634098c-218.529658 0-395.634098-177.10444-395.634098-395.634098 0-218.529658 177.10444-395.634098 395.634098-395.634098 154.76275 0 288.417257 89.064217 353.440885 218.55293l101.398692-59.112389-23.063141-39.959044-62.161099 35.909613c-33.745261-51.595341-77.42792-96.115813-129.093079-129.744711l35.653614-61.765464-40.308133-23.295867-35.653614 61.765464c-53.620057-27.345298-113.360805-44.404109-176.894987-47.73209L535.319139-127.99706800000001l-46.568461 0 0 70.981412c-63.534182 3.327981-123.27493 20.386792-176.894987 47.73209l-35.653614-61.765464-40.308133 23.295867 35.653614 61.765464c-51.665159 33.628898-95.347818 78.149371-129.093079 129.744711l-62.161099-35.909613-23.295867 40.308133 62.114553 35.863067c-27.415116 53.550239-44.799743 113.104807-48.127724 176.685534L0.002932 360.70413299999996l0 46.568461 70.958139 0c3.327981 63.580727 20.712609 123.135295 48.127724 176.685534l-62.114553 35.863067 23.295867 40.308133 62.161099-35.909613c33.745261 51.595341 77.42792 96.115813 129.093079 129.744711l-35.653614 61.765464 40.308133 23.295867 35.653614-61.765464c53.620057 27.345298 113.360805 44.404109 176.894987 47.73209L488.727406 895.997068l46.568461 0 0-70.981412c63.534182-3.327981 123.27493-20.386792 176.894987-47.73209l35.653614 61.765464 40.308133-23.295867-35.653614-61.765464c51.665159-33.628898 95.347818-78.149371 129.093079-129.744711l62.161099 35.909613 23.063141-39.959044-101.398692-59.112389C800.417257 690.569881 666.76275 779.634098 512 779.634098L512 779.634098z" fill="currentColor" transform="scale(1,-1) translate(0,-768)"/>
</svg>
