<svg xmlns="http://www.w3.org/2000/svg"
     viewBox="0 -128 1024 1024"
     width="24" height="24">
  <path d="M386.346667 391.466667l121.813333 121.813333a128 128 0 0 1-121.813333-121.813333z m238.72 57.6L576 400.213333a64 64 0 0 0-76.8-76.8l-48.853333-48.853333a128 128 0 0 1 174.506666 174.506667zM109.013333 384a21.333333 21.333333 0 0 0 6.186667 15.146667c139.52 139.306667 268.8 207.146667 396.8 207.146666a372.266667 372.266667 0 0 0 79.786667-8.96l52.266666 52.266667a443.52 443.52 0 0 1-132.053333 21.333333c-145.92 0-291.84-75.306667-442.453333-225.92a85.333333 85.333333 0 0 1 0-120.746666 1063.04 1063.04 0 0 1 134.186666-115.2l45.866667 45.866666a985.813333 985.813333 0 0 0-134.4 114.133334 21.333333 21.333333 0 0 0-6.186667 14.933333z m845.653334 60.373333a966.613333 966.613333 0 0 1-185.813334 149.333334l-46.72-46.72a877.653333 877.653333 0 0 0 187.306667-147.2 21.333333 21.333333 0 0 0 0-30.08C770.133333 229.54666699999996 640 161.70666700000004 512 161.70666700000004a393.386667 393.386667 0 0 0-145.706667 29.013333l-48.64-48.64A466.133333 466.133333 0 0 1 512 97.70666700000004c145.92 0 291.84 75.306667 442.453333 225.92a85.333333 85.333333 0 0 1 0.213334 120.746666zM777.267604 692.049287m22.627417-22.627417l0 0q22.627417-22.627417 0-45.254834l-527.973064-527.973063q-22.627417-22.627417-45.254834 0l0 0q-22.627417 22.627417 0 45.254834l527.973064 527.973063q22.627417 22.627417 45.254834 0Z" fill="currentColor" transform="scale(1,-1) translate(0,-768)"/>
</svg>
