<svg xmlns="http://www.w3.org/2000/svg"
     viewBox="0 -128 1024 1024"
     width="24" height="24">
  <path d="M513.92 449.493333a64 64 0 1 0-64-64 64 64 0 0 0 64 64m0 64a128 128 0 1 1 128-128 128 128 0 0 1-128 128zM512 606.2933330000001c128 0 257.706667-67.84 397.226667-207.146666a21.333333 21.333333 0 0 0 0-30.08C770.133333 229.54666699999996 640 161.70666700000004 512 161.70666700000004s-257.28 67.84-396.8 207.146666a21.333333 21.333333 0 0 0 0 30.08c139.52 139.52 268.8 207.36 396.8 207.36m0 64c-145.92 0-291.84-75.306667-442.453333-225.92a85.333333 85.333333 0 0 1 0-120.746666C220.586667 173.013333 366.506667 97.70666700000004 512 97.70666700000004s292.266667 75.306667 442.666667 225.92a85.333333 85.333333 0 0 1 0 120.746666C804.266667 594.986667 658.346667 670.293333 512 670.293333z" fill="currentColor" transform="scale(1,-1) translate(0,-768)"/>
</svg>
