<svg xmlns="http://www.w3.org/2000/svg"
     viewBox="0 -128 1024 1024"
     width="24" height="24">
  <path d="M1024 384C1024 666.769792 794.769792 896 512 896 229.230208 896 0 666.769792 0 384 0 101.23020799999995 229.230208-128 512-128 629.410831-128 740.826187-88.33104600000001 830.768465-16.686661999999956 841.557579-8.092490999999995 843.33693 7.620766000000003 834.742758 18.409879000000046 826.148587 29.198990999999978 810.43533 30.978341999999998 799.646219 22.384173000000033 718.470035-42.277495000000044 618.001779-78.04878099999996 512-78.04878099999996 256.817504-78.04878099999996 49.951219 128.81750399999999 49.951219 384 49.951219 639.182496 256.817504 846.048781 512 846.048781 767.182496 846.048781 974.048781 639.182496 974.048781 384 974.048781 296.507166 949.714859 212.66323599999998 904.470807 140.039307 897.177109 128.33175700000004 900.755245 112.92820300000005 912.462793 105.63450699999999 924.170342 98.34080900000004 939.573897 101.91894200000002 946.867595 113.62649199999998 997.013826 194.11920399999997 1024 287.101621 1024 384ZM337.170731 396.487806C371.654852 396.487806 399.609756 424.442709 399.609756 458.926829 399.609756 493.41095 371.654852 521.365854 337.170731 521.365854 302.686611 521.365854 274.731708 493.41095 274.731708 458.926829 274.731708 424.442709 302.686611 396.487806 337.170731 396.487806ZM711.804879 396.487806C746.288998 396.487806 774.243902 424.442709 774.243902 458.926829 774.243902 493.41095 746.288998 521.365854 711.804879 521.365854 677.320757 521.365854 649.365854 493.41095 649.365854 458.926829 649.365854 424.442709 677.320757 396.487806 711.804879 396.487806ZM352.788105 127.22903299999996C396.165222 92.52733899999998 453.151987 71.80487900000003 524.487806 71.80487900000003 595.823622 71.80487900000003 652.810387 92.52733899999998 696.187505 127.22903299999996 722.700531 148.43945399999996 738.882517 170.01543500000002 746.631548 185.51349500000003 752.800254 197.850908 747.799529 212.85308399999997 735.462114 219.021792 723.124702 225.19049800000005 708.122526 220.18977299999995 701.953818 207.85235799999998 701.03616 206.01704299999994 698.492224 201.82703100000003 694.165854 196.058537 686.602473 185.97402899999997 676.927317 175.78965500000004 664.983226 166.23438299999998 630.311565 138.49705200000005 584.273939 121.75609799999995 524.487806 121.75609799999995 464.70167 121.75609799999995 418.664045 138.49705200000005 383.992384 166.23438299999998 372.048292 175.78965500000004 362.373137 185.97402899999997 354.809756 196.058537 350.483386 201.82703100000003 347.93945 206.01704299999994 347.021792 207.85235799999998 340.853084 220.18977299999995 325.850908 225.19049800000005 313.513495 219.021792 301.176081 212.85308399999997 296.175356 197.850908 302.344062 185.51349500000003 310.093092 170.01543500000002 326.275078 148.43945399999996 352.788105 127.22903299999996Z" fill="currentColor" transform="scale(1,-1) translate(0,-768)"/>
</svg>
