<svg xmlns="http://www.w3.org/2000/svg"
     viewBox="0 -128 1024 1024"
     width="24" height="24">
  <path d="M511.558443 852.9315573333333c-246.787686 0-447.597201-200.783932-447.597201-447.598224 0-246.815315 200.783932-447.598224 447.597201-447.598224 246.841921 0 447.64939 200.782909 447.64939 447.598224C959.207833 652.1476253333334 758.400365 852.9315573333333 511.558443 852.9315573333333zM511.558443-4.962310666666667c-226.247884 0-410.295644 184.046736-410.295644 410.295644 0 226.249931 184.072319 410.296667 410.295644 410.296667 226.27449 0 410.346809-184.046736 410.346809-410.296667C921.905252 179.08442633333334 737.832933-4.962310666666667 511.558443-4.962310666666667zM724.38055 303.5726953333334c-9.698896 3.457752-20.366863-1.566682-23.848151-11.264555-28.500101-79.45461-104.372116-132.844587-188.82353-132.844587-84.798315 0-160.770614 53.689806-189.070146 133.590578-3.432169 9.723455-14.075577 14.772448-23.823592 11.364839-9.699919-3.432169-14.797008-14.100136-11.364839-23.823592 33.547047-94.77248 123.668601-158.434405 224.234017-158.434405 100.142791 0 190.140525 63.314001 223.935212 157.564595C739.125369 289.3978573333334 734.102982 300.0903843333334 724.38055 303.5726953333334zM302.49494 515.3479593333334c0-24.653493 19.98517-44.638663 44.638663-44.638663 24.653493 0 44.638663 19.98517 44.638663 44.638663s-19.98517 44.63764-44.638663 44.63764C322.48011 559.9855993333333 302.49494 540.0014523333333 302.49494 515.3479593333334L302.49494 515.3479593333334zM631.398856 515.3479593333334c0-24.653493 19.98517-44.638663 44.63764-44.638663 24.653493 0 44.63764 19.98517 44.63764 44.638663s-19.984147 44.63764-44.63764 44.63764C651.384026 559.9855993333333 631.398856 540.0014523333333 631.398856 515.3479593333334L631.398856 515.3479593333334z" fill="currentColor" transform="scale(1,-1) translate(0,-768)"/>
</svg>
