<svg xmlns="http://www.w3.org/2000/svg"
     viewBox="0 -128 1024 1024"
     width="24" height="24">
  <path d="M485.656116-128C221.592397-128 6.762016 86.81718000000001 6.762016 350.87649799999997s214.830381 478.867697 478.8941 478.867697c264.041716 0 478.854495-214.812779 478.854495-478.867697S749.697832-128 485.656116-128zM485.656116 798.834741c-247.024795 0-447.975846-200.959852-447.975846-447.962644 0-247.002792 200.951051-447.962644 447.975846-447.962644 247.002792 0 447.953843 200.959852 447.953843 447.962644C933.609959 597.8748889999999 732.658908 798.834741 485.656116 798.834741zM352.033458 447.380528c0-30.469398-24.682677-55.147675-55.143274-55.147675-30.451796 0-55.143274 24.678276-55.143274 55.147675 0 30.460597 24.691478 55.138874 55.143274 55.138874C327.350781 502.519402 352.033458 477.845526 352.033458 447.380528zM674.417647 502.519402c-30.460597 0-55.156476-24.678276-55.156476-55.138874 0-30.469398 24.695879-55.147675 55.156476-55.147675 30.451796 0 55.143274 24.678276 55.143274 55.147675C729.560922 477.845526 704.869444 502.519402 674.417647 502.519402zM562.005634 165.30976499999997c0-59.733046-34.192262-108.165484-76.349518-108.165484-42.166057 0-76.36272 48.432438-76.36272 108.165484 0 59.724245 34.196663 108.152282 76.36272 108.152282C527.813371 273.45764699999995 562.005634 225.03400999999997 562.005634 165.30976499999997zM835.631745 793.712503c0 0 12.871605 56.819883 41.959231 85.925112 29.083226 29.096427 69.915916 15.124685 78.492585-8.801097 9.461179-26.385689-2.033053-50.069442-29.092027-56.164202C899.404495 808.463141 874.880237 826.192952 835.631745 793.712503zM916.698651 757.570797c0 0 35.767659 20.576965 64.877288 19.393218 29.136032-1.174946 41.431165-29.144833 33.109728-45.110024-9.192746-17.588993-27.054573-22.966463-43.217788-11.797871C954.979023 731.44034 952.453108 752.721393 916.698651 757.570797z" fill="currentColor" transform="scale(1,-1) translate(0,-768)"/>
</svg>
