<svg xmlns="http://www.w3.org/2000/svg"
     viewBox="0 -128 1024 1024"
     width="24" height="24">
  <path d="M511.931733-128c-136.738133 0-265.284267 53.213867-361.984 149.879467C53.282133 118.51093300000002 0 247.09119999999996 0 384c0 136.738133 53.282133 265.3184 150.050133 362.0864C246.749867 842.683733 375.296 896 512.136533 896s265.4208-53.316267 362.1888-149.9136c199.645867-199.714133 199.543467-524.5952 0-724.206933C777.454933-74.71786699999996 648.772267-128 511.931733-128L511.931733-128 511.931733-128 511.931733-128 511.931733-128 511.931733-128zM512.034133 829.303467c-118.920533 0-230.741333-46.2848-314.914133-130.389333C113.083733 614.8778669999999 66.7648 502.8864 66.7648 384c0-118.9888 46.2848-230.912 130.3552-315.016533 84.0704-84.0704 195.857067-130.321067 314.811733-130.321067 119.022933 0 230.946133 46.318933 315.016533 130.423467 173.704533 173.636267 173.704533 456.157867 0 629.794133C742.877867 782.984533 631.057067 829.303467 512.034133 829.303467L512.034133 829.303467 512.034133 829.303467 512.034133 829.303467 512.034133 829.303467 512.034133 829.303467zM330.103467 244.25813300000004c0 0 59.904-95.9488 181.828267-95.9488s201.8304 95.9488 201.8304 95.9488 45.294933 0.136533 45.192533-47.957333c0 0-78.506667-111.8208-247.022933-111.8208s-223.368533 111.8208-223.368533 111.8208S286.856533 244.25813300000004 330.103467 244.25813300000004L330.103467 244.25813300000004 330.103467 244.25813300000004 330.103467 244.25813300000004 330.103467 244.25813300000004zM363.2128 548.590933c-34.5088 0-62.702933-28.091733-62.702933-62.737067 0-34.679467 28.194133-62.6688 62.702933-62.6688 34.679467 0 62.702933 28.091733 62.702933 62.6688C425.915733 520.4992 397.858133 548.590933 363.2128 548.590933L363.2128 548.590933 363.2128 548.590933 363.2128 548.590933 363.2128 548.590933 363.2128 548.590933zM684.544 548.590933c-34.679467 0-62.702933-28.091733-62.702933-62.737067 0-34.679467 28.023467-62.6688 62.702933-62.6688 34.6112 0 62.600533 28.091733 62.600533 62.6688C747.144533 520.4992 719.121067 548.590933 684.544 548.590933L684.544 548.590933 684.544 548.590933 684.544 548.590933 684.544 548.590933 684.544 548.590933zM684.544 548.590933" fill="currentColor" transform="scale(1,-1) translate(0,-768)"/>
</svg>
