<svg xmlns="http://www.w3.org/2000/svg"
     viewBox="0 -128 1024 1024"
     width="24" height="24">
  <path d="M1024 384C1024 666.769792 794.769792 896 512 896 229.230208 896 0 666.769792 0 384 0 101.23020799999995 229.230208-128 512-128 629.410831-128 740.826187-88.33104600000001 830.768465-16.686661999999956 841.557579-8.092490999999995 843.33693 7.620766000000003 834.742758 18.409879000000046 826.148587 29.198990999999978 810.43533 30.978341999999998 799.646219 22.384173000000033 718.470035-42.277495000000044 618.001779-78.04878099999996 512-78.04878099999996 256.817504-78.04878099999996 49.951219 128.81750399999999 49.951219 384 49.951219 639.182496 256.817504 846.048781 512 846.048781 767.182496 846.048781 974.048781 639.182496 974.048781 384 974.048781 296.507166 949.714859 212.66323599999998 904.470807 140.039307 897.177109 128.33175700000004 900.755245 112.92820300000005 912.462793 105.63450699999999 924.170342 98.34080900000004 939.573897 101.91894200000002 946.867595 113.62649199999998 997.013826 194.11920399999997 1024 287.101621 1024 384ZM337.170731 396.487806C371.654852 396.487806 399.609756 424.442709 399.609756 458.926829 399.609756 493.41095 371.654852 521.365854 337.170731 521.365854 302.686611 521.365854 274.731708 493.41095 274.731708 458.926829 274.731708 424.442709 302.686611 396.487806 337.170731 396.487806ZM711.804879 396.487806C746.288998 396.487806 774.243902 424.442709 774.243902 458.926829 774.243902 493.41095 746.288998 521.365854 711.804879 521.365854 677.320757 521.365854 649.365854 493.41095 649.365854 458.926829 649.365854 424.442709 677.320757 396.487806 711.804879 396.487806ZM352.788105 191.21547499999997C396.165222 225.91716899999994 453.151987 246.639629 524.487806 246.639629 595.823622 246.639629 652.810387 225.91716899999994 696.187505 191.21547499999997 722.700531 170.00505399999997 738.882517 148.42907300000002 746.631548 132.931012 752.800254 120.59359800000004 747.799529 105.59142399999996 735.462114 99.42271600000004 723.124702 93.25401 708.122526 98.25473499999998 701.953818 110.59214899999995 701.03616 112.42746499999998 698.492224 116.61747600000001 694.165854 122.38597100000004 686.602473 132.47047699999996 676.927317 142.654852 664.983226 152.21012499999995 630.311565 179.947456 584.273939 196.68840999999998 524.487806 196.68840999999998 464.70167 196.68840999999998 418.664045 179.947456 383.992384 152.21012499999995 372.048292 142.654852 362.373137 132.47047699999996 354.809756 122.38597100000004 350.483386 116.61747600000001 347.93945 112.42746499999998 347.021792 110.59214899999995 340.853084 98.25473499999998 325.850908 93.25401 313.513495 99.42271600000004 301.176081 105.59142399999996 296.175356 120.59359800000004 302.344062 132.931012 310.093092 148.42907300000002 326.275078 170.00505399999997 352.788105 191.21547499999997Z" fill="currentColor" transform="scale(1,-1) translate(0,-768)"/>
</svg>
