<svg xmlns="http://www.w3.org/2000/svg"
     viewBox="0 -128 1024 1024"
     width="24" height="24">
  <path d="M887.443911 598.6304l0-44.578133 0-45.511111 0-477.866667c0-37.705956-30.560711-68.266667-68.266667-68.266667l-614.4 0c-37.705956 0-68.266667 30.560711-68.266667 68.266667l0 705.422222c0 37.6832 30.560711 68.266667 68.266667 68.266667l386.844444 0 45.511111 0 38.024533 0c7.805156 2.594133 16.566044 1.2288 22.778311-5.006222l183.136711-183.159467C885.919289 611.373511 887.876267 604.9564439999999 887.443911 598.6304zM659.888356 531.296711c-12.583822 0-22.755556 10.171733-22.755556 22.755556l0 204.8-45.511111 0-364.088889 0c-25.122133 0-45.511111-20.388978-45.511111-45.511111l0-659.911111c0-25.122133 20.388978-45.511111 45.511111-45.511111l568.888889 0c25.122133 0 45.511111 20.388978 45.511111 45.511111l0 455.111111 0 22.755556L659.888356 531.296711zM682.643911 750.273422l0-173.4656 159.288889 0 0 14.176711L682.643911 750.273422z" fill="currentColor" transform="scale(1,-1) translate(0,-768)"/>
</svg>
