<svg xmlns="http://www.w3.org/2000/svg"
     viewBox="0 -128 1024 1024"
     width="24" height="24">
  <path d="M512 896C229.236364 896 0 666.763636 0 384c0-282.786909 229.236364-512 512-512s512 229.213091 512 512C1024 666.763636 794.763636 896 512 896zM657.291636 383.976727c0-77.195636-60.392727-139.729455-136.424727-144.407273l-175.732364-151.714909-22.877091 13.242182 58.228364 222.021818c-8.634182 18.548364-13.800727 39.074909-13.800727 60.858182 0 77.195636 60.369455 139.729455 136.378182 144.430545l175.802182 151.714909 22.877091-13.172364-58.251636-222.068364C652.125091 426.309818 657.291636 405.806545 657.291636 383.976727zM512 384m-66.048 0a2.838 2.838 0 1 1 132.096 0 2.838 2.838 0 1 1-132.096 0Z" fill="currentColor" transform="scale(1,-1) translate(0,-768)"/>
</svg>
