<svg xmlns="http://www.w3.org/2000/svg"
     viewBox="0 -128 1024 1024"
     width="24" height="24">
  <path d="M515.52500029-47.25q-142.12500029 0-253.36874971 75.58125029t-165.4875 200.1375q-29.1375 65.79375029-33.6562497 151.18125029t13.05 166.98750029 55.74375 156.6937503 89.9062497 121.7999997l-5.5312497-141.13125q5.53124971 7.03125 34.14375 7.78124971t35.15625-7.78124971q21.09375 40.68749971 80.60625 69.3t117.76875029 29.6250003q-27.1125-22.59375029-60.01875-74.5875t-29.38124971-82.1062503q12.56249971-4.01249971 31.3875-6.78750029t31.65000029-3.76875 34.14375-2.00625029 25.36875-1.50000029q7.5375-2.51250029 4.7625003-22.85624971t-15.31874971-37.9125q-2.51250029-3.52500029-8.28749971-9.29999971t-28.36874971-17.83125-50.71875029-17.08125029l7.5375-94.93125029-69.80625 33.6562497q-9.03750029-21.6-3.76875-40.93125029t18.07499971-33.39375029 32.88750029-20.85000029 40.68749971-3.2625q25.61249971 4.51874971 49.21875 17.325t41.94375029 22.59375029 36.91874971 8.79374971q30.63750029-2.00625029 44.94375-16.5750003t9.7875-32.6437497q-0.50625-1.0125-1.25624971-2.75625t-4.275-6.2812503-9.03750029-7.7812497-15.82499971-5.2687503-23.3624997-0.50625q-30.13125029-47.71874971-72.5812497-68.04375029t-105.2250003-14.81249971q37.16250029-30.63750029 81.61875-41.43750029t84.6187497-3.01875029 77.58749971 26.11874971 64.29375 43.9499997 40.42500029 52.2375003q21.6 45.71250029 19.59374971 96.67500029t-18.82500029 94.66875-39.43125 62.775q43.68750029-19.08749971 68.8124997-39.91875029t38.6812503-56.49374971q7.5375 85.3875-28.87499971 172.27500029t-105.22500029 142.63125029q133.0875-38.68125029 206.92500029-140.38125029t75.84374971-259.91250029q1.0125-63.7875-20.3437503-128.06250029t-62.02500029-119.53125-94.93125029-98.4375-124.29375029-68.0437503-144.9-24.8625z" fill="currentColor" transform="scale(1,-1) translate(0,-768)"/>
</svg>
