<svg xmlns="http://www.w3.org/2000/svg"
     viewBox="0 -128 1024 1024"
     width="24" height="24">
  <path d="M890.059904 352.19948999999997C845.890699 458.956706 840.554889 548.4951550000001 857.396326 618.42714 859.144623 625.686731 860.991676 631.9776790000001 862.858846 637.425182 863.763607 640.064841 865.906573 645.659889 866.16406 646.532651L880.890349 696.448108 833.062903 675.9309969999999C832.106692 675.5208 830.618069 674.894716 827.426684 673.550492 824.667648 672.380966 822.310677 671.354022 819.868514 670.244809 813.291441 667.2575449999999 807.049466 664.090938 800.697749 660.4128450000001 784.089623 650.795565 768.486253 638.656896 753.86285 623.033596 727.630498 595.007563 706.526618 557.766355 691.78157 509.713231 675.041103 455.157161 671.516484 411.46006 673.004574 347.939834 673.477918 327.73476900000003 673.463923 322.197583 672.83965 318.324215 673.779618 324.156339 684.455526 333.67819899999995 696.104608 329.19567600000005 693.056849 330.36844199999996 685.695898 339.012828 676.314007 361.368339 660.550914 398.92921 646.834249 460.170272 636.817284 549.350468 625.445924 650.588768 630.103925 734.7280519999999 644.646978 801.338628 647.677924 815.221065 650.899934 827.082435 654.086773 836.904609 655.91465 842.538316 657.254607 846.094657 657.880284 847.554385L678.645286 896 628.243642 880.578031C617.409833 877.263087 599.94569 869.52239 578.105438 855.845223 542.547644 833.577626 507.199569 802.385036 474.400401 760.836776 447.596676 726.883228 423.611383 687.30061 403.118547 641.7016189999999 378.907516 587.829195 363.003277 542.798944 353.158029 503.238462 349.274261 487.632585 346.433259 473.323627 344.1945 458.925156 343.334411 453.39353 342.592734 448.063234 341.804612 441.911844 341.502524 439.553997 340.356619 430.329551 340.073506 428.145504 337.596047 409.033293 335.848224 404.35337 329.235273 398.312868 336.081933 404.566848 343.232634 404.098227 346.608002 402.086756 344.852318 403.133013 341.598345 406.493651 337.991853 411.887149 327.030897 428.279226 317.980358 454.883162 313.690598 489.339595 311.250185 508.941598 310.203772 539.08627 310.370048 576.545325 310.480474 601.422138 311.113088 628.122479 312.099068 654.977888 312.481453 665.393013 312.891081 675.105466 313.30045 683.8491750000001 313.545346 689.079919 313.735044 692.813105 313.84201 694.783403L317.55517 763.179488 271.360516 712.604139C270.467691 711.626645 268.852992 709.837042 266.618705 707.326295 262.927895 703.178805 258.823678 698.493751 254.407949 693.3614689999999 241.78797 678.693606 229.164348 663.340425 217.341267 648.004036 211.724185 640.717803 206.411389 633.591345 201.450577 626.6638379999999 176.017063 591.147305 156.617347 555.4025280000001 138.122768 512.155497 90.841957 401.595812 76.97672 299.64870599999995 99.261816 188.13489300000003 126.80821 50.29373899999996 188.553235-37.64422200000001 278.8297-84.690336 344.19104-118.75233700000001 408.837235-128 507.940695-128 525.713007-128 557.977207-125.567138 590.857378-120.46215900000004 641.152493-112.65333099999998 687.496192-99.78932299999997 726.063273-80.59104400000001 738.155853-74.57148800000004 743.07901-59.88870199999997 737.059454-47.79612199999997 731.039898-35.70354299999997 716.357111-30.780384000000026 704.264531-36.79993999999999 670.855859-53.43041900000003 629.092954-65.02289699999994 583.352478-72.12456999999995 552.984316-76.83953499999996 523.228215-79.08327499999996 507.940695-79.08327499999996 416.16215-79.08327499999996 357.934257-70.75375399999996 301.436271-41.310745999999995 224.830174-1.3887230000000272 171.977796 73.88423 147.230072 197.72094500000003 126.99711 298.965952 139.514783 391.004811 183.099329 492.921284 200.282663 533.1021499999999 218.020237 565.784358 241.22153 598.183718 245.831691 604.6215589999999 250.802959 611.289899 256.082244 618.137961 267.31885 632.713596 279.402035 647.409487 291.488864 661.457681 298.732051 669.8762429999999 304.338773 676.1767130000001 307.478705 679.614406L264.997214 697.435142C264.883874 695.347445 264.688038 691.493511 264.43725 686.13688 264.020474 677.234965 263.603959 667.359281 263.215279 656.7726250000001 262.21142 629.430212 261.566827 602.224414 261.453805 576.7624579999999 261.278897 537.3588179999999 262.385015 505.49418 265.148621 483.296209 276.058157 395.668083 322.627019 326.024497 362.226031 362.19561799999997 379.341732 377.829698 384.756649 392.328523 388.584361 421.857186 397.932742 493.974714 407.332926 531.746825 447.736538 621.64966 466.587287 663.594818 488.484326 699.731218 512.795234 730.526996 542.034492 767.565749 573.156162 795.028785 604.068111 814.386984 614.696751 821.043029 624.472062 826.201428 633.124687 830.036563 638.02329 832.207788 641.258688 833.404991 642.556233 833.802016L612.91959 866.825663C608.658554 856.884484 602.686705 838.478616 596.856038 811.772799 581.186705 740.003594 576.231674 650.498985 588.206246 543.890345 607.295279 373.94226100000003 638.819345 298.82556999999997 678.537329 283.542234 701.302332 274.78234499999996 717.731637 289.43566899999996 721.133156 310.5407 722.475759 318.870999 722.489387 324.26340300000004 721.907881 349.08549100000005 720.532565 407.791853 723.691247 446.952173 738.546223 495.36355 751.151827 536.44438 768.544047 567.135763 789.576147 589.605967 809.230566 610.60429 821.725461 617.839716 852.347733 630.9761169999999L842.705318 653.453557 819.246577 660.374464C822.235501 670.505564 813.450321 644.87463 809.839253 629.8801189999999 790.647573 550.1890470000001 796.611315 450.1135 844.8591 333.498332 883.105728 241.056017 874.587669 126.06492400000002 824.002925 61.39712899999995 815.680378 50.75754500000005 817.558709 35.38570000000004 828.198295 27.063153000000057 838.837879 18.740607999999952 854.209724 20.618939999999952 862.532269 31.258523999999966 924.762731 110.81426299999998 934.658528 244.404363 890.059904 352.19948999999997Z" fill="currentColor" transform="scale(1,-1) translate(0,-768)"/>
</svg>
