<svg xmlns="http://www.w3.org/2000/svg"
     viewBox="0 -128 1024 1024"
     width="24" height="24">
  <path d="M878.368178 798.272211c-11.363815 4.799306-24.470321 2.360767-33.31578-6.245238-0.36532-0.350994-37.162388-35.304064-95.163383-56.05262-75.462692-26.993794-150.763702-18.409279-223.812415 25.517163-38.347376 23.060205-81.875752 40.665165-129.376603 52.327786-37.582967 9.228175-77.742619 14.777565-119.363552 16.496719-70.805626 2.925632-121.493052-6.224772-123.615389-6.615675-14.56574-2.682086-25.140587-15.380292-25.140587-30.191626L128.58047-31.312913999999978c0-16.954137 13.745049-30.699186 30.699186-30.699186s30.699186 13.745049 30.699186 30.699186L189.978842 266.68306099999995c15.562441 5.250584 47.994084 14.447037 91.40171 17.48728 35.985586 2.51938 72.440869 0.378623 108.35073-6.363941 44.847417-8.420787 89.059362-24.102954 131.409912-46.611597 46.26879-24.591071 93.776803-41.069371 141.203976-48.977481 38.270629-6.380314 76.541257-7.219425 113.740484-2.491751 64.277956 8.16803 103.877859 30.461779 105.532545 31.406291 9.56689 5.464455 15.471366 15.637142 15.471366 26.656103L897.089565 769.958352C897.091612 782.298402 889.73711 793.470859 878.368178 798.272211zM835.69324 257.496841c-14.58416-5.755074-38.82526-13.530155-70.319555-17.225313-30.990828-3.635807-62.940494-2.676969-94.952582 2.851954-40.201607 6.943133-80.731696 21.171182-120.464629 42.289152-48.455595 25.753547-99.208513 43.61945-150.848637 53.101405-29.29214 5.378497-58.896388 8.079002-88.407516 8.079002-12.228509 0-24.443715-0.464581-36.609803-1.39272-34.879392-2.663666-63.618946-8.741082-84.111676-14.355963L189.978842 766.569162c19.971867 2.003634 50.446949 3.910053 86.392626 2.334161 58.186214-2.554172 143.250588-15.041578 218.064504-60.029188 61.32674-36.877909 119.196753-49.491181 169.691797-49.488111 42.293245 0.002047 79.416747 8.854669 109.019972 19.711947 24.269753 8.901741 45.327348 19.747763 62.544475 30.179346L835.692217 257.496841z" fill="currentColor" transform="scale(1,-1) translate(0,-768)"/>
</svg>
