<svg xmlns="http://www.w3.org/2000/svg"
     viewBox="0 -128 1024 1024"
     width="24" height="24">
  <path d="M928 448l-143.616 0c-3.456 55.616-14.272 106.56-29.504 144.96C725.504 666.816 617.344 768 464.32 768L256 768l0-320L96 448C78.336 448 64 433.664 64 416S78.336 384 96 384L256 384l0-320 229.632 0c156.288 0 240.768 97.856 267.904 167.488C772.736 280.96000000000004 782.272 333.312 784.96 384L928 384C945.664 384 960 398.336 960 416S945.664 448 928 448zM349.376 711.488l63.936 0c35.712 0 251.84 27.968 266.944-263.488l-330.88 0L349.376 711.488zM439.296 120.51199999999994L349.376 120.51199999999994 349.376 382.528 349.376 384l330.88 0C665.344 113.98400000000004 467.968 120.51199999999994 439.296 120.51199999999994z" fill="currentColor" transform="scale(1,-1) translate(0,-768)"/>
</svg>
