<svg xmlns="http://www.w3.org/2000/svg"
     viewBox="0 -128 1024 1024"
     width="24" height="24">
  <path d="M199.092919 848.487893l355.326704 0c70.335928 0 122.780371-2.942005 157.349701-8.809643 34.568307-5.884011 65.491597-18.131963 92.78522-36.759205 27.27725-18.627243 50.01409-43.427068 68.209498-74.397431 18.195408-30.986735 27.293623-65.699328 27.293623-104.169501 0-41.7161-11.17655-79.977519-33.496905-114.802676s-52.604078-60.951187-90.818425-78.362742c54.075593-15.765055 95.647407-42.626843 124.715443-80.585363s43.602054-82.58388 43.602054-133.877103c0-40.388872-9.417487-79.673597-28.220738-117.839849-18.803251-38.182624-44.482097-68.673056-77.035514-91.489714-32.55444-22.833031-72.702835-36.855396-120.414487-42.09984-29.931706-3.229554-102.122889-5.260817-216.572524-6.060019L199.092919-40.765192999999954 199.092919 848.487893zM378.171504 700.1084940000001l0-205.684546 117.64849 0c69.935816 0 113.410979 1.006933 130.390699 3.038196 30.730908 3.629667 54.891168 14.246469 72.478731 31.850405 17.588587 17.588587 26.381857 40.756239 26.381857 69.473281 0 27.501354-7.594979 49.838082-22.75219 67.042929-15.158235 17.188474-37.702694 27.597545-67.618027 31.242562-17.796318 2.01489-68.945255 3.038196-153.431461 3.038196L378.171504 700.109518zM378.171504 346.04454999999996l0-236.383732 166.622902 0c64.85203 0 106.008382 1.807159 123.43631 5.420453 26.750247 4.828982 48.543599 16.58063 65.363683 35.272341s25.247011 43.714617 25.247011 75.085092c0 26.526143-6.491855 49.03888-19.459191 67.538209-12.983709 18.48398-31.722492 31.961946-56.250118 40.404222s-77.739549 12.663414-159.619394 12.663414L378.171504 346.04454999999996z" fill="currentColor" transform="scale(1,-1) translate(0,-768)"/>
</svg>
