<svg xmlns="http://www.w3.org/2000/svg"
     viewBox="0 -128 1024 1024"
     width="24" height="24">
  <path d="M944.787709 197.20939699999997L857.081297 197.20939699999997 741.092979-127.73993700000005 815.146059-127.73993700000005 832.440281-65.58476199999996 966.82809-65.58476199999996 984.512408-127.73993700000005 1062.011328-127.73993700000005 944.787709 197.20939699999997 944.787709 197.20939699999997ZM848.04409 1.1865400000000363L898.951519 153.25866699999995 949.923963 1.1865400000000363 848.04409 1.1865400000000363 848.04409 1.1865400000000363ZM210.238376 489.910857L183.386821 513.121524 12.46009 313.522794C-5.874386 292.652698-3.728862 260.989968 17.271265 242.720508 38.401424 224.45104800000001 70.454249 226.66158700000005 88.853741 247.53168300000004L100.361551 260.599873C106.603075 267.55657099999996 117.200662 268.20673 124.287392 262.22527 131.309106 256.048762 132.024281 245.51619000000005 125.912789 238.55949199999998 107.448281 217.62438099999997 98.085995 173.08850800000005 119.216154 154.81904799999995 140.281297 136.614603 183.841932 151.76330199999995 202.371455 172.69841299999996 208.417932 179.525079 219.145551 180.30526999999995 226.167265 174.19377799999995 233.188979 168.14730199999997 233.904154 157.61473 227.792662 150.65803200000005 209.328154 129.85295199999996 199.965868 85.05701599999998 221.096027 66.91758700000003 242.16117 48.648127000000045 285.656789 63.86184100000003 304.186313 84.666921 310.362821 91.62361899999996 321.025424 92.40381000000002 327.982122 86.29231700000003 335.068852 80.18082500000003 335.784027 69.71326999999997 329.672535 62.75657100000001 311.143011 41.82146 301.845741-2.9094599999999673 322.910884-20.983873000000017 344.041043-39.253333 387.601678-24.039619000000016 406.00117-3.234540000000038 412.177678 3.7221590000000333 422.840281 4.437332999999967 429.927011-1.6091430000000173 436.948725-7.720635000000016 437.598884-18.31822199999999 431.487392-25.144889000000035 413.022884-46.08000000000004 403.725614-90.81092100000001 424.790757-109.01536499999997 445.920916-127.15479400000004 477.973741-125.00927000000001 496.373233-104.20419000000004L667.299963 95.52457100000004 658.652852 132.90869799999996 210.238376 489.910857 210.238376 489.910857ZM844.013106 329.516698L680.10809 471.12127 929.639011 715.190857C933.2799 718.376635 936.725741 721.562413 939.976535 725.203302 977.815773 768.048762 973.524725 833.129651 930.28917 870.513778 887.183646 907.702857 821.58263 903.281778 783.808408 860.631365L783.483328 860.761397 564.249805 571.3107299999999 399.824662 713.56546C385.391138 726.113524 363.480789 724.553143 350.867709 710.249651L248.14263 593.871238 225.322059 567.994921 251.393424 545.434413 695.7119 161.25561900000002 726.26936 136.679619 847.328916 281.014857C859.941995 295.318349 858.44663 316.96863499999995 844.013106 329.516698L844.013106 329.516698ZM817.941741 830.724063C839.136916 854.779937 876.000916 857.315556 900.186821 836.250413 924.372725 815.380317 926.908344 778.906413 905.648154 754.85054 884.452979 730.924698 847.588979 728.389079 823.403075 749.3892060000001 799.21717 770.324317 796.811582 806.798222 817.941741 830.724063L817.941741 830.724063ZM765.473932 758.491429C768.919773 741.522286 777.6319 725.593397 791.80536 713.305397 806.043836 701.017397 823.533106 694.580825 841.087392 693.540571L643.634186 494.526984 593.116852 538.2176509999999 765.473932 758.491429 765.473932 758.491429ZM776.006503 299.739429L709.755328 219.314794 307.502122 566.369524 376.809043 645.03873C382.920535 651.865397 393.38809 652.5155560000001 400.409805 646.534095L774.381106 323.01511100000005C781.337805 317.098667 782.117995 306.69612700000005 776.006503 299.739429L776.006503 299.739429Z" fill="currentColor" transform="scale(1,-1) translate(0,-768)"/>
</svg>
