<svg xmlns="http://www.w3.org/2000/svg"
     viewBox="0 -128 1024 1024"
     width="24" height="24">
  <path d="M270 626c-12 12-32 12-44 0L9 409c-12-12-12-32 0-44l217-217c6-6 14-9 22-9s16 3 22 9c12 12 12 32 0 44L75 387 270 582C282 595 282 614 270 626zM1015 409L798 626c-12 12-32 12-44 0-12-12-12-32 0-44l195-195L754 192c-12-12-12-32 0-44 6-6 14-9 22-9s16 3 22 9l217 217C1027 377 1027 397 1015 409zM624 696L624 696c-16 6-34-3-40-19L382 119c-6-16 2-34 19-40l0 0c16-6 34 3 40 19l202 558C648 672 640 690 624 696z" fill="currentColor" transform="scale(1,-1) translate(0,-768)"/>
</svg>
