<svg xmlns="http://www.w3.org/2000/svg"
     viewBox="0 -128 1024 1024"
     width="24" height="24">
  <path d="M0-49.23076900000001L945.230769-49.23076900000001 945.230769-128 0-128 0-49.23076900000001ZM0 896L407.076943 896 407.076943 834.065644 319.153861 827.872177 299.076923 809.911217 299.076923 365.841959C299.076923 281.19796199999996 317.076716 220.709337 353.076933 184.37435100000005 389.077071 148.03936499999998 448.153442 129.87210800000003 530.307702 129.87210800000003 606.000364 129.87210800000003 660.807522 149.17482299999995 694.730752 187.78072599999996 728.653982 226.38662899999997 745.61536 289.66226700000004 745.61536 377.60953099999995L745.61536 804.956475 724.153817 826.633531 633.461524 834.065644 633.461524 896 955.384596 896 955.384596 834.065644 868.846119 826.633531 849.461563 804.956475 849.461563 364.60331299999996C849.461563 246.92743900000005 819.923338 161.66533900000002 760.846178 108.81441500000005 701.76894 55.96348999999998 606.462188 29.53846199999998 474.923087 29.53846199999998 406.153531 29.53846199999998 345.807951 38.51886300000001 293.884613 56.47990200000004 241.961275 74.44093999999996 201.230887 100.143419 171.692347 133.58820400000002 149.076834 160.01362700000004 133.038474 190.25793999999996 123.57695 224.32200899999998 114.115348 258.386078 109.384625 307.21047599999997 109.384625 370.796702L109.384625 809.911217 89.307687 827.872177 0 834.065644 0 896Z" fill="currentColor" transform="scale(1,-1) translate(0,-768)"/>
</svg>
