<svg xmlns="http://www.w3.org/2000/svg"
     viewBox="0 -128 1024 1024"
     width="24" height="24">
  <path d="M314.278111 437.019389l395.439892 0 0-30.297458-395.439892 0L314.278111 437.019389zM314.278111 315.83495200000004l395.439892 0 0-30.297458-395.439892 0L314.278111 315.83495200000004zM314.278111 194.62833l263.626661 0 0-30.297458L314.278111 164.330872 314.278111 194.62833zM609.376235 739.9931730000001c-7.849678 42.966669-48.394988 75.742447-97.378777 75.742447-48.961604 0-89.51311-32.775778-97.380776-75.742447L116.55177 739.9931730000001l0-787.725922 790.893774 0 0 787.725922L609.376235 739.9931730000001zM446.091342 670.440529l0 17.613058 0 36.791056c0 33.410348 29.57295 60.594317 65.906116 60.594317 36.352353 0 65.907115-27.183969 65.907115-60.594317l0-36.791056 0-17.621053 16.672696-8.712493c32.358061-16.929922 57.169039-42.663874 71.406386-73.213161L358.043239 588.50688c14.240345 30.555683 39.051523 56.281241 71.408385 73.213161L446.091342 670.440529zM874.489888-17.436289999999985L149.505227-17.436289999999985 149.505227 709.694715 413.138884 709.694715l0-21.641327c-51.44492-26.923746-88.727643-74.124144-98.86377-129.845165l395.44289 0c-10.102151 55.730615-47.40466 102.921419-98.859773 129.845165l0 21.641327 263.631658 0L874.489888-17.436289999999985z" fill="currentColor" transform="scale(1,-1) translate(0,-768)"/>
</svg>
