<svg xmlns="http://www.w3.org/2000/svg"
     viewBox="0 -128 1024 1024"
     width="24" height="24">
  <path d="M796.3 600h-6.7c5.1 6.7 9.6 13.4 13.4 20.1 18.3 32.2 20.8 63.1 7 87.1-9.1 15.7-33 41.2-91.9 36-35.4-3.2-76.1-17.2-114.7-39.4-37.9-21.9-68.9-49.3-89-77.5-4.5 6.4-9.5 12.8-15.1 19.1-19.8 22.3-45.4 42.8-74.1 59.4-38.4 22.2-79.3 35.9-115.1 38.5-43.3 3.2-75.8-10-91.4-37-13.8-24-11.3-54.8 7-86.7 3.7-6.5 8.1-13 13.1-19.5H236c-21.3 0-41.6-7.2-57.4-20.2-17.8-14.9-27.6-35.4-27.6-58v-50.8c0-34.4 23-64.6 55-76.6v-283.9c0-23.3 10.9-47.1 30.1-65.3 18.3-17.4 41.4-27.3 63.4-27.3h434.3c22 0 44.9 10 63 27.6 18.7 18.1 29.3 41.8 29.3 65.1V395c11 4.3 19.6 10.9 27.2 19.5 13.3 15.1 20.8 35.2 20.8 56.6v50.8c-0.1 45.3-32.8 78.1-77.8 78.1z m17.7-78.1v-50.8c0-7.7-3.2-20.3-15-22-0.9 0.1-1.7 0.1-2.6 0.1-1.5 0-2.9-0.1-4.3-0.3H543v91h253.3c11.9 0.1 17.7-5.8 17.7-18zM633.4 651.8c30.7 17.7 63.5 29.2 90 31.6 21.5 1.9 32.6-2.8 34.6-6.3 4.2-7.3-6.3-41.2-52.9-77.2H569.8c14 17 35.3 35.6 63.6 51.9z m-362.8 24.4c2.2 3.7 13.3 8.7 35 7.1 26.6-1.9 59.2-13.1 89.5-30.6 27.7-16 49.4-35.1 63.9-52.8H323.5c-20.3 15.6-36.4 32.9-45.8 49.4-8.9 15.6-8.5 24.4-7.1 26.9zM211 521.9c0 11.2 12.9 18.1 24.9 18.1H483v-91H240.1c-1.4 0.2-2.8 0.3-4.3 0.3-0.9 0-1.8 0-2.7-0.1-11.5 1.5-22.1 11.6-22.1 22v50.7z m55-411.3V389h217v-311H299.4c-13.2 0-33.4 17.5-33.4 32.6zM733.7 78H543V389h223v-278.4c0-15.5-19.1-32.6-32.3-32.6z" fill="currentColor" transform="scale(1,-1) translate(0,-768)"/>
</svg>
