<svg xmlns="http://www.w3.org/2000/svg"
     viewBox="0 -128 1024 1024"
     width="24" height="24">
  <path d="M1328.72893437-13.274022189999982L1325.7954575 10.932401249999998 1319.19311938 40.27361905999999 1309.65730438 68.14729219000003 1296.45423969 96.75473719000001 1283.25117594 118.75984405999998 1264.91331781 140.03117906 1244.37414312 156.90310406000003 1215.76669813 173.03964562 1195.22913594 182.57546062999995 1168.08923563 189.17779874999997 1140.94772187 195.77852437 1117.47507031 204.58056750000003 1088.13546594 218.51740312000004 1064.66281438 229.52076375000001 1036.05536844 242.72382749999997 1014.0502625 255.19473187999995 1014.0502625 332.94718406000004 1023.58446406 343.95054469 1032.38811969 358.61954062999996 1038.98884531 373.29014906 1044.12363969 391.62800719 1049.992205 413.63472656 1052.19191 430.50504 1055.370515 429.77126719 1061.727725 430.75016813 1066.61900281 434.662545 1071.99731188 443.46458812 1075.42104594 453.7325625 1077.37723437 466.4469825 1079.82206656 489.43099031 1080.799355 508.991265 1079.82206656 525.61806187 1076.39833344 535.88764969 1069.55247969 539.80002656 1065.64010188 538.82112656 1069.06383594 560.82623344 1071.99731188 587.2339743800001 1072.97621281 611.19526969 1072.48595656 630.26689969 1069.55247969 647.870985 1064.17255719 664.98642656 1056.83805969 680.63432344 1046.56847188 698.24002125 1034.83295281 712.91063063 1021.13963187 724.15750594 1003.53554656 735.40438125 981.53043969 745.67396812 962.94745344 750.56363437 940.45370281 754.47601125 918.4469825 754.964655 895.95323188 751.05227812 874.43676969 743.71777969 855.36513875 735.893025 838.73834188 725.1347934400001 823.33396063 711.44308594 808.66335125 695.30493188 795.4602875 676.23330187 785.9244725 655.69573969 780.05751875 632.22308813 779.32374687 602.14809844 782.25722375 574.27442531 785.9244725 538.3324818799999 777.85620219 538.3324818799999 772.72140875 531.73014375 771.25547656 519.99462469 772.72140875 492.12095156 776.3886575 459.84625688 779.32374687 443.70810375 784.45854031 434.90606063 793.99435531 429.77126719 799.86130906 430.50504 803.53017031 404.83268344 807.19742 389.42830219 813.06598531 372.55637719000003 821.13425656 355.68606375 830.67007156 342.48299999999995 838.00456906 332.94718406000004 837.27079719 253.72718719 845.06329813 250.99690875 855.81346625 248.0392425 867.37158969 243.73981969 878.39107625 239.43878530999996 888.6058325 235.67638781000005 897.74331406 231.10603405999996 908.76441312 226.53729375 920.85956187 219.54952313 932.95471062 212.56014000000005 942.898535 205.30305094000005 955.80002656 195.62693156 966.82112656 185.41378874999998 977.30358781 172.51229719000003 988.32307531 158.26743750000003 1000.01505219 141.87125344000003 1010.0943425 122.51901655999995 1018.69641219 101.55409219 1026.22120719 82.20185436999998 1031.46243781 64.05913219000001 1035.09098281 45.110066250000045 1038.71952688 23.741970000000038 1041.13855625-1.2546703100000514 1041.54172812-18.187877810000032 1040.73538531-33.30681374999995 1037.30842625-44.99879062000002 1030.79156-57.83254968999995 1023.19742-66.36688593999997 1009.28799875-73.42238906 1298.65555719-73.42238906 1311.85862094-66.82005093999999 1322.12820875-56.552076560000046 1328.72893437-45.54871687000002 1330.19647906-31.611880309999947ZM443.23504906 789.36487031L427.10818437 771.62531906 412.59400625 750.66039469 402.11154406 728.08278469 395.66079781 702.27980156 394.854455 669.21972844 398.07982813 638.57868562 402.11154406 599.06786719 393.24176844 599.06786719 387.59736594 591.81077812 385.98467938 578.90928656 387.59736594 548.26824375 391.62908187 512.7891412500001 394.854455 495.04959 400.4988575 485.37347156 410.98131969 479.72906906 417.43206594 480.53541188 421.46378187 452.31339844 425.49549781 435.38019094 431.94624406 416.83429687 440.81601969 398.28840187 451.29848094 383.77422375000003 459.36191375 373.29176156000005 458.55557094 286.20669281000005 444.84773562 277.33691719 412.59400625 262.01639531 379.53393406 247.50221719 352.92460719 234.60072562000005 331.95968281 225.73095 308.57572906 218.47386094 284.3854325 213.63580125 261.00147875 207.99139875000003 236.81118125 197.50893656000005 214.23357031 186.22013156000003 194.07498969 171.70595344000003 171.49737969 149.12834250000003 155.370515 125.74438874999998 143.27536625 103.16677875000005 133.59924781 78.97648125 123.92312844 51.56081156000005 119.08506875 29.789544370000044 115.05335281 11.243650310000021 112.63432344-10.527616869999974 112.63432344-29.879854690000002 115.85969656-49.23209250000002 125.535815-62.133584059999976 140.04999313-71.80970344000002 158.59588719-73.42238906 965.74546437-73.42238906 980.2596425-66.1653 991.5484475-54.87649499999998 998.80553656-42.781346249999956 1000.41822312-27.46082531000002 998.80553656-7.302244689999952 995.58016438 19.30708218999996 988.32307531 51.56081156000005 977.84061313 82.20185436999998 963.326435 113.64924094000003 948.81225688 137.8395375 928.65367531 161.22349125000005 906.07606531 179.76938625000003 874.62867875 197.50893656000005 852.05106875 207.99139875000003 822.21636875 215.24848781000003 792.38166875 222.50557688000004 766.57868562 232.18169624999996 734.32495625 247.50221719 708.52197312 259.59736594000003 677.07458656 274.11154406 652.88429 287.81937937 652.88429 373.29176156000005 663.36675219 385.38691031 673.04287063 401.513775 680.29995969 417.64063969 685.94436219 437.79922031 692.39510844 461.98951781 694.81413781 480.53541188 698.30882938 479.72906906 705.2966 480.80473031 710.67168406 485.10415312 716.585405 494.78027156 720.3478025 506.06907656 722.49912688 520.04623031 725.18586219 545.31218906 726.26152437 566.8141378099999 725.18586219 585.09071344 721.42346469 596.3795184400001 713.89705719 600.68055375 709.59763438 599.6048915599999 713.36003188 623.79518906 716.585405 652.82354531 717.66106719 679.16516625 717.12242937 700.13008969 713.89705719 719.4823275 707.98494781 738.2959275000001 699.92151594 755.49845437 688.63271094 774.85069219 675.73121937 790.97755688 660.67840344 803.34202406 641.32616563 815.70487875 617.13586906 826.99368375 596.7095825 832.37038031 571.98064812 836.66980219 547.79035063 837.20844 523.06302875 832.90740469 499.40975656 824.84397281 478.44483313 816.24351562 460.16825656 804.4160728100001Z" fill="currentColor" transform="scale(1,-1) translate(0,-768)"/>
</svg>
