<svg xmlns="http://www.w3.org/2000/svg"
     viewBox="0 -128 1024 1024"
     width="24" height="24">
  <path d="M356.285031 2.1522690000000466L356.396571 2.1522690000000466 356.396571 285.236626 253.462201 285.236626 253.462201 2.1522690000000466ZM665.076886 285.236626l103.042841 0 0-283.08538-103.042841 0 0 283.08538ZM63.809793 301.950286c0-38.758746-3.195785-112.220874 5.457292-148.208507l65.735144 0c-10.112312 35.644825-7.747451 109.176538-7.747451 148.208507 0 219.937155 172.264389 398.231887 384.763131 398.231887 212.498742 0 384.763131-178.294732 384.763131-398.231887 0-39.031968 2.266623-112.563682-7.845689-148.208507l65.735144 0c8.653077 35.987632 5.555529 109.449761 5.555529 148.208507 0 256.20415-200.670346 463.898469-448.208115 463.898469C264.479115 765.848755 63.809793 558.1544349999999 63.809793 301.950286z" fill="currentColor" transform="scale(1,-1) translate(0,-768)"/>
</svg>
