<svg xmlns="http://www.w3.org/2000/svg"
     viewBox="0 -128 1024 1024"
     width="24" height="24">
  <path d="M824.084343-40.42033900000001H232.898863c-74.604138 0-85.85232 28.334325-85.852321 49.997718l-0.584307 5.314029V447.645552h48.806589v-402.916582c0-25.547863 13.548574-36.343743 37.629015-36.343743h568.020898c25.928532 0 27.978215 6.220678 27.978215 37.84391V447.585177l48.806589 0.118704c0.022513-14.346753 0-382.76666 0-433.098999 0-38.130436-12.726859-54.765301-51.858088-54.765301l-1.76111-0.25992zM1012.470921 493.103884C849.773422 615.120868 687.101505 737.137853 524.404006 859.153814c-6.207375 4.659113-18.433838 4.659113-24.641213 0C337.077573 737.137853 174.393377 615.120868 11.696902 493.103884c-24.856108-18.635429-0.572028-61.044308 24.642236-42.13361A15995638.709915 15995638.709915 0 0 1 512.025071 807.737794c0.988514-0.715291 1.644453-1.144056 2.823302-2.037403 18.040888-13.524015 36.057217-27.036773 54.073546-40.560788 58.291614-43.718711 116.583229-87.437421 174.874843-131.143852 81.33647-61.008492 162.696476-122.015961 244.033969-183.024454 25.212218-18.911722 49.496298 23.497157 24.64019 42.132587z" fill="currentColor" transform="scale(1,-1) translate(0,-768)"/>
</svg>
