<svg xmlns="http://www.w3.org/2000/svg"
     viewBox="0 -128 1024 1024"
     width="24" height="24">
  <path d="M740.32 314.46399999000005l221.2992 0c1.7088 15.3408 2.3808 31.0272 2.3808 47.0592 0 75.2064-20.1792 145.7472-55.4304 206.496 36.4416 96.8448 35.1552 179.0592-13.6512 228.1728-46.4064 46.1952-170.8992 38.7072-311.6352-23.616-10.4064 0.7872-20.928 1.1904-31.5264 1.1904-193.1712 0-355.2384-132.9408-400.032-312.0384 60.5952 77.5872 124.3392 133.824 209.5104 174.7968-7.7376-7.2576-52.9344-52.1664-60.5184-59.7696-224.5824-224.5056-295.392-517.7856-219.1872-594.0096 57.9264-57.9072 162.8928-48.1344 283.4688 10.9248 56.064-28.5504 119.5392-44.6592 186.7584-44.6592 181.056 0 334.5024 116.544 390.0864 278.8608l-223.008 0c-30.6816-56.6016-90.7008-95.136-159.5712-95.136s-128.8896 38.5344-159.5712 95.136c-13.632 25.5744-21.4848 54.8928-21.4848 85.92l0 0.672 362.112 0zM378.5344 423.25119999c5.1072 91.0464 80.8128 163.68 173.2224 163.68s168.096-72.6336 173.2224-163.68l-346.4448 0zM892.9024 750.43839999c31.4304-31.7568 30.6432-90.2016 3.7632-163.1424-46.0608 70.2336-112.992 125.568-192 157.1712 84.48 36.2304 153.1968 41.0304 188.2368 5.9904zM139.648-2.79680000999997c-40.1088 40.128-28.0128 124.32 23.6544 225.7728 32.16-90.2592 94.8288-166.0224 175.6224-214.8288-89.472-40.608-162.6816-47.5008-199.2768-10.944z" fill="currentColor" transform="scale(1,-1) translate(0,-768)"/>
</svg>
