<svg xmlns="http://www.w3.org/2000/svg"
     viewBox="0 -128 1024 1024"
     width="24" height="24">
  <path d="M821.235026 351.984884c-1.287001 129.729651 105.791442 191.891776 110.553344 194.980577-60.102924 88.030835-153.796561 100.12864-187.258574 101.54434-79.794032 7.979403-155.598362-46.975519-196.010178-46.975519-40.411816 0-102.831341 45.688518-168.983167 44.530218-86.872534-1.287001-167.052666-50.57912-211.840284-128.442651-90.347436-156.756662-23.166009-388.931554 64.864826-515.958505 42.985817-62.162125 94.337137-132.046252 161.647264-129.600951 64.864826 2.574001 89.317835 41.956217 167.696167 41.956217s100.38604-41.956217 169.111867-40.669216c69.755428 1.287001 114.028245 63.449125 156.756662 125.86865 49.42082 72.200729 69.755428 142.084856 70.913728 145.559758C957.14228 145.550002 822.522026 197.030023 821.235026 351.984884L821.235026 351.984884 821.235026 351.984884zM692.277575 732.550935c35.778614 43.371917 59.845524 103.474841 53.281821 163.449065-51.48002-2.059201-113.899545-34.234214-150.83646-77.477431C561.647023 780.041254 532.560811 718.78003 540.411514 660.092806 597.811737 655.588305 656.49896 689.307718 692.277575 732.550935L692.277575 732.550935 692.277575 732.550935z" fill="currentColor" transform="scale(1,-1) translate(0,-768)"/>
</svg>
