<svg xmlns="http://www.w3.org/2000/svg"
     viewBox="0 -128 1024 1024"
     width="24" height="24">
  <path d="M819.2 588.8c0-172.8-140.8-307.2-307.2-307.2-172.8 0-307.2 140.8-307.2 307.2C204.8 755.2 339.2 896 512 896S819.2 755.2 819.2 588.8L819.2 588.8zM512 838.4c-140.8 0-249.6-115.2-249.6-249.6 0-134.4 108.8-256 249.6-256s256 115.2 256 249.6S652.8 838.4 512 838.4L512 838.4zM480 300.79999999999995l64 0L544-128l-64 0L480 300.79999999999995 480 300.79999999999995zM512 192l192 0 0-64L512 128 512 192 512 192zM512 64l192 0 0-64L512 0 512 64 512 64z" fill="currentColor" transform="scale(1,-1) translate(0,-768)"/>
</svg>
