<svg xmlns="http://www.w3.org/2000/svg"
     viewBox="0 -128 1024 1024"
     width="24" height="24">
  <path d="M928.67 689.56H95.33A83.42 83.42 0 0 1 12 606.22v-444.44a83.42 83.42 0 0 1 83.33-83.33h833.34a83.42 83.42 0 0 1 83.33 83.33V606.22a83.42 83.42 0 0 1-83.33 83.34z m27.78-527.78A27.8 27.8 0 0 0 928.67 134H95.33a27.8 27.8 0 0 0-27.78 27.78V606.22A27.8 27.8 0 0 0 95.33 634h833.34a27.8 27.8 0 0 0 27.78-27.78zM845.33 272.89H178.67a27.78 27.78 0 0 1 0-55.56h666.66a27.78 27.78 0 0 1 0 55.56zM178.67 356.22H262a27.78 27.78 0 1 1 0 55.56h-83.33a27.78 27.78 0 0 1 0-55.56zM373.11 356.22h83.33a27.78 27.78 0 0 1 0 55.56h-83.33a27.78 27.78 0 0 1 0-55.56zM567.56 356.22h83.33a27.78 27.78 0 0 1 0 55.56h-83.33a27.78 27.78 0 0 1 0-55.56zM845.33 411.78H762a27.78 27.78 0 1 1 0-55.56h83.33a27.78 27.78 0 0 1 0 55.56zM178.67 495.11H262a27.78 27.78 0 1 1 0 55.56h-83.33a27.78 27.78 0 0 1 0-55.56zM373.11 495.11h83.33a27.78 27.78 0 0 1 0 55.56h-83.33a27.78 27.78 0 0 1 0-55.56zM567.56 495.11h83.33a27.78 27.78 0 0 1 0 55.56h-83.33a27.78 27.78 0 0 1 0-55.56zM845.33 550.6700000000001H762a27.78 27.78 0 1 1 0-55.56h83.33a27.78 27.78 0 0 1 0 55.56z" fill="currentColor" transform="scale(1,-1) translate(0,-768)"/>
</svg>
