<svg xmlns="http://www.w3.org/2000/svg"
     viewBox="0 -128 1024 1024"
     width="24" height="24">
  <path d="M186.888458 77.07363199999998l0 581.729108c14.85022-14.450107 35.050284-23.436782 57.359382-23.436782l560.03604 0 0-151.561881 25.029046 0 0 176.591951-585.065086 0c-31.191396 0-57.359382 26.166963-57.359382 57.359382 0 31.191396 26.165939 57.359382 57.359382 57.359382l572.551074 0L816.798914 800.143838 244.24784 800.143838c-45.431725 0-82.388429-36.957727-82.388429-82.388429l0-640.681778c0-41.796942 34.000372-75.789127 75.789127-75.789127l225.950102 0 0 25.029046L237.648538 26.31355099999996C209.661114 26.31355099999996 186.888458 49.078021000000035 186.888458 77.07363199999998zM236.947574 730.269421l560.38601 0 0-25.029046-560.38601 0 0 25.029046ZM686.086897 428.171012c-85.917812 0-164.908864-55.248302-194.553021-135.882783-30.013571-81.641415-4.269233-175.567621 62.624293-230.942813 67.00302-55.465243 164.474982-62.808488 238.931764-17.720593 74.094532 44.868907 113.272833 133.533272 96.080266 218.517829C869.882923 357.47283300000004 783.297916 428.171012 686.086897 428.171012zM686.086897 38.82858599999997c-75.595722 0-145.060817 48.634674-171.092703 119.595842-26.354228 71.839165-3.63069 154.438395 55.287187 203.074092 59.017138 48.718585 144.762011 55.029314 210.191186 15.237029 65.11195-39.59888 99.396801-117.681236 84.064604-192.408171C847.384513 100.72940100000005 771.387655 38.82858599999997 686.086897 38.82858599999997zM698.600909 152.23547199999996L698.600909 311.02496499999995 673.571862 311.02496499999995 673.571862 152.28459099999998 604.675726 221.17254100000002 586.978668 203.47548400000005 686.111456 104.35190499999999 785.185916 203.42738799999995 767.489882 221.123422Z" fill="currentColor" transform="scale(1,-1) translate(0,-768)"/>
</svg>
