<svg xmlns="http://www.w3.org/2000/svg"
     viewBox="0 -128 1024 1024"
     width="24" height="24">
  <path d="M958.830745 538.643056L740.659817 692.753993l-100.539834 0-3.977591-9.332553c-0.37146-0.871857-38.021965-86.8613-124.772748-88.667435-35.691897 0.76441-67.206658 15.500019-93.680613 43.828204-20.658506 22.106484-30.374798 44.584428-30.456662 44.776809l-3.955078 9.393951-100.587929 0L64.518433 538.643056 169.320337 379.756349l89.956801 65.019853-19.016099-368.05254 268.86654 0 4.093225 0 269.866311 0-19.016099 368.051517 89.956801-65.018829L958.830745 538.643056zM730.105437 507.20402l20.655436-399.781172-237.540068 0-4.093225 0L272.587282 107.42284700000005l20.656459 399.781172-115.938546-83.797521-36.3243 55.070246 159.440315 111.641683-19.276019 30.638811L121.066333 508.667348l-14.548344 22.056342 185.921433 131.330094 71.077825 0c5.332449-10.04375 15.433504-26.779923 30.951943-43.580564 32.047904-34.69622 72.256674-53.486168 116.345822-54.411237l0-0.031722c0.203638 0.00307 0.406253 0.01228 0.60989 0.016373 0.203638-0.00307 0.406253-0.013303 0.60989-0.016373l0 0.031722c44.073798 0.925069 84.359316 19.703761 116.566856 54.379515 15.623839 16.821107 25.814945 33.579793 31.188326 43.612287l71.120804 0 185.921433-131.330094-14.548344-22.056342L742.203986 620.7551920000001l-19.276019-30.638811 159.440315-111.641683-36.3243-55.070246L730.105437 507.20402z" fill="currentColor" transform="scale(1,-1) translate(0,-768)"/>
</svg>
