<svg xmlns="http://www.w3.org/2000/svg"
     viewBox="0 -128 1024 1024"
     width="24" height="24">
  <path d="M914.7359263333336 663.0359498888887c-20.806884999999987 20.806885000000012-48.471967999999976 32.265868000000026-77.89816099999994 32.265868000000054l-352.221993 2.2737367544323206e-13-120.26099099999992 95.03035300000005-11.157106999999995 8.816806000000007-14.220886 9.769962616701378e-15L197.09333633333344 799.148976888889c-51.69538300000001 2.1316282072803006e-14-93.75224400000005-42.88778599999995-93.75224400000006-95.60442799999993l-1.5631940186722204e-13-255.13888799999998c-1.7763568394002505e-15-2.302439 0.08391099999999785-4.716417999999999 0.24968699999999489-7.196911999999999l-1.9895196601282805e-13-340.692403c-1.9539925233402755e-14-29.426192999999998 11.458982999999954-57.09127599999999 32.26586799999994-77.89816100000002 20.806884999999987-20.806885000000012 48.471967999999976-32.265868000000026 77.89816099999994-32.265868000000054l623.083981-3.410605131648481e-13c29.426192999999998-1.9539925233402755e-14 57.09127599999999 11.458982999999954 77.89816100000002 32.26586799999994 20.806885000000012 20.806884999999987 32.265868000000026 48.471967999999976 32.265868000000054 77.89816099999994L947.0028173333335 585.1377888888885C947.0017943333336 614.5639818888885 935.5428113333334 642.2280418888886 914.7359263333336 663.0359498888887zM197.09333633333372 758.2167298888891l141.88345099999998-8.526512829121202e-14L470.3948853333333 654.369569888889l366.44287999999995-2.2737367544323206e-13c38.236859-2.1316282072803006e-14 69.23178099999997-30.99492100000004 69.23178099999994-69.23178100000004L906.0695463333333 465.9195468888886 144.27334033333327 465.91954688888893 144.2733403333336 703.5445488888892C144.2733403333336 733.7361748888891 167.92296933333355 758.2167298888891 197.09333633333372 758.2167298888891zM836.8377653333331 31.28558888888881L213.75480733333322 31.28558888888915c-38.236859 2.1316282072803006e-14-69.23178099999997 30.99492100000004-69.23178099999994 69.23178100000004L144.52302633333338 424.4776928888892l761.546519-6.252776074688882e-13-2.2737367544323206e-13-323.96134599999993C906.0695463333333 62.28050988888867 875.0746243333334 31.285588888888583 836.8377653333331 31.28558888888881z" fill="currentColor" transform="scale(1,-1) translate(0,-768)"/>
</svg>
