<svg xmlns="http://www.w3.org/2000/svg"
     viewBox="0 -128 1024 1024"
     width="24" height="24">
  <path d="M917.213-103.239h-810.426c-23.151 0-41.918 18.766-41.918 41.917l0 698.644c0 23.148 18.767 41.917 41.918 41.917h810.426c23.149 0 41.918-18.769 41.918-41.917v-698.643c0-23.151-18.769-41.918-41.918-41.918zM316.38-61.321h600.833v363.294h-600.833v-363.294zM106.787-61.321h167.674v363.294h-167.674v-363.294zM148.705 637.322c-23.151 0-41.918-18.769-41.918-41.92s18.767-41.92 41.918-41.92 41.92 18.768 41.92 41.92-18.769 41.92-41.92 41.92zM274.461 637.322c-23.151 0-41.918-18.769-41.918-41.92s18.767-41.92 41.918-41.92c23.151 0 41.92 18.768 41.92 41.92s-18.77 41.92-41.92 41.92zM400.216 637.322c-23.15 0-41.918-18.769-41.918-41.92s18.769-41.92 41.918-41.92c23.152 0 41.92 18.768 41.92 41.92s-18.768 41.92-41.92 41.92zM875.293 511.566h-768.506v-167.675h810.426l0 167.675h-41.921z" fill="currentColor" transform="scale(1,-1) translate(0,-768)"/>
</svg>
