<svg xmlns="http://www.w3.org/2000/svg"
     viewBox="0 -128 1024 1024"
     width="24" height="24">
  <path d="M512 72c-172.313 0-312 139.687-312 312s139.687 312 312 312 312-139.687 312-312-139.687-312-312-312z m0 64c136.967 0 248 111.033 248 248 0 136.967-111.033 248-248 248-136.967 0-248-111.033-248-248 0-136.967 111.033-248 248-248z m0 696c17.673 0 32-14.327 32-32v-51c0-17.673-14.327-32-32-32-17.673 0-32 14.327-32 32V800c0 17.673 14.327 32 32 32z m0-785c17.673 0 32-14.327 32-32v-51c0-17.673-14.327-32-32-32-17.673 0-32 14.327-32 32v51c0 17.673 14.327 32 32 32z m325.945 11.055c-12.497-12.496-32.758-12.496-45.255 0l-36.063 36.063c-12.496 12.497-12.496 32.758 0 45.255 12.497 12.496 32.758 12.496 45.255 0l36.063-36.063c12.496-12.497 12.496-32.758 0-45.255z m-568 565c-12.497-12.496-32.758-12.496-45.255 0l-36.063 36.063c-12.496 12.497-12.496 32.758 0 45.255 12.497 12.496 32.758 12.496 45.255 0l36.063-36.063c12.496-12.497 12.496-32.758 0-45.255z m561 81.318c12.496-12.497 12.496-32.758 0-45.255l-36.063-36.063c-12.497-12.496-32.758-12.496-45.255 0-12.496 12.497-12.496 32.758 0 45.255l36.063 36.063c12.497 12.496 32.758 12.496 45.255 0z m-563.572-565c12.496-12.497 12.496-32.758 0-45.255l-36.063-36.063c-12.497-12.496-32.758-12.496-45.255 0-12.496 12.497-12.496 32.758 0 45.255l36.063 36.063c12.497 12.496 32.758 12.496 45.255 0zM960 384c0-17.673-14.327-32-32-32h-51c-17.673 0-32 14.327-32 32 0 17.673 14.327 32 32 32h51c17.673 0 32-14.327 32-32z m-781 0c0-17.673-14.327-32-32-32H96c-17.673 0-32 14.327-32 32 0 17.673 14.327 32 32 32h51c17.673 0 32-14.327 32-32z" fill="currentColor" transform="scale(1,-1) translate(0,-768)"/>
</svg>
