<svg xmlns="http://www.w3.org/2000/svg"
     viewBox="0 -128 1024 1024"
     width="24" height="24">
  <path d="M262.4-121.60000000000002c-64 0-128 25.6-179.2 76.8-102.4 102.4-102.4 262.4 0 364.8l134.4 134.4 89.6-89.6-134.4-134.4c-51.2-51.2-51.2-128 0-179.2 51.2-51.2 128-51.2 179.2 0l179.2 179.2c25.6 25.6 38.4 57.6 38.4 89.6S556.8 384 537.6 409.6L467.2 473.6l89.6 89.6 70.4-70.4C672 448 697.6 384 697.6 313.6c0-70.4-25.6-134.4-76.8-179.2l-179.2-179.2C396.8-96 326.4-121.60000000000002 262.4-121.60000000000002zM467.2 204.79999999999995L396.8 268.79999999999995c-102.4 102.4-102.4 262.4 0 364.8l179.2 179.2c102.4 102.4 262.4 102.4 364.8 0 102.4-102.4 102.4-262.4 0-364.8l-134.4-134.4-89.6 89.6 134.4 134.4c51.2 51.2 51.2 128 0 179.2-51.2 51.2-134.4 51.2-179.2 0L486.4 544c-51.2-51.2-51.2-128 0-179.2l70.4-70.4L467.2 204.79999999999995z" fill="currentColor" transform="scale(1,-1) translate(0,-768)"/>
</svg>
