<svg xmlns="http://www.w3.org/2000/svg"
     viewBox="0 -128 1024 1024"
     width="24" height="24">
  <path d="M618.04471 733.97072l-397.175835 0c-16.927531 0-30.699186-13.771655-30.699186-30.699186l0-638.543068c0-16.927531 13.771655-30.699186 30.699186-30.699186l582.261227 0c16.927531 0 30.699186 13.771655 30.699186 30.699186l-0.726547 476.760404L618.04471 733.97072zM803.771715 541.488871 619.537713 541.488871 619.537713 705.552483 803.771715 541.488871zM813.363164 64.728466c0-5.64251-4.590552-10.233062-10.233062-10.233062l-582.261227 0c-5.64251 0-10.233062 4.590552-10.233062 10.233062l0 638.543068c0 5.64251 4.590552 10.233062 10.233062 10.233062l378.202715 0 0-192.481849 214.291574 0L813.363164 64.728466zM298.129516 482.495268l55.258535 0 0-55.258535-55.258535 0 0 55.258535ZM399.777591 468.168981l323.364759 0 0-26.605961-323.364759 0 0 26.605961ZM298.129516 342.044446l55.258535 0 0-55.258535-55.258535 0 0 55.258535ZM399.777591 327.718159l323.364759 0 0-26.605961-323.364759 0 0 26.605961ZM298.129516 199.804884l55.258535 0 0-55.258535-55.258535 0 0 55.258535ZM399.777591 185.478598l323.364759 0 0-26.605961-323.364759 0 0 26.605961ZM881.315812 53.053566" fill="currentColor" transform="scale(1,-1) translate(0,-768)"/>
</svg>
