<svg xmlns="http://www.w3.org/2000/svg"
     viewBox="0 -128 1024 1024"
     width="24" height="24">
  <path d="M511.999488 756.654348m-70.608128 0a69 69 0 1 1 141.216255 0 69 69 0 1 1-141.216255 0ZM236.047576 639.997442m-68.561515 0a67 67 0 1 1 137.123031 0 67 67 0 1 1-137.123031 0ZM125.530506 382.12428m-62.421678 0a61 61 0 1 1 124.843356 0 61 61 0 1 1-124.843356 0ZM227.861126 100.71507499999996m-54.235229 0a53 53 0 1 1 108.470457 0 53 53 0 1 1-108.470457 0ZM514.166851-16.84438799999998m-47.192835 0a46.118 46.118 0 1 1 94.385671 0 46.118 46.118 0 1 1-94.385671 0ZM804.730553 91.450061m-33.834596 0a33.064 33.064 0 1 1 67.669192 0 33.064 33.064 0 1 1-67.669192 0ZM935.55411 383.395226m-23.969924 0a23.424 23.424 0 1 1 47.939849 0 23.424 23.424 0 1 1-47.939849 0ZM856.723717 634.80007m-17.135262 0a16.745 16.745 0 1 1 34.270525 0 16.745 16.745 0 1 1-34.270525 0Z" fill="currentColor" transform="scale(1,-1) translate(0,-768)"/>
</svg>
