<svg xmlns="http://www.w3.org/2000/svg"
     viewBox="0 -128 1024 1024"
     width="24" height="24">
  <path d="M451.673935-98.39569900000004C478.883834-129.01914699999998 524.254807-128.8089789999999 551.400292-97.92885100000001 553.755808-95.38790800000004 558.821323-89.79676199999994 565.872444-81.84834999999998 577.572838-68.65901699999995 590.597131-53.62432000000001 604.615947-36.99831500000005 644.662065 10.495494000000008 684.708678 61.282182000000034 722.129538 113.35355300000003 759.658524 165.575381 792.492213 216.29072599999995 819.314991 264.54153799999995 868.685946 353.35368300000005 896 430.456574 896 493.714285 896 715.890551 719.301715 896 501.333333 896 283.364952 896 106.666667 715.890551 106.666667 493.714285 106.666667 430.401284 134.05152 353.19426999999996 183.54613 264.23737800000004 210.371803 216.02347099999997 243.193308 165.34812399999998 280.699364 113.16684599999996 318.155192 61.05544999999995 358.239268 10.22578999999996 398.322835-37.31103099999996 412.354743-53.95207300000004 425.391185-69.00072999999998 437.102468-82.20257900000001 444.160087-90.15846599999998 449.230214-95.75492099999997 451.982775-98.73670600000003L451.673935-98.39569900000004ZM486.822684-65.32134799999994C484.281231-62.568254000000024 479.425084-57.207989 472.585916-49.49835900000005 461.135889-36.591016999999965 448.364015-21.84776099999999 434.602351-5.527214999999956 395.275714 41.11192700000004 355.949587 90.98045200000001 319.289224 141.985137 282.808749 192.739548 250.983685 241.87642200000005 225.158316 288.29247799999996 179.388826 370.55419500000005 154.50505 440.709839 154.50505 493.714285 154.50505 688.960095 309.785362 847.238095 501.333333 847.238095 692.881306 847.238095 848.161617 688.960095 848.161617 493.714285 848.161617 440.753978 823.345286 370.701737 777.693969 288.58074899999997 751.873483 242.13293399999998 720.038415 192.96007499999996 683.537446 142.16873799999996 646.912604 91.20503299999996 607.624538 41.38032599999997 568.335977-5.21503800000005 554.587654-21.52024300000005 541.828177-36.24924999999996 530.389289-49.14379699999995 523.556841-56.84571100000005 518.705521-62.20043499999997 516.166694-64.95052599999997 507.543772-74.74891100000002 495.255793-74.80583000000001 487.131524-65.66235300000005L486.822684-65.32134799999994ZM714.955981 428.971194C723.919106 453.372045 728.565658 479.331002 728.565658 505.904762 728.565658 627.091817 632.184774 725.333333 513.29293 725.333333 394.401086 725.333333 298.020202 627.091817 298.020202 505.904762 298.020202 384.717709 394.401086 286.47619 513.29293 286.47619 549.003859 286.47619 583.510052 295.36805300000003 614.373097 312.125591 626.032316 318.456132 630.449257 333.22218 624.238611 345.10648100000003 618.027966 356.99078199999997 603.541579 361.49299399999995 591.882359 355.16245100000003 567.900883 342.14136099999996 541.111735 335.23809500000004 513.29293 335.23809500000004 420.821495 335.23809500000004 345.858586 411.648164 345.858586 505.904762 345.858586 600.161359 420.821495 676.571428 513.29293 676.571428 605.764365 676.571428 680.727273 600.161359 680.727273 505.904762 680.727273 485.192019 677.117041 465.022684 670.154965 446.069408 665.522846 433.459117 671.796821 419.408892 684.168282 414.687349 696.53974 409.965809 710.323861 416.360905 714.955981 428.971194L714.955981 428.971194Z" fill="currentColor" transform="scale(1,-1) translate(0,-768)"/>
</svg>
