<svg xmlns="http://www.w3.org/2000/svg"
     viewBox="0 -128 1024 1024"
     width="24" height="24">
  <path d="M828.01742 700.357158C743.476979 784.899646 631.076002 831.458031 511.516999 831.458031c-119.55798 0-231.959979-46.558385-316.500421-131.09985C110.47716 615.81774 63.918775 503.41574 63.918775 383.85776c0-87.103824 25.045419-171.548074 72.429613-244.204861 9.393951-14.402011 28.685319-18.46249 43.087331-9.071609 14.404058 9.393951 18.46556 28.685319 9.072633 43.089377-40.768519 62.511729-62.317301 135.194098-62.317301 210.187093 0 212.469066 172.85586 385.326972 385.325949 385.326972s385.325949-172.857906 385.325949-385.326972-172.85586-385.326972-385.325949-385.326972c-70.357418 0-139.188062 19.131733-199.052498 55.323003-14.71412 8.900717-33.856086 4.180206-42.753733-10.534937-8.896624-14.71719-4.180206-33.856086 10.534937-42.753733 69.584821-42.070164 149.556201-64.307631 231.271294-64.307631 119.559003 0 231.959979 46.558385 316.500421 131.09985 84.539418 84.539418 131.097804 196.941418 131.097804 316.499397S912.556838 615.81774 828.01742 700.357158zM494.28964 690.216193c-21.782096 0-39.397289-17.658172-39.397289-39.439244l0-283.524378c0-1.360997 0.358157-2.706645 0.493234-4.03285 2.020006-19.886933 18.959817-34.573423 39.379892-34.573423l0 0 0.146333 0.832971 223.590358 0c21.782096 0 39.438221 17.616216 39.438221 39.397289s-17.658172 39.397289-39.439244 39.397289L533.686928 408.273846l0 242.503103C533.686928 672.5580219999999 516.071735 690.216193 494.28964 690.216193z" fill="currentColor" transform="scale(1,-1) translate(0,-768)"/>
</svg>
