<svg xmlns="http://www.w3.org/2000/svg"
     viewBox="0 -128 1024 1024"
     width="24" height="24">
  <path d="M411.270737 288.350316c-17.973895 7.504842-41.189053-0.229053-52.264421-17.542737-11.223579-17.394526-5.955368-38.103579 11.870316-46.201263 18.108632-8.232421 42.132211-0.417684 53.342316 17.421474C435.253895 260.05557899999997 429.446737 280.62989500000003 411.270737 288.350316zM455.545263 306.64757899999995c-6.885053 2.721684-15.508211-0.579368-19.550316-7.329684-3.920842-6.790737-1.751579-14.524632 5.146947-17.367579 7.019789-2.883368 16.006737 0.458105 20.048842 7.370105C465.071158 296.259368 462.551579 304.087579 455.545263 306.64757899999995zM427.52 426.684632c-115.968-11.439158-203.924211-82.216421-196.378947-158.073263 7.531789-75.910737 107.654737-128.161684 223.649684-116.749474 115.994947 11.439158 203.924211 82.216421 196.392421 158.140632C643.664842 385.859368 543.541895 438.110316 427.52 426.684632zM529.300211 247.70021099999997c-23.673263-53.355789-91.769263-81.798737-149.530947-63.232-55.754105 17.933474-79.373474 72.811789-54.945684 122.246737 23.956211 48.464842 86.352842 75.870316 141.541053 61.561263C523.506526 353.562947 552.663579 299.85684200000003 529.300211 247.70021099999997zM512 896C229.241263 896 0 666.772211 0 384c0-282.758737 229.241263-512 512-512 282.772211 0 512 229.241263 512 512C1024 666.772211 794.772211 896 512 896zM455.531789 101.02568399999996c-145.354105 0-293.941895 70.197895-293.941895 185.667368 0 60.362105 38.386526 130.182737 104.474947 196.069053 88.252632 87.929263 191.164632 127.986526 229.874526 89.397895 17.084632-17.003789 18.741895-46.457263 7.760842-81.623579-5.726316-17.690947 16.666947-7.895579 16.666947-7.936 71.343158 29.763368 133.564632 31.514947 156.321684-0.862316 12.139789-17.246316 10.954105-41.472-0.215579-69.510737-5.173895-12.921263 1.589895-14.928842 11.466105-17.879579 40.178526-12.422737 84.924632-42.455579 84.924632-95.380211C772.837053 211.36168399999997 646.090105 101.02568399999996 455.531789 101.02568399999996zM718.672842 468.197053c4.715789 14.457263 1.765053 30.962526-9.202526 43.061895-10.954105 12.072421-27.136 16.666947-42.037895 13.527579l0 0.026947c-12.463158-2.694737-24.724211 5.268211-27.392 17.664-2.667789 12.463158 5.281684 24.697263 17.744842 27.338105 30.531368 6.467368 63.595789-2.937263 85.989053-27.715368 22.447158-24.764632 28.456421-58.489263 18.849684-88.064-3.907368-12.099368-16.936421-18.728421-29.062737-14.848-12.139789 3.920842-18.782316 16.922947-14.874947 28.995368L718.672842 468.183579zM853.261474 424.865684c-0.013474-0.013474-0.013474-0.080842-0.013474-0.107789-4.567579-14.026105-19.712-21.706105-33.778526-17.165474-14.133895 4.554105-21.854316 19.590737-17.300211 33.670737l0 0.013474c13.999158 43.169684 5.12 92.429474-27.567158 128.565895-32.714105 36.122947-80.949895 49.92-125.507368 40.488421-14.484211-3.085474-28.752842 6.130526-31.838316 20.574316-3.098947 14.403368 6.144 28.631579 20.641684 31.717053l0.026947 0c62.625684 13.271579 130.519579-6.117053 176.545684-56.966737C860.483368 554.886737 872.892632 485.618526 853.261474 424.865684z" fill="currentColor" transform="scale(1,-1) translate(0,-768)"/>
</svg>
