<svg xmlns="http://www.w3.org/2000/svg"
     viewBox="0 -128 1024 1024"
     width="24" height="24">
  <path d="M512 896C229.227789 896 0 666.772211 0 384c0-282.745263 229.227789-512 512-512s512 229.254737 512 512C1024 666.772211 794.772211 896 512 896L512 896zM738.856421 258.93726300000003c0 0-16.208842-44.220632-45.945263-83.941053 0 0 53.126737-18.054737 48.64-64.983579 0 0 1.778526-52.345263-113.461895-48.734316 0 0-81.071158 6.319158-105.377684 40.609684l-21.423158 0c-24.306526-34.304-105.350737-40.609684-105.350737-40.609684-115.280842-3.610947-113.475368 48.734316-113.475368 48.734316-4.500211 46.928842 48.626526 64.983579 48.626526 64.983579-29.709474 39.720421-45.918316 83.941053-45.918316 83.941053-72.057263-116.439579-64.848842 16.249263-64.848842 16.249263 13.527579 78.524632 70.238316 129.967158 70.238316 129.967158-8.111158 71.316211 21.611789 83.941053 21.611789 83.941053C318.410105 709.712842 508.025263 705.859368 512 705.751579c3.988211 0.107789 193.576421 3.961263 199.828211-216.643368 0 0 29.709474-12.638316 21.611789-83.941053 0 0 56.737684-51.442526 70.238316-129.967158l0 0C803.678316 275.18652599999996 810.873263 142.49768400000005 738.856421 258.93726300000003L738.856421 258.93726300000003zM738.856421 258.93726300000003" fill="currentColor" transform="scale(1,-1) translate(0,-768)"/>
</svg>
