<svg xmlns="http://www.w3.org/2000/svg"
     viewBox="0 -128 1024 1024"
     width="24" height="24">
  <path d="M512 832a32 32 0 0 1-32-32v-416a32 32 0 0 1 64 0V800a32 32 0 0 1-32 32zM683.34 798.06a32 32 0 0 1-24.48-59.15C798.07 681.24 896 544.06 896 384c0-212.08-171.92-384-384-384S128 171.91999999999996 128 384c0 160.06 97.93 297.24 237.14 354.91a32 32 0 0 1-24.48 59.15C178.25 730.78 64 570.74 64 384c0-247.42 200.58-448 448-448s448 200.58 448 448c0 186.74-114.25 346.78-276.66 414.06z" fill="currentColor" transform="scale(1,-1) translate(0,-768)"/>
</svg>
