<svg xmlns="http://www.w3.org/2000/svg"
     viewBox="0 -128 1024 1024"
     width="24" height="24">
  <path d="M889.6 800h-240s-35.2 0-38.4-41.6c0-19.2 16-38.4 38.4-38.4h140.8l-179.2-179.2C556.8 582.4 489.6 608 416 608 240 608 96 464 96 288s144-320 320-320 320 144 320 320c0 73.6-25.6 140.8-67.2 195.2l179.2 179.2v-140.8c0-22.4 19.2-38.4 38.4-38.4 22.4 0 38.4 19.2 38.4 41.6V764.8h3.2C924.8 800 889.6 800 889.6 800zM416 48c-131.2 0-236.8 105.6-236.8 236.8 0 131.2 105.6 236.8 236.8 236.8s236.8-105.6 236.8-236.8c0-131.2-105.6-236.8-236.8-236.8z" fill="currentColor" transform="scale(1,-1) translate(0,-768)"/>
</svg>
