<svg xmlns="http://www.w3.org/2000/svg"
     viewBox="0 -128 1024 1024"
     width="24" height="24">
  <path d="M512 256c115.2 0 208 92.8 208 208V624c0 115.2-92.8 208-208 208s-208-92.8-208-208v-160c0-115.2 92.8-208 208-208zM368 624c0 80 64 144 144 144s144-64 144-144v-160c0-80-64-144-144-144s-144 64-144 144V624zM844.8 416c0 17.6-14.4 32-32 32-16 0-30.4-12.8-32-28.8C758.4 289.6 646.4 192 512 192s-246.4 97.6-268.8 227.2c-1.6 16-16 28.8-32 28.8-17.6 0-32-14.4-32-32v-4.8C204.8 260.79999999999995 328 144 480 129.60000000000002V-32c0-17.6 14.4-32 32-32s32 14.4 32 32V129.60000000000002c152 14.4 275.2 131.2 299.2 280 0 1.6 1.6 4.8 1.6 6.4z" fill="currentColor" transform="scale(1,-1) translate(0,-768)"/>
</svg>
