<svg xmlns="http://www.w3.org/2000/svg"
     viewBox="0 -128 1024 1024"
     width="24" height="24">
  <path d="M511.998465 623.681848c40.525995 0 73.386404 35.771715 73.386404 79.892585s-32.860409 79.892585-73.386404 79.892585c-40.524972 0-73.384357-35.771715-73.384357-79.892585S471.47247 623.681848 511.998465 623.681848L511.998465 623.681848zM511.998465 463.893608c-40.524972 0-73.384357-35.772738-73.384357-79.893608 0-44.12087 32.859385-79.892585 73.384357-79.892585 40.525995 0 73.386404 35.772738 73.386404 79.892585C585.384869 428.12087 552.52446 463.893608 511.998465 463.893608L511.998465 463.893608zM511.998465 144.320199c-40.524972 0-73.384357-35.733852-73.384357-79.894631 0-44.119847 32.859385-79.893608 73.384357-79.893608 40.525995 0 73.386404 35.772738 73.386404 79.893608C585.383846 108.58634600000005 552.52446 144.320199 511.998465 144.320199L511.998465 144.320199z" fill="currentColor" transform="scale(1,-1) translate(0,-768)"/>
</svg>
