<svg xmlns="http://www.w3.org/2000/svg"
     viewBox="0 -128 1024 1024"
     width="24" height="24">
  <path d="M575.4 832h-74.5v-633.5C385 251.20000000000005 249.3 180.70000000000005 226.8 76c-7.3-34.1 7.9-70.9 21.9-87.8 79.3-94.6 252.2-50.5 331.6 51.3 35.2 45.2 32.3 84.6 32.3 181.3V608.5c48.8-36.3 103.9-70.1 123.7-135 12.2-40.3-4.1-107.3-17-141.5-3.9-10.3-14.7-18.9-9.7-29.2 34.2-25.4 51.1 28.6 60.9 51.2 10.6 24.5 20.8 54.7 24.4 75.6C833.2 653.2 595.5 661.7 575.4 832z" fill="currentColor" transform="scale(1,-1) translate(0,-768)"/>
</svg>
