<svg xmlns="http://www.w3.org/2000/svg"
     viewBox="0 -128 1024 1024"
     width="24" height="24">
  <path d="M739 294.4l180.2 180.2M735.391 297.9l180.24 180.24 7.07-7.07-180.239-180.24zM631.4-29.700000000000045c-5.1 0-10.1 1.3-14.5 3.7L277.1 162.20000000000005H116.8c-16 0-28.9 13-28.9 28.9v384c0 16 13 28.9 28.9 28.9h160.3l339.7 189.9c4.5 2.5 9.5 3.8 14.6 3.8 5.3 0 10.6-1.4 15.1-4.1 9.1-5.3 14.8-15.2 14.8-25.8v-767.6c0-10.5-5.6-20.4-14.7-25.8-4.6-2.7-9.9-4.1-15.2-4.1zM305.8 551.5v-336.7L601.4 51V716.8L305.8 551.5zM145.7 220.10000000000002h102.2v326H145.7v-326zM913.2 258.9c-9.3 0-18.1 3.6-24.7 10.3l-63.4 63.4-63.4-63.4c-6.6-6.6-15.4-10.3-24.7-10.3s-18.1 3.6-24.7 10.3c-13.6 13.6-13.6 35.9 0 49.5l63.4 63.4-67.4 67.4c-6.6 6.6-10.3 15.4-10.3 24.7 0 9.3 3.6 18.1 10.3 24.7 6.6 6.6 15.4 10.3 24.7 10.3s18.1-3.6 24.7-10.3l67.4-67.4 67.4 67.4c6.6 6.6 15.4 10.3 24.7 10.3s18.1-3.6 24.7-10.3c6.6-6.6 10.3-15.4 10.3-24.7 0-9.3-3.6-18.1-10.3-24.7L874.6 382l63.4-63.4c13.6-13.6 13.6-35.9 0-49.5-6.7-6.6-15.5-10.2-24.8-10.2z" fill="currentColor" transform="scale(1,-1) translate(0,-768)"/>
</svg>
