<svg xmlns="http://www.w3.org/2000/svg"
     viewBox="0 -128 1024 1024"
     width="24" height="24">
  <path d="M948.066926 382.958838l-411.990051-412.24426c-18.47333-18.47333-48.417689-18.47333-66.875207 0-18.47333 18.461167-18.47333 48.405526 0 66.875207L814.691135 383.088983 467.512212 730.269123c-18.466032 18.458735-18.466032 48.405526 0 66.873991 18.468465 18.464816 48.410391 18.464816 66.872774 0l38.682336-38.682336-0.261507-0.239614 375.259894-375.265975v0.003649m-378.312834 0L157.756743-29.28542200000004c-18.47333-18.47333-48.415256-18.47333-66.872775 0-18.47333 18.461167-18.47333 48.405526 0 66.875207L436.369787 383.088983 89.19208 730.269123c-18.4636 18.458735-18.4636 48.405526 0 66.873991 18.470898 18.464816 48.415256 18.464816 66.872774 0l38.692067-38.682336-0.266372-0.239614 375.267191-375.265975-0.004865 0.003649m0 0z" fill="currentColor" transform="scale(1,-1) translate(0,-768)"/>
</svg>
