<svg xmlns="http://www.w3.org/2000/svg"
     viewBox="0 -128 1024 1024"
     width="24" height="24">
  <path d="M987.2 384.36L512.43 859.13a84.75 84.75 0 0 1-65 24.71L111.55 864.09a84.83 84.83 0 0 1-79.65-79.65L12.15 448.57a84.57 84.57 0 0 1 24.69-65l474.8-474.8a84.91 84.91 0 0 1 119.93 0L987.2 264.41999999999996a84.9 84.9 0 0 1 0 119.94z m-39.28-80.66L592.29-51.91999999999996a29.31 29.31 0 0 0-41.37 0L76.1 422.9a29.22 29.22 0 0 0-8.49 22.38l19.74 335.88a29.29 29.29 0 0 0 27.48 27.48l335.9 19.75a29.32 29.32 0 0 0 22.38-8.52l474.8-474.8a29.31 29.31 0 0 0 0.01-41.37zM236.86 659.14c-50.92-50.95-50.92-133.8 0-184.72a130.61 130.61 0 1 1 184.71 184.72c-50.89 50.86-133.77 50.86-184.71 0zM382.29 513.7c-28.38-28.38-77.78-28.38-106.15 0a75.08 75.08 0 1 0 106.15 0z" fill="currentColor" transform="scale(1,-1) translate(0,-768)"/>
</svg>
