<svg xmlns="http://www.w3.org/2000/svg"
     viewBox="0 -128 1024 1024"
     width="24" height="24">
  <path d="M516.152065-63.152063c-60.696384 0-119.594819 11.894911-175.056991 35.353183-53.55473 22.651906-101.646028 55.073316-142.936433 96.364745-41.291428 41.291428-73.712839 89.381703-96.363721 142.936433-23.458271 55.462173-35.353183 114.359584-35.353183 175.055968s11.894911 119.594819 35.353183 175.056991c22.651906 53.55473 55.073316 101.646028 96.363721 142.936433 41.290405 41.291428 89.381703 73.712839 142.936433 96.363721 55.462173 23.458271 114.359584 35.353183 175.056991 35.353183s119.594819-11.894911 175.056991-35.353183c53.55473-22.651906 101.645005-55.073316 142.936433-96.363721 41.291428-41.290405 73.711815-89.38068 96.363721-142.936433 23.459295-55.462173 35.353183-114.359584 35.353183-175.056991 0-60.696384-11.893888-119.593795-35.353183-175.055968-22.651906-53.55473-55.072293-101.645005-96.363721-142.936433s-89.381703-73.712839-142.936433-96.364745C635.747907-51.25715200000002 576.849472-63.152063 516.152065-63.152063zM516.152065 774.870222c-214.115566 0-388.311956-174.196391-388.311956-388.311956s174.196391-388.311956 388.311956-388.311956 388.311956 174.196391 388.311956 388.311956S730.268654 774.870222 516.152065 774.870222zM434.74908 132.830517L209.49278 358.08784 289.087583 437.68162 434.74908 292.020122 743.218594 600.488613 822.812373 520.89381Z" fill="currentColor" transform="scale(1,-1) translate(0,-768)"/>
</svg>
