<svg xmlns="http://www.w3.org/2000/svg"
     viewBox="0 -128 1024 1024"
     width="24" height="24">
  <path d="M519.2 343.29999999999995c-41.1 0-74.4-33.3-74.4-74.4 0-29.7 17.5-55 42.5-67.1v-81.9c0-17.6 14.3-31.9 31.9-31.9 17.6 0 31.9 14.3 31.9 31.9v81.9c25.1 12 42.5 37.4 42.5 66.9 0 41.3-33.2 74.6-74.4 74.6zM827.6-62.10000000000002H189.4c-35.9 0-65.1 29.2-65.1 65.1V428.4c0 35.9 29.2 65.1 65.1 65.1h638.2c17.3 0 33.7-6.7 46-19.1 12.3-12.3 19.1-28.7 19.1-46V3c0-35.9-29.2-65.1-65.1-65.1zM231.9 427.2c-34.8 0-41.3-6.6-41.3-41.3v-340.4c0-34.8 6.6-41.3 41.3-41.3h553.2c34.8 0 41.3 6.6 41.3 41.3V385.9c0 34.8-6.6 41.3-41.3 41.3H231.9zM519.2 86.70000000000005c-18.3 0-33.2 14.8-33.2 33.2V201c-26.3 12.8-42.6 38.8-42.6 67.8 0 41.8 33.9 75.7 75.7 75.7s75.7-33.9 75.7-75.7c0-29-16.3-55-42.5-67.8v-81.1c0.1-18.2-14.9-33.2-33.1-33.2zM519.2 342c-40.4 0-73.2-32.9-73.2-73.2 0-28.3 16.1-53.6 41.9-65.8l0.7-0.4V120c0-17 13.7-30.7 30.7-30.7S550 103.10000000000002 550 120v82.6l0.7 0.4c25.8 12.3 41.9 37.5 41.9 65.8-0.2 40.4-33.1 73.2-73.4 73.2zM207 523.1c-9.1 0-17.6 3.5-23.9 10-6.4 6.4-10 15-10 23.9v2h-0.2l0.2 1.4c0.1 0.5 0.1 0.9 0.2 1.4l0.2 1c0.1 0.6 0.2 1.4 0.4 2 15.3 75.7 57 144.2 117.2 193 29.9 24.2 63.4 43 99.8 56 37.5 13.3 77 20.2 117.5 20.2 61 0 120.8-16.3 173-47.2 50.6-29.9 93-72.8 122.5-123.8 4-5.6 6.1-12.2 6.1-19.2 0-18.3-15-33.3-33.3-33.3-13.2 0-25.1 7.7-30.4 19.8-49.2 84.6-140.4 137.4-238 137.4-128.1 0-238.2-87.1-267.6-211.8v-0.2c-0.7-18.4-15.4-32.6-33.7-32.6z" fill="currentColor" transform="scale(1,-1) translate(0,-768)"/>
</svg>
