<svg xmlns="http://www.w3.org/2000/svg"
     viewBox="0 -128 1024 1024"
     width="24" height="24">
  <path d="M512-128c-282.714 0-511.893 229.232-511.893 512 0 282.768 229.179 512 511.893 512 282.714 0 511.893-229.232 511.893-512 0-282.768-229.179-512-511.893-512zM512 863.996c-265.043 0-479.9-214.91-479.9-479.996 0-265.097 214.857-479.996 479.9-479.996 265.043 0 479.9 214.899 479.9 479.996 0 265.086-214.857 479.996-479.9 479.996zM639.973 181.32299999999998h-21.329c-23.558 0-42.658 19.1-42.658 42.658v319.933c0 23.558 19.1 42.658 42.658 42.658h21.329c23.558 0 42.658-19.1 42.658-42.658v-319.933c0-23.558-19.1-42.658-42.658-42.658zM405.356 181.32299999999998h-21.329c-23.558 0-42.658 19.1-42.658 42.658v319.933c0 23.558 19.1 42.658 42.658 42.658h21.329c23.558 0 42.658-19.1 42.658-42.658v-319.933c0-23.558-19.1-42.658-42.658-42.658z" fill="currentColor" transform="scale(1,-1) translate(0,-768)"/>
</svg>
