<svg xmlns="http://www.w3.org/2000/svg"
     viewBox="0 -128 1024 1024"
     width="24" height="24">
  <path d="M958.648085 84.30682933333333L65.772494 84.30682933333333 65.772494 721.9115253333333l892.87559 0L958.648085 84.30682933333333zM97.660762 116.20328333333339l829.099055 0L926.759817 690.0570263333334 97.660762 690.0570263333334 97.660762 116.20328333333339zM648.731616 419.05893933333334l-1.991354 0c-47.801702 0-86.696548 38.900985-86.696548 86.695524l0 1.978051c0 47.809889 38.894845 86.671988 86.696548 86.671988l1.991354 0c47.801702 0 86.698594-38.862099 86.698594-86.671988l0-1.978051C735.43021 457.95992433333333 696.533318 419.05893933333334 648.731616 419.05893933333334zM646.740262 562.5193053333333c-30.224372 0-54.810327-24.582885-54.810327-54.787814l0-1.978051c0-30.230512 24.584931-54.803163 54.810327-54.803163l1.991354 0c30.222325 0 54.810327 24.572652 54.810327 54.803163l0 1.978051c0 30.203906-24.586978 54.787814-54.810327 54.787814L646.740262 562.5193053333333zM91.097276 181.7900473333334l-22.748097 22.338774 274.373974 279.332916 22.750143-22.351054L91.097276 181.7900473333334zM604.886015 215.92242633333342L339.999113 480.74793033333333l22.548552 22.525016L627.433544 238.4638153333334 604.886015 215.92242633333342zM619.007641 202.70744933333333l-22.763446 22.337751 167.989015 171.035398 22.765493-22.350031L619.007641 202.70744933333333zM925.622924 222.7939273333334L758.534418 389.8343373333333l22.548552 22.529109 167.086459-167.044504L925.622924 222.7939273333334z" fill="currentColor" transform="scale(1,-1) translate(0,-768)"/>
</svg>
