<svg xmlns="http://www.w3.org/2000/svg"
     viewBox="0 -128 1024 1024"
     width="24" height="24">
  <path d="M765.376 615.424c0 0 103.04 1.024 103.04-100.992 0 0 9.536-98.752-103.04-100.928 0 0-100.864-2.176-99.84 100.928C665.536 514.496 664.448 605.8879999999999 765.376 615.424ZM968.32 770.56c0 0 54.208-4.224 54.208-52.032l0-712.832c0 0-3.2-51.008-54.208-52.096L968.32 770.56ZM1.472 5.631999999999948c0 0 2.176-52.096 52.096-52.096L968.32-46.464000000000055l0 150.848-99.712 0-203.072 206.144-153.024-153.984L304.32 413.568l-205.056-307.072-45.632-1.024L52.48 718.4639999999999 1.472 718.4639999999999 1.472 5.631999999999948ZM968.32 770.56L53.568 770.56c0 0-52.096 1.088-52.096-52.032L968.32 718.528 968.32 770.56Z" fill="currentColor" transform="scale(1,-1) translate(0,-768)"/>
</svg>
