<svg xmlns="http://www.w3.org/2000/svg"
     viewBox="0 -128 1024 1024"
     width="24" height="24">
  <path d="M512 896C229.376 896 0 666.624 0 384 0 101.37599999999998 229.376-128 512-128 794.624-128 1024 101.37599999999998 1024 384 1024 666.624 794.624 896 512 896L512 896 512 896zM512-95.23199999999997C245.76-95.23199999999997 32.768 117.75999999999999 32.768 384 32.768 650.24 245.76 863.232 512 863.232S991.232 650.24 991.232 384C991.232 117.75999999999999 778.24-95.23199999999997 512-95.23199999999997L512-95.23199999999997 512-95.23199999999997zM733.184 392.192L393.216 588.8c-4.096 4.096-8.192 4.096-12.288 0C376.832 588.8 372.736 584.704 372.736 580.608l0-393.216c0-4.096 4.096-8.192 4.096-8.192 4.096-4.096 8.192-4.096 12.288 0l344.064 196.608c4.096 4.096 4.096 4.096 4.096 8.192C741.376 388.096 737.28 392.192 733.184 392.192L733.184 392.192 733.184 392.192zM733.184 392.192" fill="currentColor" transform="scale(1,-1) translate(0,-768)"/>
</svg>
