<svg xmlns="http://www.w3.org/2000/svg"
     viewBox="0 -128 1024 1024"
     width="24" height="24">
  <path d="M860.8 595.2h-297.6l6.4 67.2 9.6 118.4c3.2 16-6.4 32-22.4 35.2-9.6 3.2-22.4 0-28.8-9.6l-147.2-188.8-19.2-25.6h-192c-6.4 0-12.8-3.2-19.2-6.4-19.2-9.6-28.8-28.8-28.8-48v-342.4c0-9.6 3.2-22.4 9.6-28.8 9.6-19.2 28.8-28.8 48-25.6h537.6c12.8 0 22.4 3.2 32 9.6 25.6 12.8 44.8 35.2 48 64l102.4 336 57.6-12.8-57.6 12.8c3.2 9.6 0 22.4-3.2 32-9.6 6.4-22.4 12.8-35.2 12.8l6.4 57.6-6.4-57.6z m-233.6 57.6h240c28.8 0 57.6-12.8 76.8-38.4 16-22.4 19.2-54.4 12.8-80l-102.4-339.2c-16-64-70.4-108.8-137.6-112H179.2c-41.6-3.2-80 19.2-99.2 54.4-9.6 19.2-16 38.4-16 57.6V537.6c0 41.6 22.4 80 57.6 99.2 19.2 9.6 38.4 12.8 57.6 16h144L480 848c32 35.2 89.6 38.4 124.8 6.4 19.2-19.2 32-44.8 28.8-73.6l-6.4-128z m-323.2-512h57.6V592H304v-451.2z" fill="currentColor" transform="scale(1,-1) translate(0,-768)"/>
</svg>
