<svg xmlns="http://www.w3.org/2000/svg"
     viewBox="0 -128 1024 1024"
     width="24" height="24">
  <path d="M62.573 384.103l423.401 423.662c18.985 18.985 49.757 18.985 68.727 0 18.982-18.972 18.985-49.746 0-68.729l-355.058-355.067 356.796-356.796c18.977-18.971 18.976-49.746 0-68.727-18.982-18.976-49.751-18.976-68.727 0l-39.753 39.753 0.269 0.246-385.655 385.661zM451.365 384.103l423.407 423.662c18.985 18.985 49.757 18.985 68.727 0 18.982-18.972 18.985-49.746 0-68.729l-355.058-355.067 356.796-356.796c18.977-18.971 18.976-49.746 0-68.727-18.982-18.976-49.757-18.977-68.727 0l-39.762 39.754 0.273 0.249-385.662 385.661zM451.365 384.103z" fill="currentColor" transform="scale(1,-1) translate(0,-768)"/>
</svg>
