<svg xmlns="http://www.w3.org/2000/svg"
     viewBox="0 -128 1024 1024"
     width="24" height="24">
  <path d="M508.638018 827.97307c-246.403458 0-446.845649-200.463469-446.845649-446.845649 0-246.382179 200.442191-446.845649 446.845649-446.845649 246.382179 0 446.845649 200.463469 446.845649 446.845649C955.483667 627.5096 755.041476 827.97307 508.638018 827.97307zM508.638018-23.16149900000005c-222.933422 0-404.28892 181.355498-404.28892 404.28892 0 222.933422 181.355498 404.28892 404.28892 404.28892 222.912144 0 404.28892-181.355498 404.28892-404.28892C912.926939 158.19399899999996 731.57144-23.16149900000005 508.638018-23.16149900000005zM252.87208 485.1999c8.639016 26.129831-32.470784 37.215859-41.067243 11.32009-27.810822-83.730363-22.321004-168.545923 14.086277-248.573851 11.362646-24.938243 48.025268-3.298146 36.747735 21.491148C230.976644 339.081373 228.806251 412.853462 252.87208 485.1999zM599.262572 247.73335499999996l-127.627629 133.394065 127.47868 133.223838c9.043305 9.064583 9.022026 23.789211-0.021278 32.832516-8.809243 8.830521-24.087108 8.766686-32.832516 0l-148.310199-148.310199c-4.617405-4.638683-6.979303-11.064749-6.553736-17.746156-0.404289-6.702685 1.936331-13.107472 6.575015-17.788712l148.310199-148.28892c4.383343-4.383343 10.213615-6.787798 16.405619-6.787798 6.170726 0 12.000997 2.404455 16.405619 6.787798C608.156928 224.114371 608.156928 238.83899899999994 599.262572 247.73335499999996z" fill="currentColor" transform="scale(1,-1) translate(0,-768)"/>
</svg>
