<svg xmlns="http://www.w3.org/2000/svg"
     viewBox="0 -128 1024 1024"
     width="24" height="24">
  <path d="M843.946667 603.733333h-47.36V725.333333a90.026667 90.026667 0 0 1-94.72 85.333334H312.32a81.493333 81.493333 0 0 1-85.333333-85.333334v-121.6H170.666667a81.493333 81.493333 0 0 1-85.333334-85.333333v-325.12a89.173333 89.173333 0 0 1 85.333334-93.866667h56.746666v-52.48a89.6 89.6 0 0 1 89.6-89.6h389.973334a89.6 89.6 0 0 1 89.6 89.6v52.48h47.36a97.706667 97.706667 0 0 1 94.72 93.866667V518.4a90.026667 90.026667 0 0 1-94.72 85.333333zM279.466667 725.333333a30.72 30.72 0 0 0 32.853333 33.706667h389.546667c18.773333 0 42.666667-11.52 42.666666-33.706667v-121.6H279.466667z m465.066666-678.4a37.546667 37.546667 0 0 0-37.546666-37.973333H317.013333a37.546667 37.546667 0 0 0-37.546666 37.973333v170.666667a37.546667 37.546667 0 0 0 37.546666 38.4h389.973334a37.546667 37.546667 0 0 0 37.546666-37.973333z m142.506667 146.346667a45.653333 45.653333 0 0 0-42.666667-42.666667h-47.786666v66.133334a89.6 89.6 0 0 1-89.6 89.6H317.013333a89.6 89.6 0 0 1-89.6-89.6v-65.28H170.666667a37.546667 37.546667 0 0 0-33.28 42.666666v324.266667A31.146667 31.146667 0 0 0 170.666667 552.106667h673.28c19.2 0 42.666667-11.52 42.666666-33.706667z m-640 281.173333h-37.546667a13.226667 13.226667 0 0 0 0 26.026667h38.826667a13.226667 13.226667 0 1 0 0-26.026667z m94.293333 0H298.666667a13.226667 13.226667 0 1 0 0 26.026667h42.666666a13.226667 13.226667 0 0 0 0-26.026667z m426.666667-116.48H248.32a13.226667 13.226667 0 0 0 0 26.026667H768a13.226667 13.226667 0 0 0 0-26.026667z" fill="currentColor" transform="scale(1,-1) translate(0,-768)"/>
</svg>
