<svg xmlns="http://www.w3.org/2000/svg"
     viewBox="0 -128 1024 1024"
     width="24" height="24">
  <path d="M335.282306 712.495464C399.587328 713.451107 442.778899 696.882717 470.183494 669.3706540000001 479.127332 660.39174 485.691302 650.857363 490.241971 641.442689 492.795622 636.159553 494.049041 632.438701 494.358795 631.0740940000001L493.723712 636.7409230000001 493.723706 196.90019600000005C493.723706 199.018106 495.816045 203.920655 503.591595 207.36436700000002 511.039185 210.66283299999998 515.68422 209.16527399999995 517.176538 207.906613L500.671543 188.33763 521.297207 203.50146800000005C514.140179 213.23636899999997 499.631258 225.71450900000002 476.134074 237.35914000000002 439.577969 255.475456 390.86048 266.10507900000005 328.491925 266.10508200000004 265.860796 266.10508200000004 219.424582 255.71817999999996 186.827162 237.741581 164.977332 225.69198700000004 152.538132 212.28117299999997 147.220271 201.30886999999996L170.257196 190.14374199999997 151.035786 207.05224299999998C152.884078 209.15336100000002 158.307299 211.80336599999998 167.849005 208.050434 177.092077 204.41496099999995 179.2 199.20011699999998 179.2 196.66445199999998L179.2 497.049743 179.2 636.7409230000001 175.817447 624.023021C177.078908 626.226721 180.088681 630.807811 184.828724 636.965629 192.95423 647.521524 202.792594 658.127492 214.297641 668.007961 247.526453 696.544681 287.381649 713.209056 334.514421 712.495571L335.282306 712.495464ZM335.289387 763.689705C274.661039 764.607483 223.081402 743.04085 180.940156 706.850184 156.32698 685.712527 139.975514 664.470237 131.382553 649.4588249999999L128 643.549699 128 636.7409230000001 128 497.049743 128 196.66445199999998C128 159.26104999999995 164.542545 144.88818300000003 189.478606 173.23524099999997L191.776657 175.84764199999995 193.294121 178.978613C194.07832 180.59664399999997 199.156367 186.07133399999998 211.552092 192.907243 236.030601 206.40648099999999 274.024879 214.905082 328.491925 214.905082 383.221547 214.905079 424.163878 205.97190999999998 453.399258 191.483569 469.376966 183.56540600000005 477.614626 176.48075300000005 480.045882 173.17379000000005L481.844905 170.72677999999996 484.166551 168.768644C511.279708 145.90070000000003 544.923706 160.801293 544.923706 196.90019600000005L544.923712 636.740922 544.288627 642.407751C540.427211 659.419023 529.175531 682.697124 506.45814 705.503602 468.987716 743.1209699999999 412.352271 764.846461 334.521502 763.689812L335.289387 763.689705ZM0 506.026694L0 27.856867999999963C0-8.875636999999983 34.793167-23.40043300000002 61.4635 1.2485080000000153L63.46242 3.315859000000046C65.301149 5.444836000000009 69.655573 9.862312999999972 76.498228 15.820363000000043 88.306297 26.101906999999983 102.566352 36.46294 119.251411 46.17438500000003 167.295691 74.13829099999998 224.90855 90.95018200000004 292.337329 90.95018200000004 358.378978 90.95018000000005 409.459345 71.66956600000003 448.125308 39.64774 461.506042 28.56627400000002 472.380655 16.734758000000056 480.912593 4.997000999999955 485.832384-1.7713730000000396 488.762874-6.741985999999997 489.872527-9.02252199999998 496.058545-21.73590200000001 511.379537-27.027375000000006 524.092917-20.84135500000002 536.806298-14.655337000000031 542.097771 0.6656550000000152 535.91175 13.379036000000042 527.471002 30.726293000000055 509.777717 55.06771800000001 480.782336 79.08069999999998 433.134118 118.54132300000003 370.586889 142.15017999999998 292.337329 142.15018199999997 215.474895 142.15018499999996 149.074727 122.77408400000002 93.495781 90.424668 59.761154 70.78961500000003 36.872315 50.859801999999945 24.713677 36.78188399999999L44.088049 20.048869999999965 26.712598 38.84923500000002C28.162783 40.189508000000046 32.877261 41.946117999999956 40.792576 38.64178100000004 49.035365 35.200736000000006 51.2 30.12989200000004 51.2 27.856867999999963L51.2 506.026694C51.2 520.165184 39.73849 531.626694 25.6 531.626694 11.46151 531.626694 0 520.165184 0 506.026694L0 506.026694ZM696.80221 763.689812C618.971441 764.846461 562.335996 743.1209699999999 524.86557 705.503602 502.148181 682.697124 490.896501 659.419023 487.035083 642.407751L486.4 636.740922 486.400004 196.90019600000005C486.400006 160.801293 520.044004 145.90070000000003 547.157161 168.768644L549.478807 170.72677999999996 551.27783 173.17379000000005C553.709086 176.48075300000005 561.946746 183.56540600000005 577.924452 191.483569 607.159834 205.97190999999998 648.102165 214.905079 702.831787 214.905082 757.298833 214.905082 795.293111 206.40648099999999 819.77162 192.907243 832.167345 186.07133399999998 837.245391 180.59664399999997 838.029591 178.978613L839.547055 175.84764199999995 841.845105 173.23524099999997C866.781167 144.88818300000003 903.323712 159.26104999999995 903.323712 196.66445199999998L903.323712 497.049743 903.323712 636.7409230000001 903.323712 643.549699 899.941158 649.4588249999999C891.348196 664.470237 874.996732 685.712527 850.383556 706.850184 808.24231 743.04085 756.662673 764.607483 696.034325 763.689705L696.80221 763.689812ZM696.809291 712.495571C743.942063 713.209056 783.797257 696.544681 817.026071 668.007961 828.531119 658.127492 838.369481 647.521524 846.494989 636.965629 851.235031 630.807811 854.244804 626.226721 855.506263 624.023021L852.123712 636.7409230000001 852.123712 497.049743 852.123712 196.66445199999998C852.123712 199.20011699999998 854.231635 204.41496099999995 863.474707 208.050434 873.016412 211.80336599999998 878.439633 209.15336100000002 880.287925 207.05224299999998L861.066515 190.14374199999997 884.103441 201.30886999999996C878.785579 212.28117299999997 866.346381 225.69198700000004 844.49655 237.741581 811.89913 255.71817999999996 765.462916 266.10508200000004 702.831785 266.10508200000004 640.463232 266.10507900000005 591.745741 255.475456 555.189638 237.35914000000002 531.692454 225.71450900000002 517.183533 213.23636899999997 510.026502 203.50146800000005L530.652166 188.33763 514.147172 207.906613C515.63949 209.16527399999995 520.284527 210.66283299999998 527.732117 207.36436700000002 535.507665 203.920655 537.600004 199.018106 537.600004 196.90019600000005L537.6 636.7409230000001 536.964917 631.0740940000001C537.274671 632.438701 538.52809 636.159553 541.081741 641.442689 545.63241 650.857363 552.196378 660.39174 561.140218 669.3706540000001 588.544813 696.882717 631.736384 713.451107 696.041406 712.495464L696.809291 712.495571ZM972.799998 506.026694L972.799998 27.856867999999963C972.799998 30.12989200000004 974.964631 35.200736000000006 983.207422 38.64178100000004 991.122737 41.946117999999956 995.837214 40.189508000000046 997.287401 38.84923500000002L979.911949 20.048869999999965 999.286321 36.78188399999999C987.127682 50.859801999999945 964.238844 70.78961500000003 930.504218 90.424668 874.925269 122.77408400000002 808.525103 142.15018499999996 731.662669 142.15018199999997 653.132708 142.15017999999998 590.55104 117.26282200000003 543.127755 75.73800100000005 514.370099 50.55719499999998 496.945662 25.10259599999995 488.705389 7.022771000000034 482.841769-5.842485000000011 488.517717-21.02524200000005 501.382974-26.888862000000017 514.248233-32.752481999999986 529.430987-27.07653300000004 535.294607-14.211275 536.420563-11.740835999999945 539.350332-6.450639000000024 544.25735 0.7178109999999833 552.731727 13.097653000000037 563.54464 25.561581000000047 576.856734 37.21792900000003 615.190044 70.78337499999998 665.901421 90.95018000000005 731.662669 90.95018200000004 799.091447 90.95018200000004 856.704307 74.13829099999998 904.748587 46.17438500000003 921.433645 36.46294 935.6937 26.101906999999983 947.501771 15.820363000000043 954.344425 9.862312999999972 958.698848 5.444836000000009 960.537577 3.315859000000046L962.536497 1.2485080000000153C989.206831-23.40043300000002 1023.999998-8.875636999999983 1023.999998 27.856867999999963L1023.999998 506.026694C1023.999998 520.165184 1012.538487 531.626694 998.399998 531.626694 984.261508 531.626694 972.799998 520.165184 972.799998 506.026694L972.799998 506.026694Z" fill="currentColor" transform="scale(1,-1) translate(0,-768)"/>
</svg>
