<svg xmlns="http://www.w3.org/2000/svg"
     viewBox="0 -128 1024 1024"
     width="24" height="24">
  <path d="M512-65.5c-60.6 0-119.4 11.9-174.8 35.3-53.5 22.6-101.5 55-142.7 96.2-41.2 41.2-73.6 89.2-96.2 142.7C74.9 264.1 63 322.9 63 383.5s11.9 119.4 35.3 174.8c22.6 53.5 55 101.5 96.2 142.7 41.2 41.2 89.2 73.6 142.7 96.2C392.6 820.6 451.4 832.5 512 832.5s119.4-11.9 174.8-35.3c53.5-22.6 101.5-55 142.7-96.2 41.2-41.2 73.6-89.2 96.2-142.7 23.4-55.4 35.3-114.2 35.3-174.8s-11.9-119.4-35.3-174.8c-22.6-53.5-55-101.5-96.2-142.7s-89.2-73.6-142.7-96.2c-55.4-23.4-114.2-35.3-174.8-35.3z m0 848c-220 0-399-179-399-399s179-399 399-399 399 179 399 399-179 399-399 399zM772 359H252c-13.8 0-25 11.2-25 25s11.2 25 25 25h520c13.8 0 25-11.2 25-25s-11.2-25-25-25z" fill="currentColor" transform="scale(1,-1) translate(0,-768)"/>
</svg>
