<svg xmlns="http://www.w3.org/2000/svg"
     viewBox="0 -128 1024 1024"
     width="24" height="24">
  <path d="M820.376904 697.14807C740.637816 774.519228 631.884926 822.157201 511.999488 822.157201c-244.621347 0-442.925808-198.305485-442.925808-442.926832 0-244.6193 198.304462-442.925808 442.925808-442.925808 206.075449 0 379.271046 140.739395 428.740738 331.337337L822.859445 267.64189899999997c-45.759183-127.45381-167.656441-218.623229-310.859957-218.623229-182.371584 0-330.210677 147.842163-330.210677 330.210677 0 182.371584 147.840116 330.2117 330.210677 330.2117 88.762603 0 169.32443-35.035958 228.655723-92.015693L557.051567 433.822732l280.641725 0 113.880677 0 3.351328 0L954.925297 831.695438 820.376904 697.14807z" fill="currentColor" transform="scale(1,-1) translate(0,-768)"/>
</svg>
