<svg xmlns="http://www.w3.org/2000/svg"
     viewBox="0 -128 1024 1024"
     width="24" height="24">
  <path d="M928 810.666667c-18.133333 0-32-13.866667-32-32v-164.266667C816 747.733333 669.866667 832 512 832 264.533333 832 64 631.4666669999999 64 384s200.533333-448 448-448c230.4 0 422.4 172.8 445.866667 402.133333 2.133333 17.066667-10.666667 33.066667-28.8 35.2-17.066667 2.133333-33.066667-10.666667-35.2-28.8C873.6 148.26666699999998 709.333333 0 512 0c-212.266667 0-384 171.733333-384 384s171.733333 384 384 384c137.6 0 264.533333-74.666667 332.8-192H693.333333c-18.133333 0-32-13.866667-32-32s13.866667-32 32-32h266.666667V778.666667c0 18.133333-14.933333 32-32 32z" fill="currentColor" transform="scale(1,-1) translate(0,-768)"/>
</svg>
