<svg xmlns="http://www.w3.org/2000/svg"
     viewBox="0 -128 1024 1024"
     width="24" height="24">
  <path d="M990.78144 828.5388800000001c-3.35872 1.59744-7.04512 2.37568-11.01824 2.37568-14.45888 0-27.60704-10.81344-27.40224-10.81344-8.8064-4.42368-880.59904-443.22816-911.44192-459.44832-17.408-9.13408-27.36128-24.73984-25.92768-40.71424 1.10592-13.14816 9.78944-23.51104 23.10144-27.77088 26.17344-8.27392 290.24256-91.58656 290.24256-91.58656l4.83328-1.47456 16.67072 50.05312-254.32064 79.54432 780.73856 406.28224c-82.82112-93.88032-420.53632-476.32384-436.10112-493.93664-20.11136-22.48704-29.4912-45.09696-29.40928-70.98368l0.28672-153.27232-0.08192 0c0 0 0.08192-53.49376 0.08192-53.6576l0-1.96608 0 0c1.18784-13.5168 12.73856-24.24832 26.54208-24.24832s25.51808 10.73152 26.74688 24.24832l0 0c0 0 0.53248 191.03744 0 205.08672-0.49152 12.4928 5.07904 26.54208 10.69056 33.05472 5.65248 6.38976 390.63552 442.61376 465.75616 527.81056-21.38112-106.41408-126.68928-629.76-128.24576-637.41952-0.8192-4.05504-2.58048-4.05504-3.35872-4.05504-0.6144 0-1.31072 0.12288-2.048 0.36864-7.45472 2.37568-268.82048 81.55136-279.92064 84.91008l-4.7104 1.4336-17.16224-50.50368 5.07904-1.59744c2.58048-0.77824 258.90816-79.09376 284.38528-86.46656 5.07904-1.47456 10.24-2.2528 15.44192-2.2528 26.99264 0 49.5616 19.37408 54.8864 46.98112 2.08896 10.93632 27.0336 134.67648 55.9104 277.99552 39.77216 197.14048 84.7872 420.61824 85.93408 427.6224l0.6144 3.31776C1009.70496 798.96576 1013.26848 817.9712 990.78144 828.5388800000001z" fill="currentColor" transform="scale(1,-1) translate(0,-768)"/>
</svg>
