<svg xmlns="http://www.w3.org/2000/svg"
     viewBox="0 -128 1024 1024"
     width="24" height="24">
  <path d="M927.858848 417.938973L168.863431 417.938973l308.721247 308.86758c11.685133 11.69025 11.435447 30.881334-0.557702 42.868343-11.992125 11.985986-31.18321 12.226462-42.868343 0.536212L75.199191 411.071565c-1.994424-1.662873-3.773953-3.583618-5.294586-5.713119-4.047176-5.373381-6.013971-11.839653-5.9055-18.328437-0.12996-7.794523 2.725064-15.561417 8.595772-21.432125l361.565802-361.744881c11.685133-11.691273 30.876218-11.449773 42.868343 0.535189 11.993149 11.985986 12.242835 31.17707 0.557702 42.868343L168.441828 356.54571799999997l759.417019 0c16.527418 0 29.925566 13.738909 29.925566 30.694069S944.386266 417.938973 927.858848 417.938973z" fill="currentColor" transform="scale(1,-1) translate(0,-768)"/>
</svg>
