<svg xmlns="http://www.w3.org/2000/svg"
     viewBox="0 -128 1024 1024"
     width="24" height="24">
  <path d="M511.998465 896C229.23338 896 0.004605 666.769178 0.004605 384.001023c0-282.773272 229.227752-512.001023 511.99386-512.001023 282.769178 0 511.994883 229.227752 511.994883 512.001023C1023.994372 666.769178 794.767644 896 511.998465 896zM511.998465-91.59690499999999c-262.660188 0-475.589742 212.930577-475.589742 475.597929 0 262.663258 212.929554 475.594859 475.589742 475.594859 262.663258 0 475.590765-212.9316 475.590765-475.594859C987.590254 121.33469500000001 774.662747-91.59690499999999 511.998465-91.59690499999999zM738.742652 301.137781L544.432155 301.137781l0 69.780273 194.310497 0c17.835204 0 32.249495 14.43885 32.249495 32.220842 0 17.784038-14.414291 32.19526-32.249495 32.19526L589.7462 435.334155l149.620669 209.579249c8.916067 15.397688 3.63069 35.099403-11.82021 43.988864-15.398712 8.891508-35.097356 3.629667-44.017516-11.793604L512.187777 437.098335 340.84334 677.108664c-8.864902 15.423271-28.617781 20.685111-44.016493 11.793604-15.395642-8.889461-20.685111-28.590152-11.82021-43.988864l149.622716-209.579249L285.628808 435.334155c-17.781992 0-32.245402-14.411221-32.245402-32.19526 0-17.781992 14.46341-32.220842 32.245402-32.220842l194.310497 0 0-69.780273L285.628808 301.137781c-17.781992 0-32.245402-14.413268-32.245402-32.19526s14.46341-32.220842 32.245402-32.220842l194.310497 0 0-132.435265c0-17.780969 14.46341-32.19526 32.248472-32.19526 17.835204 0 32.245402 14.414291 32.245402 32.19526L544.433178 236.72065499999997l194.310497 0c17.835204 0 32.249495 14.43885 32.249495 32.220842S756.577856 301.137781 738.742652 301.137781" fill="currentColor" transform="scale(1,-1) translate(0,-768)"/>
</svg>
