<svg xmlns="http://www.w3.org/2000/svg"
     viewBox="0 -128 1024 1024"
     width="24" height="24">
  <path d="M719.9 292.06666666L514.7 422.16666666V527.76666666C615.6 461.66666666 731.5 386.66666666 731.5 386.66666666s139.2-45.6 139.2 106.5c0 93-172.5 112.1-197.2 11.8l-69.6 47.3s24.2 101.5 162.4 106.5c138.2 4.9 192-94.6 190.9-199.6-1.2-104.7-136-198.3-237.3-167.1zM561 456.66666666c-4-19-23-33.7-47.6-33.7l-6.9 4.3-217.3 137.8S171 597.86666666 160.8 481.66666666c-10.2-116.1 147.4-129.5 186.8-23.8l81.7-47.6s-65.1-119.1-198.5-119.1C97.3 291.16666666000003 0.6 466.46666666 114 588.96666666c113.5 122.4 218.6 64.6 257 35.7 16.4-12.4 85.3-57.9 158.6-105.9l3.1-2.4c28.3-18.2 33.4-35.6 28.3-59.7zM434.1 192.36666665999996h212c16.7 0 30.3-13.6 30.3-30.3v-15.1c0-16.7-13.6-30.3-30.3-30.3h-212c-16.7 0-30.3 13.6-30.3 30.3v15.1c0 16.8 13.6 30.3 30.3 30.3z" fill="currentColor" transform="scale(1,-1) translate(0,-768)"/>
</svg>
