<svg xmlns="http://www.w3.org/2000/svg"
     viewBox="0 -128 1024 1024"
     width="24" height="24">
  <path d="M849.00812012 487.71642715A27.54528398 27.54528398 0 0 1 849.00812012 496.71080566 337.28919434 337.28919434 0 0 1 174.42973145 496.71080566a27.54528398 27.54528398 0 0 1-1e-8-8.99437852 147.28294776 147.28294776 0 0 1-112.42973144-140.53716386V328.06620849a148.40724551 148.40724551 0 0 1 123.67270459-143.34790781A308.6196126 308.6196126 0 0 1 414.4672083-9.222985839999978h5.05933769a84.32229815 84.32229815 0 1 1 0 56.21486573 252.40474688 252.40474688 0 0 0-172.01748955 137.16427235h31.48032481A35.41536562 35.41536562 0 0 1 314.96689531 215.63647705000005V458.48469697a35.41536562 35.41536562 0 0 1-35.97751406 34.29106787H230.64459717A26.42098711 26.42098711 0 0 1 230.64459717 496.71080566a281.07432862 281.07432862 0 0 0 562.14865723 0 26.42098711 26.42098711 0 0 1 0-3.3728915h-48.34478497a35.41536562 35.41536562 0 0 1-35.97751406-34.29106875V215.63647705000005a35.41536562 35.41536562 0 0 1 35.97751406-34.29106787h63.52279893A150.0936917 150.0936917 0 0 1 961.43785156 328.06620849v19.11305479a147.28294776 147.28294776 0 0 1-112.42973144 140.53716386zM498.22735801 46.991879880000056a28.10743242 28.10743242 0 1 0-28.1074333-28.10743242 28.10743242 28.10743242 0 0 0 28.10743329 28.10743242zM258.75202959 240.37101797000003h-43.28544639A93.87882598 93.87882598 0 0 0 118.21486572 328.06620849v19.11305479a93.87882598 93.87882598 0 0 0 97.25171748 89.94378516h43.28544639zM905.22298584 328.06620849a93.87882598 93.87882598 0 0 0-97.25171748-89.94378515h-43.28544727V437.12304844h43.28544727A93.87882598 93.87882598 0 0 0 905.22298584 347.17926328zM633.70518418 705.83010615l-20.7995001 7.30793232a28.10743242 28.10743242 0 0 1-17.42660859-56.21486571l16.30231084-6.18363458a28.10743242 28.10743242 0 1 1 21.92379785 51.71767646zM330.14490928 639.49656503A28.10743242 28.10743242 0 0 1 376.80324805 609.14053711 177.63897568 177.63897568 0 0 0 511.71892578 676.59837597a28.10743242 28.10743242 0 0 1 0 56.21486573 231.60524678 231.60524678 0 0 1-181.57401651-93.31667667z" fill="currentColor" transform="scale(1,-1) translate(0,-768)"/>
</svg>
