<svg xmlns="http://www.w3.org/2000/svg"
     viewBox="0 -128 1024 1024"
     width="24" height="24">
  <path d="M916.9398 445.2101l-69.9664 10.7833c-18.6619 2.863-38.1388 17.826-43.3424 33.2487-5.1618 15.3809-15.0883 65.4524-3.9288 80.6661l41.9004 57.135c11.1595 15.2346 9.3832 38.5985-3.9706 51.9314l-30.6364 30.6573c-13.3538 13.3538-36.7177 15.151-51.9314 3.9497l-57.135-41.8795c-15.2346-11.1804-39.4344-14.3987-53.7704-7.168-14.3569 7.2307-57.3022 35.7773-60.1652 54.4183l-10.7833 69.9664C570.3471 807.6016 552.542 822.8571 533.6712 822.8571h-43.34236734693877c-18.8709 0-36.6759-15.2555-39.5389-33.9174l-10.7833-69.9664c-2.863-18.6619-17.826-38.1388-33.2487-43.3424-15.4018-5.1827-65.4524-15.1092-80.687-3.9288L268.9567 713.5817c-15.2346 11.1804-38.6194 9.3832-51.9523-3.9497l-30.6364-30.6573c-13.3747-13.3538-15.151-36.7177-3.9706-51.9314l41.9004-57.135c11.1595-15.2346 14.3778-39.4136 7.168-53.7704-7.2307-14.3569-35.7773-57.2813-54.4183-60.1443l-69.9664-10.7833C88.3984 442.3471 73.1429 424.542 73.1429 405.6712v-43.34236734693877c0-18.8709 15.2555-36.6759 33.9174-39.5389l69.9664-10.7833c18.6619-2.863 38.1388-17.8469 43.3424-33.2487 5.1618-15.4018 15.0883-65.4733 3.9288-80.687l-41.9004-57.135c-11.1595-15.2346-9.3832-38.6194 3.9706-51.9314l30.6364-30.6573c13.3538-13.3538 36.7177-15.151 51.9523-3.9706l57.135 41.9213c15.2346 11.1386 39.4136 14.3778 53.7704 7.168 14.3569-7.2307 57.2813-35.7773 60.1443-54.4183l10.7833-69.9664c2.863-18.6619 20.6472-33.9174 39.5389-33.9174h43.34236734693877c18.8709 0 36.6759 15.2555 39.5389 33.9174l10.7833 69.9664c2.863 18.6619 17.826 38.1388 33.2487 43.3215 15.4018 5.1827 65.4524 15.0883 80.6661 3.9288l57.1559-41.9213c15.2346-11.1595 38.5985-9.3623 51.9314 3.9706l30.6364 30.6573c13.3747 13.3329 15.151 36.7177 3.9706 51.9314l-41.9004 57.135c-11.1595 15.2346-14.3778 39.4136-7.168 53.7496 7.2307 14.3778 35.7773 57.3231 54.4183 60.1861l69.9664 10.7833c18.6619 2.863 33.9174 20.6472 33.9174 39.5389v43.34236734693877C950.8571 424.542 935.6016 442.3471 916.9398 445.2101zM512 210.4633c-95.838 0-173.5367 77.6986-173.5367 173.5367s77.6986 173.5367 173.5367 173.5367 173.5367-77.6986 173.5367-173.5367S607.838 210.4633 512 210.4633zM512 384m-104.7824 0a5.014 5.014 0 1 1 209.5647 0 5.014 5.014 0 1 1-209.5647 0Z" fill="currentColor" transform="scale(1,-1) translate(0,-768)"/>
</svg>
