<svg xmlns="http://www.w3.org/2000/svg"
     viewBox="0 -128 1024 1024"
     width="24" height="24">
  <path d="M466.496-126.62400000000002l-1.056 0.064c-25.184 2.08-47.456 22.368-51.744 47.232l-17.344 102.4c-0.672 4.064-6.624 11.04-10.56 12.416l-30.336 12.416c-5.44 2.496-15.424 0.8-17.472-0.64l-84.992-60.16c-19.584-14.016-51.456-12.736-70.08 3.168l-64.288 64c-17.952 20.48-19.488 50.592-4.736 71.296l60.416 84.672c2.176 3.072 2.784 11.52 1.024 15.04l0 0c0 0-1.664 3.104-7.264 16.608-6.176 14.848-6.816 17.44-6.816 17.44-0.992 3.04-7.456 8.672-11.36 9.376l-102.56 17.248c-25.152 4.288-45.44 26.624-47.168 52L0 428.288c2.112 27.36 22.496 49.6 47.52 53.728l102.528 17.344c4.128 0.672 11.008 6.56 12.416 10.496l12.608 30.336c2.368 4.992 1.6 14.112-0.8 17.504L113.984 642.24C99.36 662.88 100.704 692.896 117.056 712.192l64.416 64.224c20.672 18.208 51.296 18.784 71.36 4.64l84.992-60.16c1.952-1.376 13.28-2.016 15.04-1.056 0.384 0.192 2.528 1.344 16.704 7.168 14.24 5.92 16.576 6.592 16.576 6.592 3.84 1.184 9.504 7.648 10.144 11.424l17.44 102.4c4.32 25.152 26.752 45.376 52.128 47.104l90.528 0.064c27.328-2.112 49.632-22.368 53.952-47.232l17.344-102.432c0.672-4.064 6.656-11.04 10.624-12.48l30.304-12.352c6.24-2.784 15.456-0.8 17.44 0.608l85.024 60.16c19.52 14.016 51.392 12.704 70.08-3.136l64.288-64.032c17.952-20.48 19.456-50.56 4.736-71.264l-60.416-84.672c-2.208-3.136-2.848-11.616-1.056-15.04 0.16-0.352 1.376-2.56 7.232-16.672 5.856-14.112 6.592-16.512 6.592-16.512 1.248-4.032 7.712-9.6 11.648-10.304l102.56-17.248c25.152-4.224 45.44-26.592 47.168-52l0.096-90.304c-2.112-27.392-22.528-49.6-47.552-53.728l-102.528-17.376c-4.128-0.672-10.944-6.496-12.32-10.432l-12.736-30.432c-2.336-4.928-1.568-14.112 0.832-17.472l60.288-84.512c14.624-20.736 13.216-50.816-3.232-70.048l-64.192-64.096c-11.328-9.92-24.64-14.72-38.784-14.72l0 0c-11.904 0-23.52 3.552-32.704 10.016l-84.992 60.16c-1.952 1.408-13.312 2.016-15.072 1.056-0.288-0.16-2.432-1.312-16.608-7.2-14.08-5.792-16.384-6.496-16.384-6.496-4.16-1.28-9.792-7.776-10.432-11.52l-17.408-102.4c-4.352-25.152-26.72-45.344-52.032-47.104L466.496-126.62400000000002zM347.84 100.60799999999995c10.368 0 20.192-2.112 28.48-6.112l27.648-11.296c20.416-7.072 38.976-28.992 42.848-51.584l17.344-102.336c0.288-1.6 3.136-4.32 5.056-4.832l87.296 0.064c-0.032 0.064 3.04 2.944 3.328 4.672l17.408 102.368c3.872 22.656 23.328 44.832 45.28 51.584 0 0 0 0 0 0-0.096 0 2.976 1.152 12.448 5.056 9.472 3.936 12.384 5.248 13.12 5.568 18.208 9.6 49.44 8.032 67.776-4.96l84.928-60.16c0.192-0.128 1.312-0.64 3.104-0.64l0 0c2.048 0 3.52 0.672 3.872 0.96l61.536 61.408 0 0c-0.16 0 0.064 4.416-0.992 5.952l-60.224 84.448c-13.248 18.624-15.68 47.168-5.792 67.872l11.648 27.84c6.944 19.968 29.408 38.912 51.68 42.496l102.464 17.376c1.824 0.384 4.736 3.648 4.864 5.408L972.8 428.288l0 0c-0.096 0-2.88 3.072-4.576 3.424l-102.72 17.28c-23.168 4.032-44.896 22.976-51.776 45.056l0 0c-0.032 0-1.216 3.04-5.12 12.512-3.968 9.568-5.28 12.512-5.632 13.248-10.24 19.36-8.288 48.736 4.96 67.456L868.448 672c0.96 1.408 0.736 5.6-0.384 6.912l-61.408 61.184c0.704-0.8-0.768-0.192-2.848-0.192-1.728 0-2.784-0.416-3.008-0.576l-85.024-60.16c-17.824-12.8-47.776-15.36-68-5.664l-27.712 11.296c-20.512 7.2-39.04 29.088-42.88 51.584l-17.344 102.336c-0.288 1.76-3.616 4.704-5.504 4.864L467.616 843.52c0-0.064-3.104-2.944-3.392-4.672l-17.408-102.336c-3.84-22.624-23.264-44.8-45.216-51.584 0-0.032-3.008-1.184-12.416-5.088-9.568-3.936-12.512-5.248-13.248-5.568-17.984-9.568-49.344-8.032-67.744 4.992L223.264 739.36c-0.416 0.32-6.176 0.288-6.848-0.224L154.688 677.6320000000001c0 0 0 0 0 0 0.224 0 0.032-4.384 1.056-5.856L216 587.264c13.312-18.752 15.744-47.296 5.76-67.968l-11.52-27.648c-6.976-20.032-29.472-38.944-51.776-42.624L55.968 431.68c-1.824-0.384-4.704-3.648-4.832-5.408l0.096-86.56 0 0c0.096 0 2.912-3.104 4.608-3.424l102.656-17.28c23.04-4 44.704-22.912 51.712-44.928 0.256-0.736 1.44-3.84 5.088-12.64 3.68-8.832 5.024-11.84 5.472-12.736 10.592-20.288 8.672-48.96-4.672-67.904l-60.512-84.768c-0.96-1.408-0.736-5.632 0.384-6.912l61.408-61.184c-0.736 0.8 0.736 0.224 2.816 0.192 1.728 0 2.784 0.416 3.008 0.576l84.992 60.16C318.624 96.32000000000005 333.088 100.60799999999995 347.84 100.60799999999995zM512.032 133.856c-138.336 0-250.848 112.224-250.848 250.176 0 137.92 112.544 250.144 250.848 250.144s250.848-112.224 250.848-250.144C762.88 246.08000000000004 650.336 133.856 512.032 133.856zM512.032 583.136c-110.08 0-199.648-89.312-199.648-199.104s89.568-199.136 199.648-199.136 199.648 89.344 199.648 199.136S622.112 583.136 512.032 583.136z" fill="currentColor" transform="scale(1,-1) translate(0,-768)"/>
</svg>
