<svg xmlns="http://www.w3.org/2000/svg"
     viewBox="0 -128 1024 1024"
     width="24" height="24">
  <path d="M769.714 306.453c-51.754 0-97.702-24.851-126.571-63.269L394.479 367.94100000000003c3.93 13.798 6.034 28.364 6.034 43.424 0 16.496-2.527 32.399-7.211 47.35l247.724 124.288c28.71-40.052 75.647-66.151 128.687-66.151 87.388 0 158.229 70.84 158.229 158.229 0 87.388-70.841 158.229-158.229 158.229-87.389 0-158.229-70.841-158.229-158.229 0-6.046 0.352-12.009 1.011-17.88L351.22 526.116c-28.371 26.943-66.723 43.479-108.938 43.479-87.388 0-158.229-70.84-158.229-158.229s70.84-158.229 158.229-158.229c43.752 0 83.354 17.758 111.997 46.459l258.676-129.779c-0.964-7.062-1.474-14.266-1.474-21.592 0-87.389 70.84-158.229 158.229-158.229s158.229 70.84 158.229 158.229C927.938 235.61199999999997 857.103 306.453 769.714 306.453L769.714 306.453z" fill="currentColor" transform="scale(1,-1) translate(0,-768)"/>
</svg>
