<svg xmlns="http://www.w3.org/2000/svg"
     viewBox="0 -128 1024 1024"
     width="24" height="24">
  <path d="M52.294-28.71900000000005h899.793c16.546 0 29.999 13.405 29.999 29.999v59.974c-0.013 16.562-13.436 29.985-29.998 29.999h-899.795c-16.57 0-29.999-13.429-29.999-29.999v-59.974c0-16.617 13.429-29.999 29.999-29.999zM952.087 451.165h-479.884c-16.57 0-29.999-13.405-29.999-29.999v-59.974c0 0 0 0 0 0 0-16.572 13.428-30.01 29.997-30.022h479.885c16.571 0.013 29.999 13.448 29.999 30.022 0 0 0 0 0 0v59.974c0 16.593-13.429 29.999-29.999 29.999zM52.294 691.0840000000001h899.793c16.554 0.013 29.972 13.423 29.999 29.974v59.999c0 16.57-13.429 29.999-29.999 29.999h-899.793c-16.57 0-29.999-13.429-29.999-29.999v-59.997c0-16.546 13.429-29.975 29.999-29.975zM45.183 383.53499999999997l239.919-150.598v301.196l-239.919-150.598z" fill="currentColor" transform="scale(1,-1) translate(0,-768)"/>
</svg>
