<svg xmlns="http://www.w3.org/2000/svg"
     viewBox="0 -128 1024 1024"
     width="24" height="24">
  <path d="M228.7 683.9v-66.7H112v66.7h116.7z m333.2-266.6v-66.7H112v66.7h449.9zM295.4 150.60000000000002V84H112v66.7h183.4v-0.1z m116.6 600c9 0 16.8-3.3 23.5-9.9 6.5-6.5 9.9-14.5 9.9-23.5v-133.3c0-9-3.3-16.8-9.9-23.5-6.5-6.5-14.5-9.9-23.5-9.9H278.8c-9 0-16.8 3.3-23.5 9.9-6.5 6.5-9.9 14.3-9.9 23.5V717.1c0 9 3.3 16.8 9.9 23.5 6.5 6.5 14.3 9.9 23.5 9.9h133.3v0.1h-0.1z m66.7-533.3c9 0 16.8-3.3 23.5-9.9 6.5-6.5 9.9-14.5 9.9-23.5v-133.3c0-9-3.3-16.8-9.9-23.5-6.5-6.5-14.5-9.9-23.5-9.9H345.3c-9 0-16.8 3.3-23.5 9.9-6.5 6.5-9.9 14.5-9.9 23.5V183.89999999999998c0 9 3.3 16.8 9.9 23.5 6.5 6.5 14.3 9.9 23.5 9.9h133.4v0.1zM912 683.9v-66.7H462.1v66.7H912z m0-533.3V84H528.6v66.7h383.3v-0.1h0.1zM745.2 483.9c9 0 16.8-3.3 23.5-9.9 6.5-6.5 9.9-14.5 9.9-23.5v-133.3c0-9-3.3-16.8-9.9-23.5-6.5-6.5-14.5-9.9-23.5-9.9H612c-9 0-16.8 3.3-23.5 9.9-6.5 6.5-9.9 14.3-9.9 23.5V450.6c0 9 3.3 16.8 9.9 23.5 6.5 6.5 14.5 9.9 23.5 9.9l133.2-0.1zM912 417.3v-66.7H795.3v66.7H912z" fill="currentColor" transform="scale(1,-1) translate(0,-768)"/>
</svg>
