<svg xmlns="http://www.w3.org/2000/svg"
     viewBox="0 -128 1024 1024"
     width="24" height="24">
  <path d="M480.695-64h63.725V59.291000000000054l68.854-68.242 44.945 44.546-113.798 112.79v180.02l177.271-102.44 41.67-155.652 60.725 16.284-25.398 94.872 85.259-49.266 31.87 55.246-84.726 48.961 94.497 25.343-16.495 61.622-156.068-41.855-176.934 102.245 177.667 102.667 155.513-41.709 16.274 60.793-94.78 25.418 85.255 49.264-31.869 55.247-84.733-48.965 25.326 94.594-61.557 16.51-41.817-156.206-176.948-102.251V644.461l113.849 113.951-44.459 44.496-69.392-69.454V832h-63.725v-97.935l-69.188 69.249-45.068-45.107 114.256-114.355V438.89l-156.557 90.469L283.45 684.39l-60.188-16.458 24.84-94.632-107.544 62.145-31.868-55.247 106.667-61.639-93.463-25.557 16.074-61.237 154.482 42.243 156.169-90.243-156.138-90.226-154.485 42.243-15.855-60.409 94.289-25.784-107.534-62.14 31.868-55.247 106.672 61.642-24.621-93.801 61.012-16.685 40.69 155.028 156.179 90.25v-180.455l-113.801-112.79 44.338-43.944 69.463 68.845V-64z" fill="currentColor" transform="scale(1,-1) translate(0,-768)"/>
</svg>
