<svg xmlns="http://www.w3.org/2000/svg"
     viewBox="0 -128 1024 1024"
     width="24" height="24">
  <path d="M587.182306 754.7203c-6.003737 2.705622-13.043061 1.642406-17.984606-2.721994l-259.223926-229.293243-148.246369 0c-9.253758 0-16.752546-7.498788-16.752546-16.756639l0-267.886213c0-9.249665 7.498788-16.756639 16.752546-16.756639l144.050814 0c9.253758 0 16.752546 7.506974 16.752546 16.756639L322.530764 490.391099c1.774413 0.704035 3.433192 1.719154 4.892427 3.010567l236.127905 208.861912 0-653.332912-160.751171 137.64287c-2.12643 1.824555-90.300632 78.69941-93.927229 76.162634-4.427846-3.097548-15.768125-17.59882-18.419512-22.512736-0.953721-1.768273-2.196015-1.334391 15.413038-16.379039 25.674753-21.936615 73.780377-61.548798 75.144444-62.717414l10.007935-8.570189 178.388876-152.761196c3.093455-2.653433 6.978948-4.028757 10.900258-4.028757 2.369977 0 4.756327 0.503467 7.003508 1.534959 5.939269 2.738367 9.749038 8.677637 9.749038 15.217586L597.060281 739.446431C597.060281 746.034477 593.190137 752.013655 587.182306 754.7203L587.182306 754.7203zM290.453185 254.814756l-115.040083 0L175.413102 489.195877l115.03906 0 0-234.381122L290.453185 254.814756zM747.742119 375.98444300000006c0-51.55212-34.83232-96.658434-84.702124-109.693308-1.415232-0.375553-2.846838-0.551562-4.245697-0.551562-7.438413 0-14.234189 4.992711-16.200984 12.523221-2.338255 8.949836 3.021823 18.104333 11.967566 20.442588 35.136242 9.18929 59.672054 40.96397 59.672054 77.279061 0 36.307927-24.535813 68.090794-59.672054 77.271898-8.945743 2.346441-14.305821 11.492752-11.967566 20.450774 2.342348 8.953929 11.499915 14.305821 20.446681 11.967566C712.909799 472.643899 747.742119 427.530422 747.742119 375.98444300000006L747.742119 375.98444300000006zM864.950588 375.793084c0-88.87619-48.554856-170.44495-126.718053-212.883505-2.537799-1.375324-5.276167-2.02717-7.982812-2.02717-5.939269 0-11.69946 3.166109-14.733563 8.762571-4.417613 8.134261-1.39886 18.303878 6.727215 22.720468 67.350944 36.566824 109.198028 106.851587 109.198028 183.427636 0 76.844156-42.055838 147.272181-109.741403 183.78784-8.154727 4.396123-11.192923 14.557554-6.795776 22.700001 4.38896 8.142447 14.558577 11.184737 22.701025 6.795776C816.151162 546.697499 864.950588 464.976266 864.950588 375.793084L864.950588 375.793084z" fill="currentColor" transform="scale(1,-1) translate(0,-768)"/>
</svg>
