<svg xmlns="http://www.w3.org/2000/svg"
     viewBox="0 -128 1024 1024"
     width="24" height="24">
  <path d="M942.974 770.924h-843.556c-15.513 0-28.124-12.567-28.124-28.124v-56.226c0.012-15.527 12.596-28.111 28.123-28.124h843.559c15.534 0 28.124 12.59 28.124 28.124v56.226c0 15.578-12.59 28.124-28.124 28.124zM99.418 321.033h449.891c15.534 0 28.124 12.567 28.124 28.124v56.226c0 0 0 0 0 0 0 15.537-12.589 28.134-28.122 28.146h-449.892c-15.534-0.012-28.124-12.608-28.124-28.146 0 0 0 0 0 0v-56.226c0-15.556 12.59-28.124 28.124-28.124zM942.974 96.10900000000004h-843.556c-15.519-0.012-28.099-12.584-28.124-28.101v-56.249c0-15.534 12.59-28.124 28.124-28.124h843.556c15.534 0 28.124 12.59 28.124 28.124v56.248c0 15.513-12.59 28.103-28.124 28.102zM949.641 384.436l-224.924 141.186v-282.37l224.924 141.186z" fill="currentColor" transform="scale(1,-1) translate(0,-768)"/>
</svg>
