<svg xmlns="http://www.w3.org/2000/svg"
     viewBox="0 -128 1024 1024"
     width="24" height="24">
  <path d="M749.624889-84.152889c-15.672889 0-31.246222 3.882667-45.084444 11.306667l-192.526222 103.637333L319.544889-72.817778c-31.203556-16.64-70.314667-14.392889-99.043556 5.304889-29.511111 20.337778-44.743111 55.921778-38.840889 90.695111l37.703111 225.251556L56.661333 410.908444c-25.002667 24.888889-33.464889 60.984889-22.058667 94.193778 11.349333 32.910222 40.064 56.576 74.965333 61.752889l221.326222 32.896 96.128 199.580444c15.488 32.085333 48.853333 52.807111 84.992 52.807111 36.167111 0 69.518222-20.736 84.963556-52.807111l96.156444-199.580444 221.297778-32.910222c34.872889-5.162667 63.616-28.8 74.979556-61.696 11.392-33.28 2.944-69.361778-22.030222-94.250667L804.622222 248.433778l37.745778-225.28c5.845333-34.773333-9.386667-70.357333-38.812444-90.638222C787.569778-78.392889 768.938667-84.152889 749.624889-84.152889zM512.014222 91.548444c4.636444 0 9.272889-1.137778 13.482667-3.384889l205.937778-110.862222c12.373333-6.641778 28.316444-5.802667 39.936 2.133333 11.392 7.836444 17.123556 21.006222 14.890667 34.304L746.097778 253.496889c-1.507556 9.088 1.450667 18.332444 7.964444 24.832l173.141333 172.842667c9.457778 9.429333 12.686222 23.025778 8.405333 35.484444-4.380444 12.672-15.701333 21.873778-29.525333 23.921778L669.866667 545.706667c-9.315556 1.379556-17.365333 7.296-21.447111 15.786667L545.720889 774.641778c-6.030222 12.529778-19.256889 20.608-33.706667 20.608s-27.690667-8.092444-33.763556-20.622222L375.608889 561.493333c-4.081778-8.490667-12.131556-14.407111-21.447111-15.786667L117.930667 510.577778c-13.624889-2.033778-25.201778-11.434667-29.539556-23.992889-4.266667-12.416-1.024-25.984 8.433778-35.399111L269.937778 278.328889c6.513778-6.499556 9.472-15.744 7.964444-24.832l-40.135111-239.744c-2.247111-13.312 3.484444-26.439111 14.976-34.360889 11.434667-7.836444 27.349333-8.775111 39.950222-2.062222l205.852444 110.833778C502.741333 90.410667 507.377778 91.548444 512.014222 91.548444zM200.32 439.210667c-6.840889 0-12.885333 4.963556-14.023111 11.946667-1.251556 7.751111 4.010667 15.061333 11.761778 16.312889l9.443556 1.536c7.793778 1.336889 15.061333-4.010667 16.312889-11.761778 1.251556-7.751111-4.010667-15.061333-11.761778-16.312889l-9.443556-1.536C201.856 439.267556 201.073778 439.210667 200.32 439.210667zM252.544 447.687111c-6.684444 0-12.643556 4.721778-13.937778 11.534222-1.493333 7.708444 3.555556 15.175111 11.264 16.654222l153.927111 29.696 58.055111 133.148444c3.157333 7.182222 11.548444 10.496 18.716444 7.352889 7.210667-3.143111 10.510222-11.52 7.367111-18.716444l-61.056-140.017778c-1.877333-4.295111-5.745778-7.395556-10.353778-8.277333l-161.28-31.118222C254.336 447.758222 253.44 447.687111 252.544 447.687111z" fill="currentColor" transform="scale(1,-1) translate(0,-768)"/>
</svg>
