<svg xmlns="http://www.w3.org/2000/svg"
     viewBox="0 -128 1024 1024"
     width="24" height="24">
  <path d="M722.355804 849.454545C761.006291 849.454545 792.380951 818.166023 792.380951 779.627344L792.380951 437.500928 799.081094 453.813218 401.874746 51.22138 418.539682 58.181818 138.070006 58.181818C99.387643 58.181818 68.063492 89.328555 68.063492 127.771428L68.063492 872.727273 44.698413 849.454545 722.355804 849.454545ZM21.333333 896 21.333333 872.727273 21.333333 127.771428C21.333333 63.604277 73.59726 11.636363 138.070006 11.636363L418.539682 11.636363 428.337293 11.636363 435.204619 18.596802 832.410967 421.18864 839.11111 427.979625 839.11111 437.500928 839.11111 779.627344C839.11111 843.859757 786.827324 896 722.355804 896L44.698413 896 21.333333 896ZM775.859347 307.365395 759.337741 290.90909 775.859347 274.452787 869.319663 181.361879 885.841269 164.905574 902.362876 181.361879 972.458114 251.18006 988.979721 267.636363 972.458114 284.092668 878.997796 377.183575 862.47619 393.639878 845.954583 377.183575 775.859347 307.365395ZM845.954583 344.27097 939.414901 251.18006 939.414901 284.092668 869.319663 214.274485 902.362876 214.274485 808.902558 307.365395 808.902558 274.452787 878.997796 344.27097 845.954583 344.27097ZM518.843473 51.365395 513.841133 46.382827 512.453734 39.473248 489.088655-76.890387 482.215251-111.121568 516.58227-104.275332 633.407665-81.002605 640.344663-79.620689 645.347004-74.638121 902.362876 181.361879 918.884482 197.818182 902.362876 214.274485 808.902558 307.365395 792.380951 323.821698 775.859347 307.365395 518.843473 51.365395ZM775.859347 274.452787 869.319663 181.361879 869.319663 214.274485 612.303791-41.725515 624.243127-35.361033 507.41773-58.633758 534.911345-86.018703 558.276425 30.344934 551.886686 18.452787 808.902558 274.452787 775.859347 274.452787ZM426.576706 298.269073C444.201086 298.269073 458.488469 284.053815 458.488469 266.500753L458.488469 258.086116C458.488469 240.540958 444.323959 226.317797 426.576706 226.317797L426.576706 226.317797C408.952326 226.317797 394.664943 240.533054 394.664943 258.086116L394.664943 266.500753C394.664943 284.045911 408.829453 298.269073 426.576706 298.269073L426.576706 298.269073ZM278.349205 552.435127C278.349205 552.435127 280.851125 530.485568 305.477133 530.485568 330.103138 530.485568 331.559155 552.435127 331.559155 552.435127 329.927383 623.508937 362.988497 657.25782 430.67155 653.905282 475.722639 648.839223 499.06407 623.508937 500.624896 577.839917 497.503245 557.501184 480.405116 531.202385 449.969026 499.092521 409.671358 458.489557 389.522524 422.133143 389.522524 390.023279L389.522524 357.093903C389.522524 357.093903 392.614705 337.454532 414.885933 337.454532 437.157161 337.454532 440.249342 357.093903 440.249342 357.093903L440.249342 379.965664C440.249342 406.785969 459.546816 439.044836 498.21271 476.369762 538.652271 513.471183 558.730159 547.369069 558.730159 577.839917 555.395669 662.323878 511.195938 706.353877 425.776235 709.780917 327.515198 711.419936 278.349205 658.971339 278.349205 552.435127Z" fill="currentColor" transform="scale(1,-1) translate(0,-768)"/>
</svg>
