<svg xmlns="http://www.w3.org/2000/svg"
     viewBox="0 -128 1024 1024"
     width="24" height="24">
  <path d="M304.738028 343.684806M729.544153 511.153982M595.52788 637.723655M143.806755 686.614156l0-601.704045L881.172549 84.91011100000003l0 601.704045L143.806755 686.614156zM420.318416 299.80441299999995l0 128.936581 184.341448 0 0-128.936581L420.318416 299.80441299999995zM604.659865 256.825552l0-128.936581L420.318416 127.88897099999997l0 128.936581L604.659865 256.825552zM604.659865 600.656435l0-128.936581L420.318416 471.719854l0 128.936581L604.659865 600.656435zM374.232798 600.656435l0-128.936581L189.89135 471.719854l0 128.936581L374.232798 600.656435zM189.89135 428.740994L374.232798 428.740994l0-128.936581L189.89135 299.80441299999995 189.89135 428.740994zM650.745483 428.740994l184.341448 0 0-128.936581L650.745483 299.80441299999995 650.745483 428.740994zM650.745483 471.719854l0 128.936581 184.341448 0 0-128.936581L650.745483 471.719854zM189.89135 256.825552L374.232798 256.825552l0-128.936581L189.89135 127.88897099999997 189.89135 256.825552zM650.745483 127.88897099999997l0 128.936581 184.341448 0 0-128.936581L650.745483 127.88897099999997z" fill="currentColor" transform="scale(1,-1) translate(0,-768)"/>
</svg>
