<svg xmlns="http://www.w3.org/2000/svg"
     viewBox="0 -128 1024 1024"
     width="24" height="24">
  <path d="M310.30303 523.636364L124.121212 523.636364c-17.128727 0-31.030303-13.901576-31.030303-31.030303l0-186.181818c0-17.128727 13.901576-31.030303 31.030303-31.030303l186.181818 0c17.128727 0 31.030303 13.901576 31.030303 31.030303L341.333333 492.606061C341.333333 509.734788 327.431758 523.636364 310.30303 523.636364zM294.787879 306.42424200000005L139.636364 306.42424200000005c-17.128727 0-15.515152-1.613576-15.515152 15.515152L124.121212 477.090909c0 17.128727-1.613576 15.515152 15.515152 15.515152l155.151515 0c17.128727 0 15.515152 1.613576 15.515152-15.515152l0-155.151515C310.30303 304.81066699999997 311.916606 306.42424200000005 294.787879 306.42424200000005zM418.909091 352.969697l480.969697 0 0 31.030303L418.909091 384 418.909091 352.969697zM418.909091 228.84848499999998l480.969697 0 0 31.030303L418.909091 259.878788 418.909091 228.84848499999998zM418.909091 89.21212100000002l480.969697 0 0 31.030303L418.909091 120.24242400000003 418.909091 89.21212100000002zM418.909091 492.606061l480.969697 0 0 31.030303L418.909091 523.636364 418.909091 492.606061zM992.969697 725.333333l-15.515152 0L977.454545 849.454545c0 17.128727-13.901576 31.030303-31.030303 31.030303L775.757576 880.484848c-17.128727 0-31.030303-13.901576-31.030303-31.030303l0-124.121212-139.636364 0L605.090909 849.454545c0 17.128727-13.901576 31.030303-31.030303 31.030303L403.393939 880.484848c-17.128727 0-31.030303-13.901576-31.030303-31.030303l0-124.121212-124.121212 0L248.242424 849.454545c0 17.128727-13.901576 31.030303-31.030303 31.030303L31.030303 880.484848C13.901576 880.484848 0 866.583273 0 849.454545l0-946.424242c0-17.128727 13.901576-31.030303 31.030303-31.030303l961.939394 0c17.128727 0 31.030303 13.901576 31.030303 31.030303L1024 694.30303C1024 711.431758 1010.098424 725.333333 992.969697 725.333333zM992.969697-65.939394c0-17.128727-13.901576-31.030303-31.030303-31.030303L62.060606-96.969697c-17.128727 0-31.030303 13.901576-31.030303 31.030303L31.030303 818.424242c0 17.128727 13.901576 31.030303 31.030303 31.030303l124.121212 0c17.128727 0 31.030303-13.901576 31.030303-31.030303l0-124.121212 744.727273 0c17.128727 0 31.030303-13.901576 31.030303-31.030303L992.969697-65.939394z" fill="currentColor" transform="scale(1,-1) translate(0,-768)"/>
</svg>
