<svg xmlns="http://www.w3.org/2000/svg"
     viewBox="0 -128 1024 1024"
     width="24" height="24">
  <path d="M320 384L106.666667 384c-35.349333 0-64-28.650667-64-64l0-213.333333c0-35.349333 28.650667-64 64-64l213.333333 0c35.349333 0 64 28.650667 64 64L384 320C384 355.349333 355.349333 384 320 384zM256 341.33333300000004l0-256L170.666667 85.33333300000004 170.666667 341.33333300000004 256 341.33333300000004zM85.333333 106.66666699999996L85.333333 320c0 11.754667 9.578667 21.333333 21.333333 21.333333l42.666667 0 0-256L106.666667 85.33333300000004C94.912 85.33333300000004 85.333333 94.91200000000003 85.333333 106.66666699999996zM341.333333 106.66666699999996c0-11.754667-9.578667-21.333333-21.333333-21.333333l-42.666667 0L277.333333 341.33333300000004l42.666667 0c11.754667 0 21.333333-9.578667 21.333333-21.333333L341.333333 106.66666699999996zM576 554.666667L234.666667 554.666667c-47.061333 0-85.333333-38.272-85.333333-85.333333l0-42.666667 42.666667 0 0 42.666667c0 23.530667 19.136 42.666667 42.666667 42.666667l42.666667 0 0-96 21.333333 0L298.666667 512l213.333333 0 0-426.666667-85.333333 0-21.333333-42.666667 170.666667 0c47.061333 0 85.333333 38.272 85.333333 85.333333L661.333333 469.333333C661.333333 516.394667 623.061333 554.666667 576 554.666667zM618.666667 128c0-23.530667-19.136-42.666667-42.666667-42.666667l-42.666667 0L533.333333 512l42.666667 0c23.530667 0 42.666667-19.136 42.666667-42.666667L618.666667 128zM853.333333 42.66666699999996c47.061333 0 85.333333 38.272 85.333333 85.333333L938.666667 640c0 47.061333-38.272 85.333333-85.333333 85.333333L341.333333 725.333333c-47.061333 0-85.333333-38.272-85.333333-85.333333l0-42.666667 42.666667 0 0 42.666667c0 23.530667 19.136 42.666667 42.666667 42.666667l85.333333 0 0-85.333333 21.333333 0 0 85.333333 298.666667 0 0-597.333333-42.666667 0-21.333333-42.666667L853.333333 42.66666699999996zM896 128c0-23.530667-19.136-42.666667-42.666667-42.666667l-85.333333 0L768 682.666667l85.333333 0c23.530667 0 42.666667-19.136 42.666667-42.666667L896 128z" fill="currentColor" transform="scale(1,-1) translate(0,-768)"/>
</svg>
