<svg xmlns="http://www.w3.org/2000/svg"
     viewBox="0 -128 1024 1024"
     width="24" height="24">
  <path d="M512 384zM43.52 601.6l409.6-176.64c58.88-30.72 110.08 0 110.08 0l414.72 174.08 2.56 2.56c10.24 5.12 15.36 15.36 15.36 28.16 0 15.36-10.24 28.16-23.04 30.72L563.2 837.12c-56.32 23.04-97.28 0-97.28 0L46.08 660.48c-12.8-5.12-20.48-17.92-20.48-30.72s7.68-23.04 17.92-28.16z m0 0M512 222.72000000000003c-2.56 0-7.68 0-10.24 2.56l-486.4 215.04c-12.8 5.12-17.92 20.48-12.8 33.28 5.12 12.8 20.48 17.92 33.28 12.8L512 276.48 988.16 486.4c12.8 5.12 28.16 0 33.28-12.8 5.12-12.8 0-28.16-12.8-33.28l-486.4-215.04c-2.56-2.56-7.68-2.56-10.24-2.56zM512 71.67999999999995c-2.56 0-7.68 0-10.24 2.56l-486.4 215.04c-12.8 5.12-17.92 20.48-12.8 33.28 5.12 10.24 20.48 17.92 33.28 10.24L512 125.44000000000005 988.16 332.79999999999995c12.8 5.12 28.16 0 33.28-12.8 5.12-12.8 0-28.16-12.8-33.28l-486.4-215.04H512zM512-79.36000000000001c-2.56 0-7.68 0-10.24 2.56l-486.4 215.04c-12.8 5.12-17.92 20.48-12.8 33.28 5.12 12.8 20.48 17.92 33.28 12.8L512-25.600000000000023l476.16 209.92c12.8 5.12 28.16 0 33.28-12.8 5.12-12.8 0-28.16-12.8-33.28l-486.4-215.04c-2.56-2.56-7.68-2.56-10.24-2.56z" fill="currentColor" transform="scale(1,-1) translate(0,-768)"/>
</svg>
