<svg xmlns="http://www.w3.org/2000/svg"
     viewBox="0 -128 1024 1024"
     width="24" height="24">
  <path d="M734 172.89999999999998v82.8h-59.9v-37l-35.7-9.7 15.7-57.8zM674.1 419.3H734v-81.8h-59.9zM734 600.2l-95.6-26 15.7-57.8 20 5.4v-20.7H734zM866.1 131.29999999999995v-37l-35.7-9.7 7.9-28.9 7.8-28.9 79.9 21.7v82.8h-29.9zM740.9 60.299999999999955L651.4 36l7.9-28.9 7.8-29 89.5 24.4-7.8 28.9zM740.9 781.7l-89.5-24.3 7.9-28.9 7.8-28.9 89.5 24.3-7.8 28.9zM830.4 806l7.9-28.9 7.8-28.9 20 5.5v-20.8H926V832zM866.1 612.6v-120.3H926V612.6h-29.9zM866.1 371.9v-120.3H926V371.9h-29.9zM541.9 665.6l35.7 9.7-7.8 28.9-7.8 28.9-50-13.6L98 832v-783.5l384.1-104.3L512-64l29.9 8.1 35.7 9.7-7.8 28.9-7.8 28.9-20-5.4V120.79999999999995l35.7 9.7-15.7 57.8-20-5.4V486l35.7 9.7-15.7 57.8-20-5.4V665.6z m-59.8-659.4l-324.2 88.1V753.7l324.2-88.1V548l-192 52.2v-427.3l192-52.2v-114.5z m0 360.9V182.79999999999995l-132.2 35.9V521.8l132.2-35.9v-118.8z" fill="currentColor" transform="scale(1,-1) translate(0,-768)"/>
</svg>
