<svg xmlns="http://www.w3.org/2000/svg"
     viewBox="0 -128 1024 1024"
     width="24" height="24">
  <path d="M512 800C229.696 800 0 570.304 0 288c0-90.368 30.304-174.496 85.344-236.896 55.264-62.624 129.152-97.12 208.128-97.12 81.568 0 161.536 36.832 231.264 106.592l2.272 2.496c65.792 81.472 132.896 121.056 205.088 121.056 46.72 0 89.216-15.872 126.688-29.92 30.336-11.328 56.576-21.12 81.216-21.12C1024 133.08799999999997 1024 241.664 1024 288c0 282.304-229.696 512-512 512z m428-602.912c-13.088 0-35.296 8.288-58.784 17.088-40.48 15.136-90.848 33.952-149.12 33.952-92.352 0-175.328-46.944-253.76-143.456-57.184-56.704-121.056-86.688-184.832-86.688-60.352 0-117.216 26.784-160.128 75.456C88.64 144.12800000000004 64 213.216 64 288 64 535.04 264.96 736 512 736s448-200.96 448-448c0-27.328-1.952-90.912-20-90.912zM800.704 379.93600000000004m-64 0a64 64 0 1 1 128 0 64 64 0 1 1-128 0ZM457.024 582.624m-64 0a64 64 0 1 1 128 0 64 64 0 1 1-128 0ZM672.704 555.9359999999999m-64 0a64 64 0 1 1 128 0 64 64 0 1 1-128 0ZM291.392 443.936m-64 0a64 64 0 1 1 128 0 64 64 0 1 1-128 0ZM278.4 197.24800000000005m-96 0a96 96 0 1 1 192 0 96 96 0 1 1-192 0Z" fill="currentColor" transform="scale(1,-1) translate(0,-768)"/>
</svg>
