<svg xmlns="http://www.w3.org/2000/svg"
     viewBox="0 -128 1024 1024"
     width="24" height="24">
  <path d="M511.98464 829.44c-118.97856 0-230.83008-46.35136-314.95168-130.4832C112.90624 614.84032 66.56 502.95808 66.56 384.00512c0-118.9632 46.34624-230.84544 130.47296-314.9568C281.15456-15.093759999999975 393.00608-61.440000000000055 511.98464-61.440000000000055c118.98368 0 230.84032 46.34624 314.9824 130.48832C911.09376 153.15967999999998 957.44 265.02144 957.44 384.00512c0 118.97856-46.34624 230.8352-130.47296 314.95168C742.82496 783.0886399999999 630.96832 829.44 511.98464 829.44z m275.58912-721.02912c-73.61024-73.63584-171.47904-114.18624-275.58912-114.18624s-201.97376 40.5504-275.57888 114.18624c-73.63584 73.61024-114.16064 171.47904-114.16064 275.59424 0 104.11008 40.54528 201.97376 114.18112 275.58912 73.60512 73.63072 171.47392 114.176 275.584 114.176s201.97376-40.54528 275.584-114.176c73.63584-73.61536 114.18112-171.47904 114.18112-275.58912 0-104.1152-40.56576-201.984-114.2016-275.59424zM519.1168 340.20863999999995V628.08064a27.8528 27.8528 0 0 1-27.84256 27.84768 27.8528 27.8528 0 0 1-27.84256-27.84768v-306.23232a27.81184 27.81184 0 0 1 16.88064-25.58976M734.70464 321.84831999999994a31.0784 31.0784 0 0 0-31.07328-31.0784H496.44544a31.08864 31.08864 0 0 0-31.07328 31.0784 31.09376 31.09376 0 0 0 31.07328 31.0784h207.18592a31.08864 31.08864 0 0 0 31.07328-31.0784z" fill="currentColor" transform="scale(1,-1) translate(0,-768)"/>
</svg>
