<svg xmlns="http://www.w3.org/2000/svg"
     viewBox="0 -128 1024 1024"
     width="24" height="24">
  <path d="M967.280184 578.537671c-24.915459 58.887178-60.544935 111.76755-105.96745 157.161413-45.393863 45.393863-98.273211 81.051991-157.160389 105.96745-60.988026 25.803689-125.735679 38.853913-192.494129 38.853913-66.729797 0-131.504056-13.0799-192.494129-38.853913-58.887178-24.916483-111.766526-60.544935-157.160389-105.96745-45.393863-45.393863-81.051991-98.274234-105.96745-157.161413-25.803689-60.988026-38.884612-125.734656-38.884612-192.464453s13.0799-131.50508 38.884612-192.464453c24.915459-58.887178 60.544935-111.737874 105.96745-157.161413 45.393863-45.393863 98.273211-81.051991 157.160389-105.96745 60.988026-25.803689 125.735679-38.853913 192.494129-38.853913 66.729797 0 131.504056 13.0799 192.494129 38.853913 58.887178 24.916483 111.766526 60.544935 157.160389 105.96745 45.393863 45.393863 81.051991 98.274234 105.96745 157.161413 25.803689 60.988026 38.853913 125.734656 38.853913 192.464453S993.084896 517.549645 967.280184 578.537671zM511.687892-55.138552000000004c-243.302305 0-441.241446 197.909465-441.241446 441.21177S268.385587 827.284989 511.687892 827.284989c243.273652-0.029676 441.210747-197.938118 441.210747-441.21177S754.990197-55.138552000000004 511.687892-55.138552000000004zM511.657192 573.565427m-45.511543 0a44.475 44.475 0 1 1 91.023086 0 44.475 44.475 0 1 1-91.023086 0ZM542.729885 184.14011300000004c0-17.162892-13.906731-31.071669-31.070646-31.071669l0 0c-17.163915 0-31.070646 13.907755-31.070646 31.071669L480.588593 426.998303c0 17.162892 13.906731 31.071669 31.070646 31.071669l0 0c17.163915 0 31.070646-13.907755 31.070646-31.071669L542.729885 184.14011300000004z" fill="currentColor" transform="scale(1,-1) translate(0,-768)"/>
</svg>
