<svg xmlns="http://www.w3.org/2000/svg"
     viewBox="0 -128 1024 1024"
     width="24" height="24">
  <path d="M812 153.4l-300 172.8-300-172.8 300 604L812 153.4zM264.5 209.2l247.5 142.5 247.5-142.5L512 707.5 264.5 209.2zM371.7 138.3l0-126.2-15.9 0 0 126.2-45.9 0L309.9 153l107.4 0 0-14.8L371.7 138.2zM506.6 154.5c26.6 0 43.3-3.9 50-11.7 6.7-7.8 10-27.2 10-58.3 0-33.5-3.2-54.2-9.6-62-6.4-7.8-23.2-11.8-50.4-11.8-27 0-43.8 3.9-50.3 11.7-6.5 7.8-9.8 27.9-9.8 60.3l0 9.9 0.2 13.3c0 18.7 4.2 31.5 12.6 38.4C467.8 151 483.5 154.5 506.6 154.5zM506.5 141c-22.3 0-35.3-2.5-39.1-7.4-3.8-5-5.7-22-5.7-51 0-29.1 1.9-46.1 5.7-51.1 3.8-5 16.8-7.4 39.1-7.4 22.4 0 35.4 2.5 39.2 7.4 3.8 5 5.7 22 5.7 51.1l0 9.2-0.1 13.3c0 15.6-2.6 25.4-7.8 29.6S525.9 141 506.5 141zM608.4 12.1 608.4 153l59.2 0 5.4 0c15.9 0 26.7-3.1 32.5-9.2 5.8-6.1 8.7-17.6 8.7-34.4 0-16.1-3-27.1-9-32.9-6-5.9-17.3-8.8-33.9-8.8l-6.2-0.1-40.7 0 0-55.5L608.4 12.1zM624.3 81.1l37.7 0c15.8 0 25.9 1.6 30.3 4.9 4.4 3.2 6.7 10.7 6.7 22.3 0 13.6-1.5 22.2-4.5 25.9-3 3.6-10.1 5.4-21.3 5.4l-6.1 0.1-42.7 0L624.4 81.1z" fill="currentColor" transform="scale(1,-1) translate(0,-768)"/>
</svg>
