<svg xmlns="http://www.w3.org/2000/svg"
     viewBox="0 -128 1024 1024"
     width="24" height="24">
  <path d="M320 768H128c-35.2 0-64-28.8-64-64v-640c0-35.2 28.8-64 64-64h192c35.2 0 64 28.8 64 64V704c0 35.2-28.8 64-64 64z m0-672c0-16-16-32-32-32H160c-16 0-32 16-32 32V672c0 16 16 32 32 32h128c16 0 32-16 32-32v-576z m256 544h-64c-19.2 0-32-12.8-32-32s16-32 32-32h64c19.2 0 32 12.8 32 32s-16 32-32 32z m-64-448h-64c-19.2 0-32-12.8-32-32s16-32 32-32h64c19.2 0 32 12.8 32 32s-16 32-32 32z m384 576H704c-35.2 0-64-28.8-64-64v-640c0-35.2 28.8-64 64-64h192c35.2 0 64 28.8 64 64V704c0 35.2-28.8 64-64 64z m0-672c0-16-16-32-32-32H736c-16 0-32 16-32 32V672c0 16 16 32 32 32h128c16 0 32-16 32-32v-576z" fill="currentColor" transform="scale(1,-1) translate(0,-768)"/>
</svg>
