<svg xmlns="http://www.w3.org/2000/svg"
     viewBox="0 -128 1024 1024"
     width="24" height="24">
  <path d="M962.691679 258.53447400000005c-8.721639 54.163597-34.298154 97.584526-73.089645 133.8638-44.721551 41.825594-99.282191 65.724911-156.512636 84.432994-26.935466 8.80555-54.079686 16.971533-81.129762 25.427112 41.188074 7.485485 81.495082 10.991332 121.872698 12.269441 39.906895 1.26276 79.885422 0.276293 120.633475 0.276293-30.644951 44.233434-74.588789 71.110571-127.260405 84.384899-53.004191 13.357216-103.742782 9.715269-152.261822-32.081673 18.715247 66.336848 12.464893 120.18936-38.810934 160.830989-32.450063 25.719778-77.127611 31.000038-111.319341 14.916734 58.583257-31.127951 82.051761-84.265172 94.304829-145.102772-44.638663 69.056795-110.067838 96.432283-187.710173 86.487793-56.123228-7.187703-110.723777-26.270317-166.003801-40.048111 15.677051-14.358009 31.136138-24.116257 47.932686-27.839045 51.427276-11.399631 103.405091-20.301372 155.098427-30.524201 37.036521-7.323802 75.163887-12.144598 104.448864-40.879036-78.096682 23.458271-155.928329 30.034037-235.541551 9.092076C186.718589 530.20385 104.838743 479.821369 81.996502 429.437865c46.955428 23.955598 95.807043 18.776645 144.606469 17.139356 37.737486-1.266853 76.089979-3.461845 113.238041 1.594311 52.683896 7.170307 104.513332 20.624736 159.209048 31.909757-91.88164-62.077847-186.516997-122.342396-159.194722-259.889075 58.852386 100.205213 163.392324 150.107763 229.951229 238.105956-16.239869-91.498924 6.980995-169.376619 66.432015-237.83785 41.815361-48.152696 89.979314-92.010577 110.706381-156.013263 12.758582 141.877311-25.823132 270.789333-97.911984 396.334677C755.996107 391.809873 858.199837 325.909977 962.691679 258.53447400000005zM513.476631 320.10169099999996c-27.767414-14.065344-39.008432-35.954887-42.252313-64.998363-6.078439-54.437843-15.162328-108.532879-21.799492-162.916487-3.90903-32.026414-5.519714-64.333214-8.16496-96.53052 30.078039 0 55.507198 0 79.961146 0 9.912767 78.200036 19.732413 154.247037 28.913517 230.369761 0.883113 7.322779-0.756223 15.746636-3.705392 22.591531C536.246217 272.25086999999996 524.967336 295.41135899999995 513.476631 320.10169099999996z" fill="currentColor" transform="scale(1,-1) translate(0,-768)"/>
</svg>
