<svg xmlns="http://www.w3.org/2000/svg"
     viewBox="0 -128 1024 1024"
     width="24" height="24">
  <path d="M150.336 767.6800000000001C133.44 762.304 124.16 744.3199999999999 129.472 727.488 131.2 722.1759999999999 134.208 717.44 138.304 713.664l122.624-122.432C270.208 576.192 289.92 571.52 304.96 580.736 320 590.0799999999999 324.672 609.7280000000001 315.456 624.832 312.832 629.056 309.184 632.64 304.96 635.264L182.336 757.696C175.168 765.44 164.672 769.216 154.304 767.6800000000001 152.96 767.808 151.552 767.808 150.336 767.6800000000001L150.336 767.6800000000001zM406.08 831.424c-13.696-4.48-22.72-17.6-22.016-32L384.064 672c0-17.664 14.336-32 32-32s31.872 14.336 31.872 32L447.936 799.424C448.256 817.088 434.304 831.6800000000001 416.64 832 414.464 832.064 412.16 831.808 410.048 831.424 408.704 831.552 407.296 831.552 406.08 831.424L406.08 831.424zM91.392 511.872C73.728 509.12 61.632 492.544 64.384 474.88 67.136 457.28 83.712 445.248 101.376 448L224 448C241.664 448 256 462.208 256 479.872s-14.336 32-32 32L101.376 511.872c-1.984 0.192-3.968 0.192-6.016 0C94.016 512 92.608 512 91.392 511.872L91.392 511.872zM795.456 320c-17.728-2.752-29.824-14.08-27.072-31.744 2.752-17.6 19.328-35.008 36.992-32.256L928 256c17.664 0 32 19.584 32 37.248S945.664 320 928 320l-122.624 0c-1.984 0.192-3.968 0.192-6.016 0-1.344 0.128-2.688 0.128-4.032 0L795.456 320zM598.272 127.42399999999998c-13.76-4.48-22.72-17.6-22.08-32L576.192-32c0-17.664 14.336-32 32-32S640-49.66399999999999 640-32l0 127.424c0.32 17.6-13.568 32.256-31.232 32.576-2.176 0.064-4.352-0.192-6.592-0.576-1.344 0.128-2.688 0.128-4.032 0L598.272 127.42399999999998zM726.272 191.67999999999995c-16.896-5.376-26.24-23.36-20.864-40.192 1.664-5.312 4.736-10.048 8.832-13.824l122.56-122.432c9.28-15.04 28.928-19.776 44.032-10.496 14.976 9.344 19.712 28.992 10.368 44.032-2.624 4.224-6.144 7.808-10.368 10.432l-122.56 122.432c-7.168 7.744-17.6 11.52-28.032 9.984-1.344 0.128-2.688 0.128-4.032 0L726.272 191.61599999999999zM339.968 28.03200000000004c-49.152 0-98.304 18.688-135.744 56.128-74.816 74.88-74.816 196.608 0 271.488l87.744 87.744c12.48 12.48 32.768 12.48 45.248 0s12.48-32.768 0-45.248L249.408 310.46400000000006c-49.92-49.856-49.92-131.136 0-180.992 49.856-49.856 131.136-49.856 180.992 0l87.744 87.744c12.48 12.48 32.768 12.48 45.248 0s12.48-32.768 0-45.248l-87.744-87.744C438.272 46.72000000000003 389.12 28.03200000000004 339.968 28.03200000000004zM702.144 323.712c-8.192 0-16.384 3.136-22.656 9.344-12.48 12.48-12.48 32.768 0 45.248l87.744 87.744c49.856 49.92 49.856 131.072 0 180.992-49.856 49.856-131.136 49.856-180.992 0L498.496 559.296c-12.48-12.48-32.768-12.48-45.248 0s-12.48 32.768 0 45.248l87.744 87.744c74.88 74.88 196.608 74.88 271.488 0 74.88-74.816 74.88-196.672 0-271.488l-87.744-87.744C718.528 326.784 710.336 323.712 702.144 323.712z" fill="currentColor" transform="scale(1,-1) translate(0,-768)"/>
</svg>
