<svg xmlns="http://www.w3.org/2000/svg"
     viewBox="0 -128 1024 1024"
     width="24" height="24">
  <path d="M512-128c282.768 0 512 229.216 512 512C1024 666.768 794.768 896 512 896 229.216 896 0 666.768 0 384 0 101.21600000000001 229.216-128 512-128zM512 848c256.272 0 464-207.744 464-464 0-256.272-207.728-464-464-464S48 127.72799999999995 48 384C48 640.256 255.728 848 512 848zM377.728 534.544L480 534.544l0-478c0-17.664 14.336-32 32-32s32 14.336 32 32L544 534.544l102.272 0c17.616 0 23.424 11.568 12.944 25.68l-128.128 172.624c-10.496 14.128-27.664 14.128-38.16 0L364.8 560.24C354.32 546.1120000000001 360.128 534.544 377.728 534.544z" fill="currentColor" transform="scale(1,-1) translate(0,-768)"/>
</svg>
