<svg xmlns="http://www.w3.org/2000/svg"
     viewBox="0 -128 1024 1024"
     width="24" height="24">
  <path d="M831.488 478.208C831.488 478.208 831.488 478.208 831.488 478.208c0 143.36-114.688 258.048-253.952 258.048-98.304 0-184.32-57.344-225.28-139.264C327.68 605.184 307.2 609.28 286.72 609.28c-90.112 0-159.744-73.728-159.744-159.744 0-16.384 4.096-28.672 8.192-40.96C57.344 379.904 0 310.27200000000005 0 224.25599999999997c0-106.496 86.016-192.512 192.512-192.512l192.512 0 0 192.512L258.048 224.25599999999997l258.048 258.048 258.048-258.048-126.976 0 0-192.512 192.512 0L839.68 35.84000000000003c106.496 16.384 192.512 110.592 192.512 221.184C1024 371.712 937.984 465.92 831.488 478.208z" fill="currentColor" transform="scale(1,-1) translate(0,-768)"/>
</svg>
