<svg xmlns="http://www.w3.org/2000/svg"
     viewBox="0 -128 1024 1024"
     width="24" height="24">
  <path d="M514.594 824.888c-144.11 0-260.979-118.46-260.979-264.558 0-88.783 43.497-166.928 109.711-214.898-135.361-59.354-230.159-195.858-230.159-354.931h0.894c1.541-21.375 18.641-38.377 40.117-38.377s38.575 17.051 40.117 38.377h0.645c0 0.944-0.099 1.79-0.099 2.734 0 0.05 0 0.099 0 0.149 0 0.099-0.05 0.149-0.05 0.199 0.05 159.967 120 291.054 273.009 304.924 8.948-0.944 17.598-2.734 26.844-2.734 144.11 0 260.979 118.46 260.979 264.558s-116.919 264.558-261.029 264.558zM514.594 377.54499999999996c-99.769 0-180.698 81.972-180.698 183.183s80.879 183.183 180.698 183.183c99.719 0 180.647-81.972 180.647-183.183s-80.879-183.183-180.647-183.183zM896.021-6.615000000000009c0 0.348-0.199 0.645-0.199 0.994-1.043 105.038-43.397 200.034-111.35 269.131v0c-7.157 7.357-17.001 11.98-27.986 11.98-21.574 0-39.122-17.747-39.122-39.668 0-11.135 4.573-21.127 11.83-28.334l-0.099-0.05c52.742-55.229 85.302-130.589 85.302-213.853 0-1.043-0.149-1.987-0.149-3.034h0.994c1.491-21.375 18.691-38.377 40.117-38.377 21.475 0 38.575 17.051 40.117 38.377h0.597c0 0.796-0.099 1.491-0.099 2.287-0.05 0.149 0.05 0.348 0.05 0.547z" fill="currentColor" transform="scale(1,-1) translate(0,-768)"/>
</svg>
