<svg xmlns="http://www.w3.org/2000/svg"
     viewBox="0 -128 1024 1024"
     width="24" height="24">
  <path d="M282.127566 639.0826059999999c-13.120832-13.221116-30.625508-20.50808-49.278333-20.50808-18.618033 0-36.157501 7.286963-49.311079 20.50808l-32.885991 33.019021 98.623181 99.027387 32.885991-33.019021c13.186324-13.221116 20.473287-30.829146 20.473287-49.548486C302.599829 669.8769589999999 295.347658 652.26893 282.127566 639.0826059999999L282.127566 639.0826059999999zM249.308089 705.0899489999999l-0.032746 0-32.884968-32.987299c4.418636-4.417613 10.252505-6.845918 16.458857-6.845918 6.206352 0 12.041244 2.428306 16.426111 6.813173 4.418636 4.452405 6.845918 10.288321 6.845918 16.493649C256.121262 694.802652 253.693979 700.671313 249.308089 705.0899489999999L249.308089 705.0899489999999zM396.703067 496.343671L249.578242 638.778684l32.278147 33.626865 147.157571-142.468782L396.703067 496.343671 396.703067 496.343671zM751.45979 133.92852400000004L618.131179 274.071332l32.884968 32.985252 133.330658-140.141784L751.45979 133.92852400000004 751.45979 133.92852400000004zM850.184279 67.95597399999997c-22.700001-22.766516-52.481282-34.168194-82.264609-34.168194-29.714765 0-59.395762 11.333116-81.994456 34.033118L538.194592 222.398462l32.884968 33.021068L718.811206 100.806149c27.117614-27.183106 71.269183-27.116591 98.488105 0.169869 27.186176 27.287483 27.117614 71.773673-0.135076 99.196233l-147.426701 154.273642 32.851199 33.021068 147.461493-154.308435C895.447159 187.557956 895.514697 113.421468 850.184279 67.95597399999997L850.184279 67.95597399999997zM801.716404 468.380806c-30.726815-30.860868-71.605851-47.861054-115.082038-47.861054-43.442418 0-84.321454 16.999163-115.082038 47.861054-30.760584 30.861892-47.692209 71.877027-47.692209 115.521037s16.931624 84.691891 47.692209 115.554806l42.497906 42.666752 32.885991-32.986275-42.497906-42.667775c-21.99085-22.090111-34.099632-51.367925-34.065863-82.566484 0-31.163767 12.108782-60.441581 34.065863-82.499969 21.956058-22.058388 51.16531-34.20094 82.196047-34.20094 31.064506 0 60.239989 12.142551 82.196047 34.20094l42.49893 42.665729 32.884968-33.019021L801.716404 468.380806 801.716404 468.380806zM844.214311 511.049604l-49.311079 49.51267-16.45988-16.493649c-17.538445-17.638729-40.879036-27.352975-65.73719-27.352975l-0.032746 0c-24.824385 0-48.198745 9.713222-65.73719 27.352975-17.539468 17.607006-27.252691 41.082674-27.252691 66.007343 0 24.925692 9.679453 48.400337 27.252691 66.040089l16.458857 16.495696-49.344848 49.51267 32.885991 33.021068 82.196047-82.533738-49.311079-49.482995c-8.769734-8.835226-13.626345-20.571525-13.626345-33.051767 0-12.446473 4.856611-24.183795 13.626345-32.987299 8.768711-8.835226 20.439518-13.69286 32.884968-13.69286 12.411681 0 24.082488 4.857635 32.852222 13.69286l49.344848 49.514717 82.196047-82.534761L844.214311 511.049604 844.214311 511.049604zM233.591129 129.139451l0 46.681182 46.512337 0 0-46.681182L233.591129 129.139451 233.591129 129.139451zM538.160823 356.538555l-92.247984 91.572602 32.717146 33.18889 92.214215-91.539856L538.160823 356.538555 538.160823 356.538555zM304.2187 101.04355599999997l173.634596 239.842507 37.641295-27.454282L338.318332 69.23715300000003c-21.923312-22.057365-51.132564-34.20094-82.19707-34.20094-31.028691 0-60.237943 12.143575-82.196047 34.168194-21.958104 22.057365-34.065863 51.335179-34.065863 82.533738 0 31.198559 12.107759 60.476373 34.065863 82.533738l2.765997 2.360767L417.243893 412.054963l27.353998-37.742603L205.596542 200.00340600000004c-12.411681-13.053294-19.224854-30.119995-19.224854-48.26526 0-18.71934 7.252171-36.291554 20.438495-49.513694C232.747925 76.15265599999998 277.775444 75.71263499999998 304.2187 101.04355599999997L304.2187 101.04355599999997z" fill="currentColor" transform="scale(1,-1) translate(0,-768)"/>
</svg>
