<svg xmlns="http://www.w3.org/2000/svg"
     viewBox="0 -128 1024 1024"
     width="24" height="24">
  <path d="M513.807059-128C351.171765-128 58.428235 126.19294100000002 54.211765 376.16941199999997V662.287059a93.364706 93.364706 0 0 0 81.317647 88.545882 570.428235 570.428235 0 0 1 163.237647 40.357647A393.336471 393.336471 0 0 1 446.945882 872.508235a101.797647 101.797647 0 0 0 120.470589 5.421177A629.458824 629.458824 0 0 1 716.8 792.395294a1255.303529 1255.303529 0 0 1 169.863529-38.550588 98.785882 98.785882 0 0 0 79.510589-90.955294 2911.171765 2911.171765 0 0 0-3.011765-291.538824C924.611765 49.09176500000001 672.828235-128 513.807059-128z m0 963.764706a39.152941 39.152941 0 0 1-24.696471-7.830588A438.512941 438.512941 0 0 0 319.247059 734.569412a608.376471 608.376471 0 0 0-180.705883-43.369412 33.731765 33.731765 0 0 1-24.094117-30.117647v-283.708235C118.663529 155.10588199999995 389.722353-67.76470600000005 513.807059-67.76470600000005s354.183529 148.178824 391.529412 444.536471c9.035294 175.887059 0 281.901176 0 283.105882a38.550588 38.550588 0 0 1-29.515295 33.731765 1287.830588 1287.830588 0 0 0-180.705882 41.562353A676.442353 676.442353 0 0 0 536.094118 829.741176a37.345882 37.345882 0 0 1-24.094118 6.02353zM784.865882 479.171765L487.905882 198.47529399999996a40.357647 40.357647 0 0 0-49.392941-4.818823l-7.830588 6.625882-161.430588 171.068235a40.357647 40.357647 0 1 0 60.235294 55.416471l133.722353-141.552941 267.444706 252.988235a40.357647 40.357647 0 1 0 55.41647-60.235294" fill="currentColor" transform="scale(1,-1) translate(0,-768)"/>
</svg>
