<svg xmlns="http://www.w3.org/2000/svg"
     viewBox="0 -128 1024 1024"
     width="24" height="24">
  <path d="M952.523633 599.2477269999999L952.523633 599.2477269999999 952.523633 599.2477269999999zM100.53762400000005 661.054062C100.53762400000005 661.054062 100.53762400000005 661.054062 100.53762400000005 661.054062 100.53762400000005 661.054062 100.53762400000005 661.054062 100.53762400000005 661.054062zM100.74228 720.404517L100.74228 720.404517 100.74228 720.404517zM660.990107 739.9449716666666c8.697911 0 17.498151-0.511642 25.684421-2.353553 12.279404-2.865194 23.22854-8.18627 34.382332-16.679524 15.144599-11.460777 26.196063-29.572899 32.02878-52.187469 3.479165-13.405016 2.967523-28.651944 2.558209-42.05696-0.102328-4.195463-0.204657-8.083941-0.204657-11.665434l0-37.759169 101.407415 70.401919 25.479764 17.60048c0.511642 0.306985 1.330269 1.023284 2.148896 1.637254 4.40012 3.376836 11.051464 8.595583 20.977316 11.051464 3.274508 0.818627 6.549016 1.22794 10.02818 1.22794 9.618867 0 19.44239-3.274508 27.730987999999996-9.311882 18.82842-13.916657999999998 18.726092-35.405616 18.726092-51.061857 0-1.023284 0-2.148896 0-3.172179l0-409.620466c0-15.963226 0.102328-37.963825-19.647047-51.982812-6.753672-4.809433-16.679524-8.390926-27.219346-8.390926-5.01409 0-10.130509 0.818627-15.144599 2.762866-7.162986 2.762866-12.279404 6.856000999999999-16.065554 9.823524-0.920955 0.716299-1.841911 1.432597-2.353553 1.841911l-24.968122 17.395823-101.10043 70.094934 0-37.963825c0-3.581493 0.102328-7.367643 0.204657-11.460777 0.409313-14.735285 0.818627-29.982212-2.865194-43.796542-5.62806-21.488957999999997-16.679524-39.396423-31.107825-50.447886-7.879285-6.037374-18.930748-13.405016-34.075347-16.986509-7.776956-1.841911-16.167882-2.353553-24.45648-2.353553-4.297792 0-8.595583 0.102328-12.688718 0.204657-3.683821 0.102328-7.162986 0.204657-10.232837 0.204657L167.15339300000005 84.94107466666674c-1.944239 0-3.888478 0-5.832717 0-1.944239 0-3.990806 0-5.935045 0-16.577196 0-33.461377 0.61397-47.787349 6.549016-27.935644999999997 11.563106-46.764065 37.759169-53.006096 73.574098l-0.409313 2.251224 0 2.353553c-0.102328 18.930748-0.204657 37.861497-0.306985 56.792245l0 0.511642L53.87588699999998 598.0155226666666c0 4.40012-0.102328 8.902568-0.102328 13.712001999999998-0.306985 27.01469-0.716299 54.950335 9.311882 76.643949 9.823524 21.284300999999996 27.526331999999996 38.066154 48.708304 45.945438 5.730389 2.148896 11.051464 2.762866 15.04227 3.172179 1.023284 0.102328 2.353553 0.306985 3.069851 0.409313l4.093135 1.534926 500.9997 0c3.581493 0 7.572299 0.102328 11.767763 0.306985C651.166583 739.7403146666667 656.078345 739.9449716666666 660.990107 739.9449716666666M304.273409 266.7785886666668L559.889677 394.2797376666667l0 33.973019L304.273409 555.9585626666667 304.273409 266.7785886666668M660.990107 780.8763196666666c-5.62806 0-10.949136-0.204657-15.758569-0.306985-3.888478-0.102328-7.469971-0.204657-10.437494-0.204657L133.79434400000002 780.3646776666667l-7.265314 0-6.446687-2.353553c-5.3210749999999996-0.61397-13.609673-1.841911-22.716898-5.218747-31.210153-11.665434-57.303887-36.121915-71.629859-67.229739-13.814329999999998-30.084541-13.405016-64.159888-12.995703-94.244429 0.102328-4.604777 0.102328-9.004897 0.102328-13.20036l0-371.349655 0-0.102328 0-0.102328 0-0.511642c0.102328-18.930748 0.204657-37.861497 0.306985-56.792245l0-2.251224 0-3.479165 0.61397-3.376836 0.409313-2.251224c4.195463-23.944839 12.791046-45.126811 25.479764-62.727291 13.609673-18.82842 31.107825-32.847407 52.08514-41.545318 21.488957999999997-8.902568 44.001199-9.618867 63.443589-9.618867 2.046567 0 4.093135 0 6.139702 0 1.841911 0 3.78615 0 5.62806 0l473.166384 0c2.558209 0 5.62806-0.102328 9.004897-0.204657 4.195463-0.102328 8.902568-0.306985 13.916657999999998-0.306985 13.302688 0 24.149495 1.125612 33.973019 3.479165 22.819227 5.423404 39.089437 16.474868 49.322274 24.251824 21.693613999999997 16.577196 37.963825 42.363944999999994 45.84311 72.653143 2.251224 8.595583 3.376836 17.088838 3.990806 25.377436l36.838213-25.582093 24.558809-17.088838c0.306985-0.204657 0.61397-0.511642 0.920955-0.716299 4.809433-3.683821 13.609673-10.642149999999999 26.400719-15.656241 9.516538-3.683821 19.647047-5.62806 30.084541-5.62806 18.009793 0 36.53122799999999 5.832717 50.8572 15.963226 16.577196 11.767763 27.730987999999996 27.935644999999997 33.052064 48.094334 3.78615 14.4283 3.78615 27.628659999999996 3.78615 37.34985499999999l0 409.518137c0 0.920955 0 1.739582 0 2.660538l0 0.409313c0 9.41421 0.102328 22.409913-3.479165 36.53122799999999-5.116419 19.749375-15.758569 35.81493-31.721795 47.68502-15.144599 11.153792-33.666034 17.293495-52.08514 17.293495-6.753672 0-13.507345-0.818627-19.954032-2.455881-18.21445-4.604777-30.289198-13.916657999999998-36.019586-18.419107l0 0c-0.204657-0.204657-0.511642-0.409313-0.716299-0.511642l-25.172779-17.293495-0.102328 0-0.102328 0-37.14519799999999-25.786749c-0.511642 7.674628-1.637254 15.553912-3.683821 23.433197-8.18627 31.721795-24.354152 57.508544-46.866394 74.597382-15.758569 11.972419-32.02878 19.851704-49.833916 23.944839C685.8559009999999 779.7507076666667 674.702109 780.8763196666666 660.990107 780.8763196666666L660.990107 780.8763196666666zM345.204757 332.9850436666668L345.204757 489.75210666666663l157.074048-78.48586L345.204757 332.9850436666668 345.204757 332.9850436666668zM347.455981 429.177975L347.455981 308.02118499999995 347.455981 429.177975Z" fill="currentColor" transform="scale(1,-1) translate(0,-768)"/>
</svg>
