<svg xmlns="http://www.w3.org/2000/svg"
     viewBox="0 -128 1024 1024"
     width="24" height="24">
  <path d="M463.380164 644.0568969999999v-0.003069c-4.550643 4.549619-10.484795 7.02295-16.913205 7.02295s-12.365632-2.473331-16.915251-7.02295c-4.549619-4.551666-7.020904-10.485819-7.020904-16.914229s2.471284-12.365632 7.020904-16.915251c60.437487-60.438511 93.675496-140.756791 93.675496-226.222301 0-85.464487-33.238009-165.783791-93.675496-226.220255-4.549619-4.551666-7.020904-10.487865-7.020904-16.915252 0-6.429433 2.471284-12.365632 7.020904-16.914228 4.550643-4.549619 10.486842-7.02295 16.915251-7.02295s12.364609 2.473331 16.913205 7.02295c35.114752 35.116799 62.317301 76.06849 80.814584 121.668037 17.904789 44.018539 26.90579 90.608647 26.90579 138.384768s-9.101285 94.26799-26.90579 138.384767c-18.59552 45.697785-45.698808 86.550215-80.814584 121.667013zM781.892405 618.929614v-0.002047c-31.358195 77.452-77.550237 146.990772-137.098471 206.539007-4.550643 4.549619-10.485819 7.02295-16.915252 7.02295-6.42841 0-12.363585-2.473331-16.914228-7.02295-9.29776-9.299807-9.29776-24.531719 0-33.82948 54.997592-54.998615 97.631598-119.195729 126.613676-190.71153 27.993564-69.044516 42.237987-142.045133 42.237987-216.924541s-14.244422-147.882072-42.237987-216.923518c-28.982078-71.517847-71.616084-135.616724-126.613676-190.711529-9.29776-9.298783-9.29776-24.531719 0-33.82948 4.551666-4.551666 10.485819-7.02295 16.914228-7.02295 6.429433 0 12.366655 2.471284 16.915252 7.02295 59.547211 59.547211 105.740276 129.085984 137.098471 206.53696 30.369681 74.78117 45.699832 153.817248 45.699831 234.928591 0 81.111343-15.331173 160.146397-45.699831 234.927567zM299.474141 427.621497c-11.670807 11.573593-27.103288 18.004049-43.522236 18.004049-16.419971 0-31.852452-6.429433-43.52326-18.004049-11.57257-11.57257-18.003026-27.104311-18.003026-43.522236 0-16.420995 6.42841-31.851429 18.003026-43.52326 11.574616-11.57257 27.103288-18.003026 43.52326-18.003025s31.852452 6.429433 43.522236 18.003025c11.573593 11.573593 18.003026 27.104311 18.003025 43.52326 0 16.419971-6.427386 31.852452-18.003025 43.522236z" fill="currentColor" transform="scale(1,-1) translate(0,-768)"/>
</svg>
