<svg xmlns="http://www.w3.org/2000/svg"
     viewBox="0 -128 1024 1024"
     width="24" height="24">
  <path d="M862.315763 33.684211000000005C802.869868 33.684211000000005 754.526289 82.94399999999996 754.526289 143.50371900000005 754.526289 162.33094700000004 759.35885 180.96056099999998 768.520956 197.43438600000002 768.64671 197.79368399999998 768.808394 198.15298199999995 769.006008 198.49431600000003L849.075622 334.542596 849.057657 334.542596 862.315763 357.052632 875.573868 334.542596 875.573868 334.542596 955.140464 199.356632C955.715341 198.67396499999995 956.164464 197.865544 956.380043 196.96729800000003 965.380464 180.60126300000002 970.123201 162.151298 970.105236 143.50371900000005 970.105236 82.94399999999996 921.761657 33.684211000000005 862.315763 33.684211000000005L862.315763 33.684211000000005ZM924.33064 188.57768399999998C924.204885 188.79326300000002 924.115061 189.02680699999996 924.025236 189.27831600000002L862.315763 302.996211 800.606289 189.260351C800.516464 189.02680699999996 800.42664 188.79326300000002 800.300885 188.57768399999998 793.977236 176.505263 790.635763 162.81600000000003 790.635763 148.965053 790.635763 105.29235100000005 822.792956 69.75775399999998 862.333727 69.75775399999998 901.856534 69.75775399999998 933.995763 105.29235100000005 933.995763 148.98301800000002 933.995763 162.81600000000003 930.654289 176.52322800000002 924.33064 188.57768399999998L924.33064 188.57768399999998ZM682.684605 392.982456C593.50678 392.982456 520.982429 469.602807 520.982429 563.8108070000001 520.982429 593.093614 528.240254 622.071018 541.965447 647.706947 542.163061 648.281825 542.396605 648.820772 542.684043 649.341754L662.815412 860.968421 662.797447 860.968421 682.684605 896 702.571763 860.968421 702.535833 860.968421 821.89471 650.689123C822.774991 649.647158 823.439692 648.3716489999999 823.781026 646.970386 837.25471 621.514105 844.368815 592.8241399999999 844.35085 563.8108070000001 844.35085 469.602807 771.844464 392.982456 682.684605 392.982456L682.684605 392.982456ZM791.408254 630.1192980000001C791.21064 630.4965609999999 791.030991 630.891789 790.887271 631.322947L682.684605 823.924772 574.446008 631.287018C574.320254 630.891789 574.140605 630.4965609999999 573.942991 630.1013330000001 562.840675 609.6931930000001 556.912254 596.075789 556.912254 572.631579 556.912254 498.634105 613.375973 428.876351 682.684605 428.876351 751.993236 428.876351 808.367131 489.058807 808.367131 563.056281 808.367131 586.500491 802.492605 609.6931930000001 791.408254 630.1192980000001L791.408254 630.1192980000001ZM538.695833 276.983018C540.115061 275.330246 541.174991 273.33614 541.713938 271.12645599999996 563.433517 231.11859600000003 574.895131 186.02666699999997 574.895131 140.43171900000004 574.895131-7.581192999999985 458.051341-128 314.403903-128 170.738499-128 53.89471-7.581192999999985 53.89471 140.43171900000004 53.89471 186.47578899999996 65.589868 231.998877 87.704675 272.294175 88.010078 273.17445599999996 88.387341 274.01880700000004 88.872394 274.863158L282.408394 607.411649 282.372464 607.411649 314.403903 662.45614 346.453306 607.411649 346.399412 607.411649 538.695833 276.983018 538.695833 276.983018ZM314.403903 590.614456L119.807973 257.79649099999995C119.556464 257.113825 119.251061 256.449123 118.873798 255.78442099999995 98.932745 220.48336800000004 88.387341 180.42161399999998 88.387341 139.91073700000004 88.387341 12.072420999999963 189.799271-91.89052600000002 314.421868-91.89052600000002 439.026499-91.89052600000002 540.420464 12.072420999999963 540.402499 139.91073700000004 540.402499 180.42161399999998 529.857096 220.50133300000005 509.916043 255.78442099999995 509.53878 256.449123 509.233377 257.131789 508.963903 257.86835099999996L314.403903 590.614456 314.403903 590.614456Z" fill="currentColor" transform="scale(1,-1) translate(0,-768)"/>
</svg>
