<svg xmlns="http://www.w3.org/2000/svg"
     viewBox="0 -128 1024 1024"
     width="24" height="24">
  <path d="M723 275.5C666.8 324.4 593.4 354 513 354s-153.8-29.6-210.1-78.6c-3.2-2.8-3.6-7.8-0.8-11.2l36-42.9c2.9-3.4 8-3.8 11.4-0.9C393.1 258.8 450.3 282 513 282s119.9-23.2 163.5-61.5c3.4-2.9 8.5-2.5 11.4 0.9l36 42.9c2.8 3.3 2.4 8.3-0.9 11.2zM840.4 415.6C751.7 489.5 637.6 534 513 534s-238.7-44.5-327.5-118.4c-3.4-2.8-3.8-7.9-1-11.3l36-42.9c2.8-3.4 7.9-3.8 11.2-1C308 423.8 406.1 462 513 462s205-38.2 281.2-101.6c3.4-2.8 8.4-2.4 11.2 1l36 42.9c2.8 3.4 2.4 8.5-1 11.3zM957.1 554.6C835.7 654.2 680.3 714 511 714c-168.2 0-322.6-59-443.7-157.4-3.5-2.8-4-7.9-1.1-11.4l36-42.9c2.8-3.3 7.8-3.8 11.1-1.1C222 589.3 360.3 642 511 642c151.8 0 291-53.5 400-142.7 3.4-2.8 8.4-2.3 11.2 1.1l36 42.9c2.9 3.4 2.4 8.5-1.1 11.3zM512 118m-64 0a64 64 0 1 1 128 0 64 64 0 1 1-128 0Z" fill="currentColor" transform="scale(1,-1) translate(0,-768)"/>
</svg>
