<svg xmlns="http://www.w3.org/2000/svg" height="48" viewBox="0 -960 960 960" width="48"><path d="M480-80q-84 0-157-31t-127-85q-54-54-85-127T80-480q0-84 31-157t85-127q54-54 127-85t157-31q42 0 77.5 7t85.5 26l-111 48 189 80 63 146q-133 17-231.5-25T383-722q-34 81-97.5 141.5T140-487q0 145 99 246t241 101q143 0 241.5-99.5T820-480q0-22-2.5-39.5L813-551l36-85q16 43 23.5 77t7.5 79q0 83-31 156t-85 127q-54 54-127 85.5T480-80ZM315.5-398.5Q300-414 300-437t15.5-38.5Q331-491 354-491t38.5 15.5Q408-460 408-437t-15.5 38.5Q377-383 354-383t-38.5-15.5Zm253 0Q553-414 553-437t15.5-38.5Q584-491 607-491t38.5 15.5Q661-460 661-437t-15.5 38.5Q630-383 607-383t-38.5-15.5ZM804-656l-45-102-99-42 99-41 45-102 44 102 99 41-99 42-44 102Z"/></svg>