<svg xmlns="http://www.w3.org/2000/svg" height="48" viewBox="0 -960 960 960" width="48"><path d="M109.91-150Q81-150 60.5-170.59 40-191.18 40-220.09t20.49-49.41q20.5-20.5 49.28-20.5 5.23 0 10.23.5t13 2.5l200-200q-2-8-2.5-13t-.5-10.23q0-28.78 20.59-49.28Q371.18-580 400.09-580t49.41 20.63q20.5 20.64 20.5 49.61 0 1.76-3 22.76l110 110q8-2 13-2.5t10-.5q5 0 10 .5t13 2.5l160-160q-2-8-2.5-13t-.5-10.23q0-28.78 20.59-49.28Q821.18-630 850.09-630t49.41 20.59q20.5 20.59 20.5 49.5t-20.49 49.41q-20.5 20.5-49.28 20.5-5.23 0-10.23-.5t-13-2.5L667-333q2 8 2.5 13t.5 10.23q0 28.78-20.59 49.28Q628.82-240 599.91-240t-49.41-20.49q-20.5-20.5-20.5-49.28 0-5.23.5-10.23t2.5-13L423-443q-8 2-13 2.5t-10.25.5q-1.75 0-22.75-3L177-243q2 8 2.5 13t.5 10.23q0 28.78-20.59 49.28Q138.82-150 109.91-150ZM160-592l-20.25-43.75L96-656l43.75-20.25L160-720l20.25 43.75L224-656l-43.75 20.25L160-592Zm440-51-30.72-66.28L503-740l66.28-30.72L600-837l30.72 66.28L697-740l-66.28 30.72L600-643Z"/></svg>