<svg xmlns="http://www.w3.org/2000/svg" height="48" viewBox="0 -960 960 960" width="48"><path d="m753-604-44-94-94-44 94-44 44-94 44 94 94 44-94 44-44 94Zm84 289-30-63-63-30 63-30 30-63 30 63 63 30-63 30-30 63ZM314-80l-10-92q-14-2-29-9t-26-17l-78 33-88-144 76-50q-4-14-4-30t4-30l-76-50 88-144 78 33q11-10 26-17t29-9l10-92h168l10 92q14 2 29 9t26 17l78-33 88 144-76 50q4 14 4 30t-4 30l76 50-88 144-78-33q-11 10-26 17t-29 9l-10 92H314Zm165.5-227.5Q513-341 513-389t-33.5-81.5Q446-504 398-504t-81.5 33.5Q283-437 283-389t33.5 81.5Q350-274 398-274t81.5-33.5Z"/></svg>